%TF.GenerationSoftware,KiCad,Pcbnew,7.0.6*%
%TF.CreationDate,2024-10-08T11:46:52-03:00*%
%TF.ProjectId,Circuito_Exemplo,43697263-7569-4746-9f5f-4578656d706c,rev?*%
%TF.SameCoordinates,Original*%
%TF.FileFunction,Copper,L2,Bot*%
%TF.FilePolarity,Positive*%
%FSLAX46Y46*%
G04 Gerber Fmt 4.6, Leading zero omitted, Abs format (unit mm)*
G04 Created by KiCad (PCBNEW 7.0.6) date 2024-10-08 11:46:52*
%MOMM*%
%LPD*%
G01*
G04 APERTURE LIST*
G04 Aperture macros list*
%AMRoundRect*
0 Rectangle with rounded corners*
0 $1 Rounding radius*
0 $2 $3 $4 $5 $6 $7 $8 $9 X,Y pos of 4 corners*
0 Add a 4 corners polygon primitive as box body*
4,1,4,$2,$3,$4,$5,$6,$7,$8,$9,$2,$3,0*
0 Add four circle primitives for the rounded corners*
1,1,$1+$1,$2,$3*
1,1,$1+$1,$4,$5*
1,1,$1+$1,$6,$7*
1,1,$1+$1,$8,$9*
0 Add four rect primitives between the rounded corners*
20,1,$1+$1,$2,$3,$4,$5,0*
20,1,$1+$1,$4,$5,$6,$7,0*
20,1,$1+$1,$6,$7,$8,$9,0*
20,1,$1+$1,$8,$9,$2,$3,0*%
G04 Aperture macros list end*
%TA.AperFunction,ComponentPad*%
%ADD10C,1.600000*%
%TD*%
%TA.AperFunction,ComponentPad*%
%ADD11O,1.600000X1.600000*%
%TD*%
%TA.AperFunction,ComponentPad*%
%ADD12RoundRect,0.250000X-0.620000X-0.845000X0.620000X-0.845000X0.620000X0.845000X-0.620000X0.845000X0*%
%TD*%
%TA.AperFunction,ComponentPad*%
%ADD13O,1.740000X2.190000*%
%TD*%
%TA.AperFunction,ComponentPad*%
%ADD14R,1.700000X1.700000*%
%TD*%
%TA.AperFunction,ComponentPad*%
%ADD15O,1.700000X1.700000*%
%TD*%
%TA.AperFunction,ComponentPad*%
%ADD16R,1.800000X1.800000*%
%TD*%
%TA.AperFunction,ComponentPad*%
%ADD17C,1.800000*%
%TD*%
%TA.AperFunction,Conductor*%
%ADD18C,1.750000*%
%TD*%
G04 APERTURE END LIST*
D10*
%TO.P,R1,1*%
%TO.N,+3.3V*%
X131699000Y-51054000D03*
D11*
%TO.P,R1,2*%
%TO.N,Net-(D1-A)*%
X131699000Y-61214000D03*
%TD*%
D12*
%TO.P,J2,1,Pin_1*%
%TO.N,SCL*%
X118237000Y-50165000D03*
D13*
%TO.P,J2,2,Pin_2*%
%TO.N,SDA*%
X120777000Y-50165000D03*
%TO.P,J2,3,Pin_3*%
%TO.N,+3.3V*%
X123317000Y-50165000D03*
%TO.P,J2,4,Pin_4*%
%TO.N,GND*%
X125857000Y-50165000D03*
%TD*%
D14*
%TO.P,J1,1,Pin_1*%
%TO.N,SCL*%
X118237000Y-70739000D03*
D15*
%TO.P,J1,2,Pin_2*%
%TO.N,SDA*%
X120777000Y-70739000D03*
%TO.P,J1,3,Pin_3*%
%TO.N,+3.3V*%
X123317000Y-70739000D03*
%TO.P,J1,4,Pin_4*%
%TO.N,GND*%
X125857000Y-70739000D03*
%TD*%
D16*
%TO.P,D1,1,K*%
%TO.N,GND*%
X131572000Y-69469000D03*
D17*
%TO.P,D1,2,A*%
%TO.N,Net-(D1-A)*%
X131572000Y-66929000D03*
%TD*%
D18*
%TO.N,+3.3V*%
X123317000Y-50165000D02*
X123317000Y-70739000D01*
X131699000Y-46609000D02*
X131699000Y-51054000D01*
X131318000Y-46228000D02*
X131699000Y-46609000D01*
X123317000Y-46863000D02*
X123952000Y-46228000D01*
X123952000Y-46228000D02*
X131318000Y-46228000D01*
X123317000Y-50165000D02*
X123317000Y-46863000D01*
%TO.N,SDA*%
X120777000Y-70739000D02*
X120777000Y-50165000D01*
%TO.N,SCL*%
X118237000Y-70739000D02*
X118237000Y-50165000D01*
%TO.N,Net-(D1-A)*%
X131572000Y-61341000D02*
X131699000Y-61214000D01*
X131572000Y-66929000D02*
X131572000Y-61341000D01*
%TD*%
%TA.AperFunction,Conductor*%
%TO.N,GND*%
G36*
X142817539Y-41549185D02*
G01*
X142863294Y-41601989D01*
X142874500Y-41653500D01*
X142874500Y-76329500D01*
X142854815Y-76396539D01*
X142802011Y-76442294D01*
X142750500Y-76453500D01*
X106169500Y-76453500D01*
X106102461Y-76433815D01*
X106056706Y-76381011D01*
X106045500Y-76329500D01*
X106045500Y-76316499D01*
X106055160Y-73660000D01*
X107483341Y-73660000D01*
X107503936Y-73895403D01*
X107503938Y-73895413D01*
X107565094Y-74123655D01*
X107565096Y-74123659D01*
X107565097Y-74123663D01*
X107577566Y-74150402D01*
X107664964Y-74337828D01*
X107664965Y-74337830D01*
X107800505Y-74531402D01*
X107967597Y-74698494D01*
X108161169Y-74834034D01*
X108161171Y-74834035D01*
X108375337Y-74933903D01*
X108603592Y-74995063D01*
X108780034Y-75010500D01*
X108897966Y-75010500D01*
X109074408Y-74995063D01*
X109302663Y-74933903D01*
X109516829Y-74834035D01*
X109710401Y-74698495D01*
X109877495Y-74531401D01*
X110013035Y-74337830D01*
X110112903Y-74123663D01*
X110174063Y-73895408D01*
X110194659Y-73660000D01*
X110174063Y-73424592D01*
X110135052Y-73279000D01*
X138217341Y-73279000D01*
X138237936Y-73514403D01*
X138237938Y-73514413D01*
X138299094Y-73742655D01*
X138299096Y-73742659D01*
X138299097Y-73742663D01*
X138349030Y-73849746D01*
X138398964Y-73956828D01*
X138398965Y-73956830D01*
X138534505Y-74150402D01*
X138701597Y-74317494D01*
X138895169Y-74453034D01*
X138895171Y-74453035D01*
X139109337Y-74552903D01*
X139337592Y-74614063D01*
X139514034Y-74629500D01*
X139631966Y-74629500D01*
X139808408Y-74614063D01*
X140036663Y-74552903D01*
X140250829Y-74453035D01*
X140444401Y-74317495D01*
X140611495Y-74150401D01*
X140747035Y-73956830D01*
X140846903Y-73742663D01*
X140908063Y-73514408D01*
X140928659Y-73279000D01*
X140908063Y-73043592D01*
X140846903Y-72815337D01*
X140747035Y-72601171D01*
X140747034Y-72601169D01*
X140611494Y-72407597D01*
X140444402Y-72240505D01*
X140250830Y-72104965D01*
X140250828Y-72104964D01*
X140096063Y-72032796D01*
X140036663Y-72005097D01*
X140036659Y-72005096D01*
X140036655Y-72005094D01*
X139808413Y-71943938D01*
X139808403Y-71943936D01*
X139631966Y-71928500D01*
X139514034Y-71928500D01*
X139337596Y-71943936D01*
X139337586Y-71943938D01*
X139109344Y-72005094D01*
X139109335Y-72005098D01*
X138895171Y-72104964D01*
X138895169Y-72104965D01*
X138701597Y-72240505D01*
X138534506Y-72407597D01*
X138534501Y-72407604D01*
X138398967Y-72601165D01*
X138398965Y-72601169D01*
X138299098Y-72815335D01*
X138299094Y-72815344D01*
X138237938Y-73043586D01*
X138237936Y-73043596D01*
X138217341Y-73278999D01*
X138217341Y-73279000D01*
X110135052Y-73279000D01*
X110112903Y-73196337D01*
X110013035Y-72982171D01*
X110013034Y-72982169D01*
X109877494Y-72788597D01*
X109710402Y-72621505D01*
X109516830Y-72485965D01*
X109516828Y-72485964D01*
X109409745Y-72436030D01*
X109302663Y-72386097D01*
X109302659Y-72386096D01*
X109302655Y-72386094D01*
X109074413Y-72324938D01*
X109074403Y-72324936D01*
X108897966Y-72309500D01*
X108780034Y-72309500D01*
X108603596Y-72324936D01*
X108603586Y-72324938D01*
X108375344Y-72386094D01*
X108375335Y-72386098D01*
X108161171Y-72485964D01*
X108161169Y-72485965D01*
X107967597Y-72621505D01*
X107800506Y-72788597D01*
X107800501Y-72788604D01*
X107664967Y-72982165D01*
X107664965Y-72982169D01*
X107565098Y-73196335D01*
X107565094Y-73196344D01*
X107503938Y-73424586D01*
X107503936Y-73424596D01*
X107483341Y-73659999D01*
X107483341Y-73660000D01*
X106055160Y-73660000D01*
X106065569Y-70797433D01*
X116861500Y-70797433D01*
X116876382Y-70972293D01*
X116876383Y-70972299D01*
X116882499Y-70995787D01*
X116886500Y-71027031D01*
X116886500Y-71636870D01*
X116886501Y-71636876D01*
X116892908Y-71696483D01*
X116943202Y-71831328D01*
X116943206Y-71831335D01*
X117029452Y-71946544D01*
X117029455Y-71946547D01*
X117144664Y-72032793D01*
X117144671Y-72032797D01*
X117189618Y-72049560D01*
X117279517Y-72083091D01*
X117339127Y-72089500D01*
X117950094Y-72089499D01*
X117957978Y-72090002D01*
X118023429Y-72098382D01*
X118178411Y-72118229D01*
X118412345Y-72108292D01*
X118486630Y-72092281D01*
X118512754Y-72089499D01*
X119134871Y-72089499D01*
X119134872Y-72089499D01*
X119194483Y-72083091D01*
X119329331Y-72032796D01*
X119444546Y-71946546D01*
X119530796Y-71831331D01*
X119570428Y-71725071D01*
X119612297Y-71669139D01*
X119677761Y-71644721D01*
X119746034Y-71659572D01*
X119776130Y-71682604D01*
X119864956Y-71775283D01*
X120053208Y-71914513D01*
X120262282Y-72019926D01*
X120486163Y-72088489D01*
X120718411Y-72118229D01*
X120952345Y-72108292D01*
X121181234Y-72058962D01*
X121398494Y-71971660D01*
X121597875Y-71848896D01*
X121773641Y-71694203D01*
X121920735Y-71512030D01*
X121939507Y-71478425D01*
X121989385Y-71429500D01*
X122057797Y-71415306D01*
X122123024Y-71440352D01*
X122150496Y-71469462D01*
X122242935Y-71606231D01*
X122242940Y-71606236D01*
X122242943Y-71606241D01*
X122404956Y-71775283D01*
X122593208Y-71914513D01*
X122802282Y-72019926D01*
X123026163Y-72088489D01*
X123258411Y-72118229D01*
X123492345Y-72108292D01*
X123721234Y-72058962D01*
X123938494Y-71971660D01*
X124137875Y-71848896D01*
X124313641Y-71694203D01*
X124460735Y-71512030D01*
X124492782Y-71454662D01*
X124542659Y-71405737D01*
X124611072Y-71391544D01*
X124676298Y-71416590D01*
X124702609Y-71444013D01*
X124818890Y-71610078D01*
X124985917Y-71777105D01*
X125179421Y-71912600D01*
X125393507Y-72012429D01*
X125393516Y-72012433D01*
X125607000Y-72069634D01*
X125607000Y-71174501D01*
X125714685Y-71223680D01*
X125821237Y-71239000D01*
X125892763Y-71239000D01*
X125999315Y-71223680D01*
X126106999Y-71174501D01*
X126106999Y-72069633D01*
X126320483Y-72012433D01*
X126320492Y-72012429D01*
X126534578Y-71912600D01*
X126728082Y-71777105D01*
X126895105Y-71610082D01*
X127030600Y-71416578D01*
X127130429Y-71202492D01*
X127130432Y-71202486D01*
X127187636Y-70989000D01*
X126290686Y-70989000D01*
X126316493Y-70948844D01*
X126357000Y-70810889D01*
X126357000Y-70667111D01*
X126316493Y-70529156D01*
X126290686Y-70489000D01*
X127187636Y-70489000D01*
X127187635Y-70488999D01*
X127130432Y-70275513D01*
X127130429Y-70275507D01*
X127030600Y-70061422D01*
X127030599Y-70061420D01*
X126895113Y-69867926D01*
X126895108Y-69867920D01*
X126728082Y-69700894D01*
X126534578Y-69565399D01*
X126320492Y-69465570D01*
X126320486Y-69465567D01*
X126106999Y-69408364D01*
X126106999Y-70303498D01*
X125999315Y-70254320D01*
X125892763Y-70239000D01*
X125821237Y-70239000D01*
X125714685Y-70254320D01*
X125607000Y-70303498D01*
X125607000Y-69408364D01*
X125606999Y-69408364D01*
X125393513Y-69465567D01*
X125393507Y-69465570D01*
X125179422Y-69565399D01*
X125179420Y-69565400D01*
X124985926Y-69700886D01*
X124904181Y-69782631D01*
X124842857Y-69816115D01*
X124773166Y-69811131D01*
X124717232Y-69769259D01*
X124692816Y-69703794D01*
X124692500Y-69694949D01*
X124692500Y-66929006D01*
X130166700Y-66929006D01*
X130185864Y-67160297D01*
X130185866Y-67160308D01*
X130242842Y-67385300D01*
X130336075Y-67597848D01*
X130463018Y-67792150D01*
X130558167Y-67895510D01*
X130589089Y-67958164D01*
X130581228Y-68027590D01*
X130537081Y-68081746D01*
X130510271Y-68095674D01*
X130429911Y-68125646D01*
X130429906Y-68125649D01*
X130314812Y-68211809D01*
X130314809Y-68211812D01*
X130228649Y-68326906D01*
X130228645Y-68326913D01*
X130178403Y-68461620D01*
X130178401Y-68461627D01*
X130172000Y-68521155D01*
X130172000Y-69219000D01*
X131196722Y-69219000D01*
X131148375Y-69302740D01*
X131118190Y-69434992D01*
X131128327Y-69570265D01*
X131177887Y-69696541D01*
X131195797Y-69719000D01*
X130172000Y-69719000D01*
X130172000Y-70416844D01*
X130178401Y-70476372D01*
X130178403Y-70476379D01*
X130228645Y-70611086D01*
X130228649Y-70611093D01*
X130314809Y-70726187D01*
X130314812Y-70726190D01*
X130429906Y-70812350D01*
X130429913Y-70812354D01*
X130564620Y-70862596D01*
X130564627Y-70862598D01*
X130624155Y-70868999D01*
X130624172Y-70869000D01*
X131322000Y-70869000D01*
X131322000Y-69843189D01*
X131374547Y-69879016D01*
X131504173Y-69919000D01*
X131605724Y-69919000D01*
X131706138Y-69903865D01*
X131822000Y-69848068D01*
X131822000Y-70869000D01*
X132519828Y-70869000D01*
X132519844Y-70868999D01*
X132579372Y-70862598D01*
X132579379Y-70862596D01*
X132714086Y-70812354D01*
X132714093Y-70812350D01*
X132829187Y-70726190D01*
X132829190Y-70726187D01*
X132915350Y-70611093D01*
X132915354Y-70611086D01*
X132965596Y-70476379D01*
X132965598Y-70476372D01*
X132971999Y-70416844D01*
X132972000Y-70416827D01*
X132972000Y-69719000D01*
X131947278Y-69719000D01*
X131995625Y-69635260D01*
X132025810Y-69503008D01*
X132015673Y-69367735D01*
X131966113Y-69241459D01*
X131948203Y-69219000D01*
X132972000Y-69219000D01*
X132972000Y-68521172D01*
X132971999Y-68521155D01*
X132965598Y-68461627D01*
X132965596Y-68461620D01*
X132915354Y-68326913D01*
X132915350Y-68326906D01*
X132829190Y-68211812D01*
X132829187Y-68211809D01*
X132714093Y-68125649D01*
X132714086Y-68125645D01*
X132633729Y-68095674D01*
X132577795Y-68053803D01*
X132553378Y-67988338D01*
X132568230Y-67920065D01*
X132585826Y-67895516D01*
X132680979Y-67792153D01*
X132807924Y-67597849D01*
X132901157Y-67385300D01*
X132958134Y-67160305D01*
X132977300Y-66929000D01*
X132977300Y-66928993D01*
X132958134Y-66697698D01*
X132958134Y-66697695D01*
X132951294Y-66670684D01*
X132947500Y-66640244D01*
X132947500Y-61824055D01*
X132955486Y-61780273D01*
X133027245Y-61590126D01*
X133071705Y-61360241D01*
X133076675Y-61126150D01*
X133042011Y-60894585D01*
X133033573Y-60868987D01*
X132968711Y-60672207D01*
X132957196Y-60650527D01*
X132858886Y-60465420D01*
X132797339Y-60385796D01*
X132715694Y-60280170D01*
X132715692Y-60280168D01*
X132543256Y-60121783D01*
X132543242Y-60121773D01*
X132346516Y-59994808D01*
X132131161Y-59902915D01*
X132131157Y-59902914D01*
X132061226Y-59886282D01*
X131903375Y-59848740D01*
X131903372Y-59848739D01*
X131903369Y-59848739D01*
X131669699Y-59833838D01*
X131669698Y-59833838D01*
X131669697Y-59833838D01*
X131436874Y-59858642D01*
X131436871Y-59858643D01*
X131211585Y-59922438D01*
X131000322Y-60023388D01*
X130809164Y-60158586D01*
X130809157Y-60158592D01*
X130631748Y-60335999D01*
X130628870Y-60338700D01*
X130575359Y-60385796D01*
X130510987Y-60465519D01*
X130444930Y-60543867D01*
X130442160Y-60548588D01*
X130431704Y-60563710D01*
X130428266Y-60567968D01*
X130428263Y-60567972D01*
X130378301Y-60657409D01*
X130326424Y-60745812D01*
X130326423Y-60745815D01*
X130324489Y-60750938D01*
X130316741Y-60767605D01*
X130314076Y-60772375D01*
X130314073Y-60772381D01*
X130314074Y-60772381D01*
X130279940Y-60868987D01*
X130270280Y-60894585D01*
X130243755Y-60964872D01*
X130243752Y-60964881D01*
X130242714Y-60970250D01*
X130237892Y-60987995D01*
X130236072Y-60993145D01*
X130236070Y-60993154D01*
X130218752Y-61094151D01*
X130199295Y-61194756D01*
X130199295Y-61194758D01*
X130199179Y-61200219D01*
X130197424Y-61218534D01*
X130196501Y-61223917D01*
X130196500Y-61223930D01*
X130196500Y-61326405D01*
X130194324Y-61428848D01*
X130195133Y-61434246D01*
X130196500Y-61452606D01*
X130196500Y-66640244D01*
X130192706Y-66670684D01*
X130185865Y-66697698D01*
X130166700Y-66928993D01*
X130166700Y-66929006D01*
X124692500Y-66929006D01*
X124692500Y-51463511D01*
X124712185Y-51396472D01*
X124764989Y-51350717D01*
X124834147Y-51340773D01*
X124897703Y-51369798D01*
X124906023Y-51377711D01*
X124948604Y-51422139D01*
X124948604Y-51422140D01*
X125136097Y-51560810D01*
X125344338Y-51665803D01*
X125567330Y-51734093D01*
X125567328Y-51734093D01*
X125606999Y-51739173D01*
X125607000Y-51739173D01*
X125606999Y-50705469D01*
X125701674Y-50744685D01*
X125818003Y-50760000D01*
X125895997Y-50760000D01*
X126012326Y-50744685D01*
X126107000Y-50705469D01*
X126107000Y-51737574D01*
X126259618Y-51704683D01*
X126259619Y-51704683D01*
X126476005Y-51617732D01*
X126674592Y-51495458D01*
X126849656Y-51341382D01*
X126849660Y-51341378D01*
X126996157Y-51159945D01*
X126996161Y-51159939D01*
X127109895Y-50956346D01*
X127187585Y-50736461D01*
X127187587Y-50736453D01*
X127226999Y-50506612D01*
X127227000Y-50506603D01*
X127227000Y-50415000D01*
X126397470Y-50415000D01*
X126436685Y-50320326D01*
X126457134Y-50165000D01*
X126436685Y-50009674D01*
X126397470Y-49915000D01*
X127227000Y-49915000D01*
X127227000Y-49881799D01*
X127212177Y-49707636D01*
X127153412Y-49481948D01*
X127057356Y-49269447D01*
X127057351Y-49269439D01*
X126926764Y-49076228D01*
X126765396Y-48907860D01*
X126765395Y-48907859D01*
X126577902Y-48769189D01*
X126369661Y-48664196D01*
X126146675Y-48595907D01*
X126146669Y-48595906D01*
X126107000Y-48590825D01*
X126107000Y-49624530D01*
X126012326Y-49585315D01*
X125895997Y-49570000D01*
X125818003Y-49570000D01*
X125701674Y-49585315D01*
X125606999Y-49624530D01*
X125606999Y-48592424D01*
X125454380Y-48625316D01*
X125454379Y-48625316D01*
X125237994Y-48712267D01*
X125039407Y-48834541D01*
X124898423Y-48958623D01*
X124835094Y-48988137D01*
X124765860Y-48978727D01*
X124712705Y-48933381D01*
X124692504Y-48866496D01*
X124692500Y-48865539D01*
X124692500Y-47727500D01*
X124712185Y-47660461D01*
X124764989Y-47614706D01*
X124816500Y-47603500D01*
X130199500Y-47603500D01*
X130266539Y-47623185D01*
X130312294Y-47675989D01*
X130323500Y-47727500D01*
X130323500Y-51112433D01*
X130338382Y-51287296D01*
X130397382Y-51513889D01*
X130493824Y-51727244D01*
X130493829Y-51727252D01*
X130624935Y-51921231D01*
X130624940Y-51921236D01*
X130624943Y-51921241D01*
X130786956Y-52090283D01*
X130975208Y-52229513D01*
X131184282Y-52334926D01*
X131408163Y-52403489D01*
X131640411Y-52433229D01*
X131874345Y-52423292D01*
X132103234Y-52373962D01*
X132320494Y-52286660D01*
X132519875Y-52163896D01*
X132695641Y-52009203D01*
X132842735Y-51827030D01*
X132956926Y-51622619D01*
X133034929Y-51401849D01*
X133074500Y-51171072D01*
X133074499Y-46654753D01*
X133074625Y-46650838D01*
X133076837Y-46616151D01*
X133079162Y-46579699D01*
X133068307Y-46477813D01*
X133063392Y-46420061D01*
X133059617Y-46375705D01*
X133059616Y-46375700D01*
X133058238Y-46370407D01*
X133054935Y-46352297D01*
X133054357Y-46346875D01*
X133054357Y-46346874D01*
X133054357Y-46346872D01*
X133026443Y-46248297D01*
X133000617Y-46149110D01*
X132998366Y-46144132D01*
X132992051Y-46126845D01*
X132990562Y-46121586D01*
X132946381Y-46029128D01*
X132904172Y-45935750D01*
X132901113Y-45931224D01*
X132891962Y-45915242D01*
X132889614Y-45910327D01*
X132889612Y-45910324D01*
X132889611Y-45910322D01*
X132830433Y-45826649D01*
X132830432Y-45826648D01*
X132773060Y-45741763D01*
X132773056Y-45741758D01*
X132769282Y-45737821D01*
X132757558Y-45723612D01*
X132754408Y-45719157D01*
X132710906Y-45675655D01*
X132681943Y-45646691D01*
X132611046Y-45572719D01*
X132611045Y-45572718D01*
X132611044Y-45572717D01*
X132606643Y-45569462D01*
X132592704Y-45557453D01*
X132482654Y-45447403D01*
X132322984Y-45287733D01*
X132320298Y-45284870D01*
X132273206Y-45231361D01*
X132273200Y-45231356D01*
X132193480Y-45166987D01*
X132178009Y-45153943D01*
X132115132Y-45100930D01*
X132110404Y-45098155D01*
X132095282Y-45087698D01*
X132091940Y-45085000D01*
X137836341Y-45085000D01*
X137856936Y-45320403D01*
X137856938Y-45320413D01*
X137918094Y-45548655D01*
X137918096Y-45548659D01*
X137918097Y-45548663D01*
X137927799Y-45569468D01*
X138017964Y-45762828D01*
X138017965Y-45762830D01*
X138153505Y-45956402D01*
X138320597Y-46123494D01*
X138514169Y-46259034D01*
X138514171Y-46259035D01*
X138728337Y-46358903D01*
X138956592Y-46420063D01*
X139133034Y-46435500D01*
X139250966Y-46435500D01*
X139427408Y-46420063D01*
X139655663Y-46358903D01*
X139869829Y-46259035D01*
X140063401Y-46123495D01*
X140230495Y-45956401D01*
X140366035Y-45762830D01*
X140465903Y-45548663D01*
X140527063Y-45320408D01*
X140547659Y-45085000D01*
X140527063Y-44849592D01*
X140465903Y-44621337D01*
X140366035Y-44407171D01*
X140366034Y-44407169D01*
X140230494Y-44213597D01*
X140063402Y-44046505D01*
X139869830Y-43910965D01*
X139869828Y-43910964D01*
X139762746Y-43861031D01*
X139655663Y-43811097D01*
X139655659Y-43811096D01*
X139655655Y-43811094D01*
X139427413Y-43749938D01*
X139427403Y-43749936D01*
X139250966Y-43734500D01*
X139133034Y-43734500D01*
X138956596Y-43749936D01*
X138956586Y-43749938D01*
X138728344Y-43811094D01*
X138728335Y-43811098D01*
X138514171Y-43910964D01*
X138514169Y-43910965D01*
X138320597Y-44046505D01*
X138153506Y-44213597D01*
X138153501Y-44213604D01*
X138017967Y-44407165D01*
X138017965Y-44407169D01*
X137918098Y-44621335D01*
X137918094Y-44621344D01*
X137856938Y-44849586D01*
X137856936Y-44849596D01*
X137836341Y-45084999D01*
X137836341Y-45085000D01*
X132091940Y-45085000D01*
X132091030Y-45084265D01*
X132001590Y-45034301D01*
X131913188Y-44982424D01*
X131908070Y-44980493D01*
X131891386Y-44972737D01*
X131886617Y-44970073D01*
X131790012Y-44935940D01*
X131694124Y-44899754D01*
X131688760Y-44898717D01*
X131670994Y-44893889D01*
X131665852Y-44892072D01*
X131665851Y-44892071D01*
X131665849Y-44892071D01*
X131665847Y-44892070D01*
X131665841Y-44892069D01*
X131564848Y-44874752D01*
X131464241Y-44855295D01*
X131458777Y-44855178D01*
X131440457Y-44853423D01*
X131435072Y-44852500D01*
X131435071Y-44852500D01*
X131332594Y-44852500D01*
X131230151Y-44850324D01*
X131230150Y-44850324D01*
X131224744Y-44851134D01*
X131206391Y-44852500D01*
X123997792Y-44852500D01*
X123993846Y-44852374D01*
X123922699Y-44847838D01*
X123922696Y-44847838D01*
X123820793Y-44858694D01*
X123718700Y-44867383D01*
X123713403Y-44868762D01*
X123695316Y-44872061D01*
X123689877Y-44872640D01*
X123689874Y-44872641D01*
X123591259Y-44900566D01*
X123492108Y-44926383D01*
X123487121Y-44928637D01*
X123469855Y-44934944D01*
X123464592Y-44936434D01*
X123464590Y-44936435D01*
X123372116Y-44980623D01*
X123278750Y-45022827D01*
X123274214Y-45025893D01*
X123258259Y-45035029D01*
X123253324Y-45037387D01*
X123169649Y-45096566D01*
X123084756Y-45153945D01*
X123080811Y-45157726D01*
X123066623Y-45169432D01*
X123062170Y-45172581D01*
X123062150Y-45172598D01*
X122989691Y-45245056D01*
X122915718Y-45315953D01*
X122915715Y-45315956D01*
X122912463Y-45320354D01*
X122900454Y-45334293D01*
X122376749Y-45857999D01*
X122373870Y-45860700D01*
X122320359Y-45907796D01*
X122255987Y-45987519D01*
X122189930Y-46065867D01*
X122187160Y-46070588D01*
X122176704Y-46085710D01*
X122173266Y-46089968D01*
X122173263Y-46089972D01*
X122123301Y-46179409D01*
X122071424Y-46267812D01*
X122071423Y-46267815D01*
X122069489Y-46272938D01*
X122061741Y-46289605D01*
X122059076Y-46294375D01*
X122059073Y-46294381D01*
X122059074Y-46294381D01*
X122030342Y-46375700D01*
X122024940Y-46390988D01*
X121988755Y-46486872D01*
X121988752Y-46486881D01*
X121987714Y-46492250D01*
X121982892Y-46509995D01*
X121981072Y-46515145D01*
X121981070Y-46515154D01*
X121963752Y-46616151D01*
X121944295Y-46716756D01*
X121944295Y-46716758D01*
X121944179Y-46722219D01*
X121942424Y-46740534D01*
X121941501Y-46745917D01*
X121941500Y-46745930D01*
X121941500Y-46848405D01*
X121939324Y-46950849D01*
X121939324Y-46950850D01*
X121940134Y-46956258D01*
X121941499Y-46974606D01*
X121941500Y-48865765D01*
X121921815Y-48932804D01*
X121869012Y-48978559D01*
X121799853Y-48988503D01*
X121736297Y-48959478D01*
X121727978Y-48951566D01*
X121685727Y-48907483D01*
X121685726Y-48907482D01*
X121498165Y-48768762D01*
X121386114Y-48712267D01*
X121289847Y-48663730D01*
X121066780Y-48595417D01*
X121066778Y-48595416D01*
X121066776Y-48595416D01*
X120835370Y-48565783D01*
X120602299Y-48575685D01*
X120602290Y-48575686D01*
X120374233Y-48624836D01*
X120374230Y-48624837D01*
X120157768Y-48711819D01*
X119959110Y-48834137D01*
X119783981Y-48988269D01*
X119751665Y-49028292D01*
X119694233Y-49068085D01*
X119624406Y-49070510D01*
X119564352Y-49034799D01*
X119542803Y-49002789D01*
X119541815Y-49000670D01*
X119541814Y-49000666D01*
X119449712Y-48851344D01*
X119325656Y-48727288D01*
X119222616Y-48663733D01*
X119176336Y-48635187D01*
X119176331Y-48635185D01*
X119146548Y-48625316D01*
X119009797Y-48580001D01*
X119009795Y-48580000D01*
X118907010Y-48569500D01*
X117566998Y-48569500D01*
X117566981Y-48569501D01*
X117464203Y-48580000D01*
X117464200Y-48580001D01*
X117297668Y-48635185D01*
X117297663Y-48635187D01*
X117148342Y-48727289D01*
X117024289Y-48851342D01*
X116932187Y-49000663D01*
X116932185Y-49000668D01*
X116909042Y-49070510D01*
X116877001Y-49167203D01*
X116877001Y-49167204D01*
X116877000Y-49167204D01*
X116866500Y-49269983D01*
X116866500Y-50008210D01*
X116864717Y-50029164D01*
X116861500Y-50047924D01*
X116861500Y-70797433D01*
X106065569Y-70797433D01*
X106158607Y-45212000D01*
X107864341Y-45212000D01*
X107884936Y-45447403D01*
X107884938Y-45447413D01*
X107946094Y-45675655D01*
X107946096Y-45675659D01*
X107946097Y-45675663D01*
X107986744Y-45762830D01*
X108045964Y-45889828D01*
X108045965Y-45889830D01*
X108181505Y-46083402D01*
X108348597Y-46250494D01*
X108542169Y-46386034D01*
X108542171Y-46386035D01*
X108756337Y-46485903D01*
X108756343Y-46485904D01*
X108756344Y-46485905D01*
X108811285Y-46500626D01*
X108984592Y-46547063D01*
X109161034Y-46562500D01*
X109278966Y-46562500D01*
X109455408Y-46547063D01*
X109683663Y-46485903D01*
X109897829Y-46386035D01*
X110091401Y-46250495D01*
X110258495Y-46083401D01*
X110394035Y-45889830D01*
X110493903Y-45675663D01*
X110555063Y-45447408D01*
X110575659Y-45212000D01*
X110555063Y-44976592D01*
X110493903Y-44748337D01*
X110394035Y-44534171D01*
X110394034Y-44534169D01*
X110258494Y-44340597D01*
X110091402Y-44173505D01*
X109897830Y-44037965D01*
X109897828Y-44037964D01*
X109790745Y-43988030D01*
X109683663Y-43938097D01*
X109683659Y-43938096D01*
X109683655Y-43938094D01*
X109455413Y-43876938D01*
X109455403Y-43876936D01*
X109278966Y-43861500D01*
X109161034Y-43861500D01*
X108984596Y-43876936D01*
X108984586Y-43876938D01*
X108756344Y-43938094D01*
X108756335Y-43938098D01*
X108542171Y-44037964D01*
X108542169Y-44037965D01*
X108348597Y-44173505D01*
X108181506Y-44340597D01*
X108181501Y-44340604D01*
X108045967Y-44534165D01*
X108045965Y-44534169D01*
X107946098Y-44748335D01*
X107946094Y-44748344D01*
X107884938Y-44976586D01*
X107884936Y-44976596D01*
X107864341Y-45211999D01*
X107864341Y-45212000D01*
X106158607Y-45212000D01*
X106171549Y-41653049D01*
X106191477Y-41586082D01*
X106244447Y-41540519D01*
X106295548Y-41529500D01*
X142750500Y-41529500D01*
X142817539Y-41549185D01*
G37*
%TD.AperFunction*%
%TD*%
M02*
