%TF.GenerationSoftware,KiCad,Pcbnew,7.0.6*%
%TF.CreationDate,2024-10-08T11:46:52-03:00*%
%TF.ProjectId,Circuito_Exemplo,43697263-7569-4746-9f5f-4578656d706c,rev?*%
%TF.SameCoordinates,Original*%
%TF.FileFunction,Legend,Top*%
%TF.FilePolarity,Positive*%
%FSLAX46Y46*%
G04 Gerber Fmt 4.6, Leading zero omitted, Abs format (unit mm)*
G04 Created by KiCad (PCBNEW 7.0.6) date 2024-10-08 11:46:52*
%MOMM*%
%LPD*%
G01*
G04 APERTURE LIST*
%ADD10C,0.250000*%
%ADD11C,0.150000*%
%ADD12C,0.120000*%
G04 APERTURE END LIST*
D10*
X125404238Y-73570377D02*
X125356619Y-73475139D01*
X125356619Y-73475139D02*
X125356619Y-73332282D01*
X125356619Y-73332282D02*
X125404238Y-73189425D01*
X125404238Y-73189425D02*
X125499476Y-73094187D01*
X125499476Y-73094187D02*
X125594714Y-73046568D01*
X125594714Y-73046568D02*
X125785190Y-72998949D01*
X125785190Y-72998949D02*
X125928047Y-72998949D01*
X125928047Y-72998949D02*
X126118523Y-73046568D01*
X126118523Y-73046568D02*
X126213761Y-73094187D01*
X126213761Y-73094187D02*
X126309000Y-73189425D01*
X126309000Y-73189425D02*
X126356619Y-73332282D01*
X126356619Y-73332282D02*
X126356619Y-73427520D01*
X126356619Y-73427520D02*
X126309000Y-73570377D01*
X126309000Y-73570377D02*
X126261380Y-73617996D01*
X126261380Y-73617996D02*
X125928047Y-73617996D01*
X125928047Y-73617996D02*
X125928047Y-73427520D01*
X126356619Y-74046568D02*
X125356619Y-74046568D01*
X125356619Y-74046568D02*
X126356619Y-74617996D01*
X126356619Y-74617996D02*
X125356619Y-74617996D01*
X126356619Y-75094187D02*
X125356619Y-75094187D01*
X125356619Y-75094187D02*
X125356619Y-75332282D01*
X125356619Y-75332282D02*
X125404238Y-75475139D01*
X125404238Y-75475139D02*
X125499476Y-75570377D01*
X125499476Y-75570377D02*
X125594714Y-75617996D01*
X125594714Y-75617996D02*
X125785190Y-75665615D01*
X125785190Y-75665615D02*
X125928047Y-75665615D01*
X125928047Y-75665615D02*
X126118523Y-75617996D01*
X126118523Y-75617996D02*
X126213761Y-75570377D01*
X126213761Y-75570377D02*
X126309000Y-75475139D01*
X126309000Y-75475139D02*
X126356619Y-75332282D01*
X126356619Y-75332282D02*
X126356619Y-75094187D01*
X122211619Y-72376330D02*
X122211619Y-72995377D01*
X122211619Y-72995377D02*
X122592571Y-72662044D01*
X122592571Y-72662044D02*
X122592571Y-72804901D01*
X122592571Y-72804901D02*
X122640190Y-72900139D01*
X122640190Y-72900139D02*
X122687809Y-72947758D01*
X122687809Y-72947758D02*
X122783047Y-72995377D01*
X122783047Y-72995377D02*
X123021142Y-72995377D01*
X123021142Y-72995377D02*
X123116380Y-72947758D01*
X123116380Y-72947758D02*
X123164000Y-72900139D01*
X123164000Y-72900139D02*
X123211619Y-72804901D01*
X123211619Y-72804901D02*
X123211619Y-72519187D01*
X123211619Y-72519187D02*
X123164000Y-72423949D01*
X123164000Y-72423949D02*
X123116380Y-72376330D01*
X123116380Y-73423949D02*
X123164000Y-73471568D01*
X123164000Y-73471568D02*
X123211619Y-73423949D01*
X123211619Y-73423949D02*
X123164000Y-73376330D01*
X123164000Y-73376330D02*
X123116380Y-73423949D01*
X123116380Y-73423949D02*
X123211619Y-73423949D01*
X122211619Y-73804901D02*
X122211619Y-74423948D01*
X122211619Y-74423948D02*
X122592571Y-74090615D01*
X122592571Y-74090615D02*
X122592571Y-74233472D01*
X122592571Y-74233472D02*
X122640190Y-74328710D01*
X122640190Y-74328710D02*
X122687809Y-74376329D01*
X122687809Y-74376329D02*
X122783047Y-74423948D01*
X122783047Y-74423948D02*
X123021142Y-74423948D01*
X123021142Y-74423948D02*
X123116380Y-74376329D01*
X123116380Y-74376329D02*
X123164000Y-74328710D01*
X123164000Y-74328710D02*
X123211619Y-74233472D01*
X123211619Y-74233472D02*
X123211619Y-73947758D01*
X123211619Y-73947758D02*
X123164000Y-73852520D01*
X123164000Y-73852520D02*
X123116380Y-73804901D01*
X122211619Y-74709663D02*
X123211619Y-75042996D01*
X123211619Y-75042996D02*
X122211619Y-75376329D01*
X120848000Y-72998949D02*
X120895619Y-73141806D01*
X120895619Y-73141806D02*
X120895619Y-73379901D01*
X120895619Y-73379901D02*
X120848000Y-73475139D01*
X120848000Y-73475139D02*
X120800380Y-73522758D01*
X120800380Y-73522758D02*
X120705142Y-73570377D01*
X120705142Y-73570377D02*
X120609904Y-73570377D01*
X120609904Y-73570377D02*
X120514666Y-73522758D01*
X120514666Y-73522758D02*
X120467047Y-73475139D01*
X120467047Y-73475139D02*
X120419428Y-73379901D01*
X120419428Y-73379901D02*
X120371809Y-73189425D01*
X120371809Y-73189425D02*
X120324190Y-73094187D01*
X120324190Y-73094187D02*
X120276571Y-73046568D01*
X120276571Y-73046568D02*
X120181333Y-72998949D01*
X120181333Y-72998949D02*
X120086095Y-72998949D01*
X120086095Y-72998949D02*
X119990857Y-73046568D01*
X119990857Y-73046568D02*
X119943238Y-73094187D01*
X119943238Y-73094187D02*
X119895619Y-73189425D01*
X119895619Y-73189425D02*
X119895619Y-73427520D01*
X119895619Y-73427520D02*
X119943238Y-73570377D01*
X120895619Y-73998949D02*
X119895619Y-73998949D01*
X119895619Y-73998949D02*
X119895619Y-74237044D01*
X119895619Y-74237044D02*
X119943238Y-74379901D01*
X119943238Y-74379901D02*
X120038476Y-74475139D01*
X120038476Y-74475139D02*
X120133714Y-74522758D01*
X120133714Y-74522758D02*
X120324190Y-74570377D01*
X120324190Y-74570377D02*
X120467047Y-74570377D01*
X120467047Y-74570377D02*
X120657523Y-74522758D01*
X120657523Y-74522758D02*
X120752761Y-74475139D01*
X120752761Y-74475139D02*
X120848000Y-74379901D01*
X120848000Y-74379901D02*
X120895619Y-74237044D01*
X120895619Y-74237044D02*
X120895619Y-73998949D01*
X120609904Y-74951330D02*
X120609904Y-75427520D01*
X120895619Y-74856092D02*
X119895619Y-75189425D01*
X119895619Y-75189425D02*
X120895619Y-75522758D01*
X118562000Y-72871949D02*
X118609619Y-73014806D01*
X118609619Y-73014806D02*
X118609619Y-73252901D01*
X118609619Y-73252901D02*
X118562000Y-73348139D01*
X118562000Y-73348139D02*
X118514380Y-73395758D01*
X118514380Y-73395758D02*
X118419142Y-73443377D01*
X118419142Y-73443377D02*
X118323904Y-73443377D01*
X118323904Y-73443377D02*
X118228666Y-73395758D01*
X118228666Y-73395758D02*
X118181047Y-73348139D01*
X118181047Y-73348139D02*
X118133428Y-73252901D01*
X118133428Y-73252901D02*
X118085809Y-73062425D01*
X118085809Y-73062425D02*
X118038190Y-72967187D01*
X118038190Y-72967187D02*
X117990571Y-72919568D01*
X117990571Y-72919568D02*
X117895333Y-72871949D01*
X117895333Y-72871949D02*
X117800095Y-72871949D01*
X117800095Y-72871949D02*
X117704857Y-72919568D01*
X117704857Y-72919568D02*
X117657238Y-72967187D01*
X117657238Y-72967187D02*
X117609619Y-73062425D01*
X117609619Y-73062425D02*
X117609619Y-73300520D01*
X117609619Y-73300520D02*
X117657238Y-73443377D01*
X118514380Y-74443377D02*
X118562000Y-74395758D01*
X118562000Y-74395758D02*
X118609619Y-74252901D01*
X118609619Y-74252901D02*
X118609619Y-74157663D01*
X118609619Y-74157663D02*
X118562000Y-74014806D01*
X118562000Y-74014806D02*
X118466761Y-73919568D01*
X118466761Y-73919568D02*
X118371523Y-73871949D01*
X118371523Y-73871949D02*
X118181047Y-73824330D01*
X118181047Y-73824330D02*
X118038190Y-73824330D01*
X118038190Y-73824330D02*
X117847714Y-73871949D01*
X117847714Y-73871949D02*
X117752476Y-73919568D01*
X117752476Y-73919568D02*
X117657238Y-74014806D01*
X117657238Y-74014806D02*
X117609619Y-74157663D01*
X117609619Y-74157663D02*
X117609619Y-74252901D01*
X117609619Y-74252901D02*
X117657238Y-74395758D01*
X117657238Y-74395758D02*
X117704857Y-74443377D01*
X118609619Y-75348139D02*
X118609619Y-74871949D01*
X118609619Y-74871949D02*
X117609619Y-74871949D01*
D11*
X111255180Y-50247779D02*
X112255180Y-50247779D01*
X112255180Y-50247779D02*
X111540895Y-50581112D01*
X111540895Y-50581112D02*
X112255180Y-50914445D01*
X112255180Y-50914445D02*
X111255180Y-50914445D01*
X112255180Y-51581112D02*
X112255180Y-51771588D01*
X112255180Y-51771588D02*
X112207561Y-51866826D01*
X112207561Y-51866826D02*
X112112323Y-51962064D01*
X112112323Y-51962064D02*
X111921847Y-52009683D01*
X111921847Y-52009683D02*
X111588514Y-52009683D01*
X111588514Y-52009683D02*
X111398038Y-51962064D01*
X111398038Y-51962064D02*
X111302800Y-51866826D01*
X111302800Y-51866826D02*
X111255180Y-51771588D01*
X111255180Y-51771588D02*
X111255180Y-51581112D01*
X111255180Y-51581112D02*
X111302800Y-51485874D01*
X111302800Y-51485874D02*
X111398038Y-51390636D01*
X111398038Y-51390636D02*
X111588514Y-51343017D01*
X111588514Y-51343017D02*
X111921847Y-51343017D01*
X111921847Y-51343017D02*
X112112323Y-51390636D01*
X112112323Y-51390636D02*
X112207561Y-51485874D01*
X112207561Y-51485874D02*
X112255180Y-51581112D01*
X112636133Y-51771588D02*
X112493276Y-51628731D01*
X111255180Y-52438255D02*
X112255180Y-52438255D01*
X112255180Y-52438255D02*
X112255180Y-52676350D01*
X112255180Y-52676350D02*
X112207561Y-52819207D01*
X112207561Y-52819207D02*
X112112323Y-52914445D01*
X112112323Y-52914445D02*
X112017085Y-52962064D01*
X112017085Y-52962064D02*
X111826609Y-53009683D01*
X111826609Y-53009683D02*
X111683752Y-53009683D01*
X111683752Y-53009683D02*
X111493276Y-52962064D01*
X111493276Y-52962064D02*
X111398038Y-52914445D01*
X111398038Y-52914445D02*
X111302800Y-52819207D01*
X111302800Y-52819207D02*
X111255180Y-52676350D01*
X111255180Y-52676350D02*
X111255180Y-52438255D01*
X112255180Y-53438255D02*
X111445657Y-53438255D01*
X111445657Y-53438255D02*
X111350419Y-53485874D01*
X111350419Y-53485874D02*
X111302800Y-53533493D01*
X111302800Y-53533493D02*
X111255180Y-53628731D01*
X111255180Y-53628731D02*
X111255180Y-53819207D01*
X111255180Y-53819207D02*
X111302800Y-53914445D01*
X111302800Y-53914445D02*
X111350419Y-53962064D01*
X111350419Y-53962064D02*
X111445657Y-54009683D01*
X111445657Y-54009683D02*
X112255180Y-54009683D01*
X111255180Y-54962064D02*
X111255180Y-54485874D01*
X111255180Y-54485874D02*
X112255180Y-54485874D01*
X112255180Y-55485874D02*
X112255180Y-55676350D01*
X112255180Y-55676350D02*
X112207561Y-55771588D01*
X112207561Y-55771588D02*
X112112323Y-55866826D01*
X112112323Y-55866826D02*
X111921847Y-55914445D01*
X111921847Y-55914445D02*
X111588514Y-55914445D01*
X111588514Y-55914445D02*
X111398038Y-55866826D01*
X111398038Y-55866826D02*
X111302800Y-55771588D01*
X111302800Y-55771588D02*
X111255180Y-55676350D01*
X111255180Y-55676350D02*
X111255180Y-55485874D01*
X111255180Y-55485874D02*
X111302800Y-55390636D01*
X111302800Y-55390636D02*
X111398038Y-55295398D01*
X111398038Y-55295398D02*
X111588514Y-55247779D01*
X111588514Y-55247779D02*
X111921847Y-55247779D01*
X111921847Y-55247779D02*
X112112323Y-55295398D01*
X112112323Y-55295398D02*
X112207561Y-55390636D01*
X112207561Y-55390636D02*
X112255180Y-55485874D01*
X111302800Y-57057303D02*
X111255180Y-57200160D01*
X111255180Y-57200160D02*
X111255180Y-57438255D01*
X111255180Y-57438255D02*
X111302800Y-57533493D01*
X111302800Y-57533493D02*
X111350419Y-57581112D01*
X111350419Y-57581112D02*
X111445657Y-57628731D01*
X111445657Y-57628731D02*
X111540895Y-57628731D01*
X111540895Y-57628731D02*
X111636133Y-57581112D01*
X111636133Y-57581112D02*
X111683752Y-57533493D01*
X111683752Y-57533493D02*
X111731371Y-57438255D01*
X111731371Y-57438255D02*
X111778990Y-57247779D01*
X111778990Y-57247779D02*
X111826609Y-57152541D01*
X111826609Y-57152541D02*
X111874228Y-57104922D01*
X111874228Y-57104922D02*
X111969466Y-57057303D01*
X111969466Y-57057303D02*
X112064704Y-57057303D01*
X112064704Y-57057303D02*
X112159942Y-57104922D01*
X112159942Y-57104922D02*
X112207561Y-57152541D01*
X112207561Y-57152541D02*
X112255180Y-57247779D01*
X112255180Y-57247779D02*
X112255180Y-57485874D01*
X112255180Y-57485874D02*
X112207561Y-57628731D01*
X111778990Y-58057303D02*
X111778990Y-58390636D01*
X111255180Y-58533493D02*
X111255180Y-58057303D01*
X111255180Y-58057303D02*
X112255180Y-58057303D01*
X112255180Y-58057303D02*
X112255180Y-58533493D01*
X111255180Y-58962065D02*
X112255180Y-58962065D01*
X112255180Y-58962065D02*
X111255180Y-59533493D01*
X111255180Y-59533493D02*
X112255180Y-59533493D01*
X111302800Y-59962065D02*
X111255180Y-60104922D01*
X111255180Y-60104922D02*
X111255180Y-60343017D01*
X111255180Y-60343017D02*
X111302800Y-60438255D01*
X111302800Y-60438255D02*
X111350419Y-60485874D01*
X111350419Y-60485874D02*
X111445657Y-60533493D01*
X111445657Y-60533493D02*
X111540895Y-60533493D01*
X111540895Y-60533493D02*
X111636133Y-60485874D01*
X111636133Y-60485874D02*
X111683752Y-60438255D01*
X111683752Y-60438255D02*
X111731371Y-60343017D01*
X111731371Y-60343017D02*
X111778990Y-60152541D01*
X111778990Y-60152541D02*
X111826609Y-60057303D01*
X111826609Y-60057303D02*
X111874228Y-60009684D01*
X111874228Y-60009684D02*
X111969466Y-59962065D01*
X111969466Y-59962065D02*
X112064704Y-59962065D01*
X112064704Y-59962065D02*
X112159942Y-60009684D01*
X112159942Y-60009684D02*
X112207561Y-60057303D01*
X112207561Y-60057303D02*
X112255180Y-60152541D01*
X112255180Y-60152541D02*
X112255180Y-60390636D01*
X112255180Y-60390636D02*
X112207561Y-60533493D01*
X112255180Y-61152541D02*
X112255180Y-61343017D01*
X112255180Y-61343017D02*
X112207561Y-61438255D01*
X112207561Y-61438255D02*
X112112323Y-61533493D01*
X112112323Y-61533493D02*
X111921847Y-61581112D01*
X111921847Y-61581112D02*
X111588514Y-61581112D01*
X111588514Y-61581112D02*
X111398038Y-61533493D01*
X111398038Y-61533493D02*
X111302800Y-61438255D01*
X111302800Y-61438255D02*
X111255180Y-61343017D01*
X111255180Y-61343017D02*
X111255180Y-61152541D01*
X111255180Y-61152541D02*
X111302800Y-61057303D01*
X111302800Y-61057303D02*
X111398038Y-60962065D01*
X111398038Y-60962065D02*
X111588514Y-60914446D01*
X111588514Y-60914446D02*
X111921847Y-60914446D01*
X111921847Y-60914446D02*
X112112323Y-60962065D01*
X112112323Y-60962065D02*
X112207561Y-61057303D01*
X112207561Y-61057303D02*
X112255180Y-61152541D01*
X111255180Y-62581112D02*
X111731371Y-62247779D01*
X111255180Y-62009684D02*
X112255180Y-62009684D01*
X112255180Y-62009684D02*
X112255180Y-62390636D01*
X112255180Y-62390636D02*
X112207561Y-62485874D01*
X112207561Y-62485874D02*
X112159942Y-62533493D01*
X112159942Y-62533493D02*
X112064704Y-62581112D01*
X112064704Y-62581112D02*
X111921847Y-62581112D01*
X111921847Y-62581112D02*
X111826609Y-62533493D01*
X111826609Y-62533493D02*
X111778990Y-62485874D01*
X111778990Y-62485874D02*
X111731371Y-62390636D01*
X111731371Y-62390636D02*
X111731371Y-62009684D01*
X111255180Y-63771589D02*
X112255180Y-63771589D01*
X112159942Y-64200160D02*
X112207561Y-64247779D01*
X112207561Y-64247779D02*
X112255180Y-64343017D01*
X112255180Y-64343017D02*
X112255180Y-64581112D01*
X112255180Y-64581112D02*
X112207561Y-64676350D01*
X112207561Y-64676350D02*
X112159942Y-64723969D01*
X112159942Y-64723969D02*
X112064704Y-64771588D01*
X112064704Y-64771588D02*
X111969466Y-64771588D01*
X111969466Y-64771588D02*
X111826609Y-64723969D01*
X111826609Y-64723969D02*
X111255180Y-64152541D01*
X111255180Y-64152541D02*
X111255180Y-64771588D01*
X111350419Y-65771588D02*
X111302800Y-65723969D01*
X111302800Y-65723969D02*
X111255180Y-65581112D01*
X111255180Y-65581112D02*
X111255180Y-65485874D01*
X111255180Y-65485874D02*
X111302800Y-65343017D01*
X111302800Y-65343017D02*
X111398038Y-65247779D01*
X111398038Y-65247779D02*
X111493276Y-65200160D01*
X111493276Y-65200160D02*
X111683752Y-65152541D01*
X111683752Y-65152541D02*
X111826609Y-65152541D01*
X111826609Y-65152541D02*
X112017085Y-65200160D01*
X112017085Y-65200160D02*
X112112323Y-65247779D01*
X112112323Y-65247779D02*
X112207561Y-65343017D01*
X112207561Y-65343017D02*
X112255180Y-65485874D01*
X112255180Y-65485874D02*
X112255180Y-65581112D01*
X112255180Y-65581112D02*
X112207561Y-65723969D01*
X112207561Y-65723969D02*
X112159942Y-65771588D01*
X117525800Y-55153160D02*
X117478180Y-55296017D01*
X117478180Y-55296017D02*
X117478180Y-55534112D01*
X117478180Y-55534112D02*
X117525800Y-55629350D01*
X117525800Y-55629350D02*
X117573419Y-55676969D01*
X117573419Y-55676969D02*
X117668657Y-55724588D01*
X117668657Y-55724588D02*
X117763895Y-55724588D01*
X117763895Y-55724588D02*
X117859133Y-55676969D01*
X117859133Y-55676969D02*
X117906752Y-55629350D01*
X117906752Y-55629350D02*
X117954371Y-55534112D01*
X117954371Y-55534112D02*
X118001990Y-55343636D01*
X118001990Y-55343636D02*
X118049609Y-55248398D01*
X118049609Y-55248398D02*
X118097228Y-55200779D01*
X118097228Y-55200779D02*
X118192466Y-55153160D01*
X118192466Y-55153160D02*
X118287704Y-55153160D01*
X118287704Y-55153160D02*
X118382942Y-55200779D01*
X118382942Y-55200779D02*
X118430561Y-55248398D01*
X118430561Y-55248398D02*
X118478180Y-55343636D01*
X118478180Y-55343636D02*
X118478180Y-55581731D01*
X118478180Y-55581731D02*
X118430561Y-55724588D01*
X117573419Y-56724588D02*
X117525800Y-56676969D01*
X117525800Y-56676969D02*
X117478180Y-56534112D01*
X117478180Y-56534112D02*
X117478180Y-56438874D01*
X117478180Y-56438874D02*
X117525800Y-56296017D01*
X117525800Y-56296017D02*
X117621038Y-56200779D01*
X117621038Y-56200779D02*
X117716276Y-56153160D01*
X117716276Y-56153160D02*
X117906752Y-56105541D01*
X117906752Y-56105541D02*
X118049609Y-56105541D01*
X118049609Y-56105541D02*
X118240085Y-56153160D01*
X118240085Y-56153160D02*
X118335323Y-56200779D01*
X118335323Y-56200779D02*
X118430561Y-56296017D01*
X118430561Y-56296017D02*
X118478180Y-56438874D01*
X118478180Y-56438874D02*
X118478180Y-56534112D01*
X118478180Y-56534112D02*
X118430561Y-56676969D01*
X118430561Y-56676969D02*
X118382942Y-56724588D01*
X117478180Y-57629350D02*
X117478180Y-57153160D01*
X117478180Y-57153160D02*
X118478180Y-57153160D01*
X120319800Y-55280160D02*
X120272180Y-55423017D01*
X120272180Y-55423017D02*
X120272180Y-55661112D01*
X120272180Y-55661112D02*
X120319800Y-55756350D01*
X120319800Y-55756350D02*
X120367419Y-55803969D01*
X120367419Y-55803969D02*
X120462657Y-55851588D01*
X120462657Y-55851588D02*
X120557895Y-55851588D01*
X120557895Y-55851588D02*
X120653133Y-55803969D01*
X120653133Y-55803969D02*
X120700752Y-55756350D01*
X120700752Y-55756350D02*
X120748371Y-55661112D01*
X120748371Y-55661112D02*
X120795990Y-55470636D01*
X120795990Y-55470636D02*
X120843609Y-55375398D01*
X120843609Y-55375398D02*
X120891228Y-55327779D01*
X120891228Y-55327779D02*
X120986466Y-55280160D01*
X120986466Y-55280160D02*
X121081704Y-55280160D01*
X121081704Y-55280160D02*
X121176942Y-55327779D01*
X121176942Y-55327779D02*
X121224561Y-55375398D01*
X121224561Y-55375398D02*
X121272180Y-55470636D01*
X121272180Y-55470636D02*
X121272180Y-55708731D01*
X121272180Y-55708731D02*
X121224561Y-55851588D01*
X120272180Y-56280160D02*
X121272180Y-56280160D01*
X121272180Y-56280160D02*
X121272180Y-56518255D01*
X121272180Y-56518255D02*
X121224561Y-56661112D01*
X121224561Y-56661112D02*
X121129323Y-56756350D01*
X121129323Y-56756350D02*
X121034085Y-56803969D01*
X121034085Y-56803969D02*
X120843609Y-56851588D01*
X120843609Y-56851588D02*
X120700752Y-56851588D01*
X120700752Y-56851588D02*
X120510276Y-56803969D01*
X120510276Y-56803969D02*
X120415038Y-56756350D01*
X120415038Y-56756350D02*
X120319800Y-56661112D01*
X120319800Y-56661112D02*
X120272180Y-56518255D01*
X120272180Y-56518255D02*
X120272180Y-56280160D01*
X120557895Y-57232541D02*
X120557895Y-57708731D01*
X120272180Y-57137303D02*
X121272180Y-57470636D01*
X121272180Y-57470636D02*
X120272180Y-57803969D01*
X123320133Y-54184779D02*
X123320133Y-54946684D01*
X122939180Y-54565731D02*
X123701085Y-54565731D01*
X123939180Y-55327636D02*
X123939180Y-55946683D01*
X123939180Y-55946683D02*
X123558228Y-55613350D01*
X123558228Y-55613350D02*
X123558228Y-55756207D01*
X123558228Y-55756207D02*
X123510609Y-55851445D01*
X123510609Y-55851445D02*
X123462990Y-55899064D01*
X123462990Y-55899064D02*
X123367752Y-55946683D01*
X123367752Y-55946683D02*
X123129657Y-55946683D01*
X123129657Y-55946683D02*
X123034419Y-55899064D01*
X123034419Y-55899064D02*
X122986800Y-55851445D01*
X122986800Y-55851445D02*
X122939180Y-55756207D01*
X122939180Y-55756207D02*
X122939180Y-55470493D01*
X122939180Y-55470493D02*
X122986800Y-55375255D01*
X122986800Y-55375255D02*
X123034419Y-55327636D01*
X123034419Y-56375255D02*
X122986800Y-56422874D01*
X122986800Y-56422874D02*
X122939180Y-56375255D01*
X122939180Y-56375255D02*
X122986800Y-56327636D01*
X122986800Y-56327636D02*
X123034419Y-56375255D01*
X123034419Y-56375255D02*
X122939180Y-56375255D01*
X123939180Y-56756207D02*
X123939180Y-57375254D01*
X123939180Y-57375254D02*
X123558228Y-57041921D01*
X123558228Y-57041921D02*
X123558228Y-57184778D01*
X123558228Y-57184778D02*
X123510609Y-57280016D01*
X123510609Y-57280016D02*
X123462990Y-57327635D01*
X123462990Y-57327635D02*
X123367752Y-57375254D01*
X123367752Y-57375254D02*
X123129657Y-57375254D01*
X123129657Y-57375254D02*
X123034419Y-57327635D01*
X123034419Y-57327635D02*
X122986800Y-57280016D01*
X122986800Y-57280016D02*
X122939180Y-57184778D01*
X122939180Y-57184778D02*
X122939180Y-56899064D01*
X122939180Y-56899064D02*
X122986800Y-56803826D01*
X122986800Y-56803826D02*
X123034419Y-56756207D01*
X123939180Y-57660969D02*
X122939180Y-57994302D01*
X122939180Y-57994302D02*
X123939180Y-58327635D01*
X126587942Y-55724541D02*
X126659371Y-55581684D01*
X126659371Y-55581684D02*
X126659371Y-55367398D01*
X126659371Y-55367398D02*
X126587942Y-55153112D01*
X126587942Y-55153112D02*
X126445085Y-55010255D01*
X126445085Y-55010255D02*
X126302228Y-54938826D01*
X126302228Y-54938826D02*
X126016514Y-54867398D01*
X126016514Y-54867398D02*
X125802228Y-54867398D01*
X125802228Y-54867398D02*
X125516514Y-54938826D01*
X125516514Y-54938826D02*
X125373657Y-55010255D01*
X125373657Y-55010255D02*
X125230800Y-55153112D01*
X125230800Y-55153112D02*
X125159371Y-55367398D01*
X125159371Y-55367398D02*
X125159371Y-55510255D01*
X125159371Y-55510255D02*
X125230800Y-55724541D01*
X125230800Y-55724541D02*
X125302228Y-55795969D01*
X125302228Y-55795969D02*
X125802228Y-55795969D01*
X125802228Y-55795969D02*
X125802228Y-55510255D01*
X125159371Y-56438826D02*
X126659371Y-56438826D01*
X126659371Y-56438826D02*
X125159371Y-57295969D01*
X125159371Y-57295969D02*
X126659371Y-57295969D01*
X125159371Y-58010255D02*
X126659371Y-58010255D01*
X126659371Y-58010255D02*
X126659371Y-58367398D01*
X126659371Y-58367398D02*
X126587942Y-58581684D01*
X126587942Y-58581684D02*
X126445085Y-58724541D01*
X126445085Y-58724541D02*
X126302228Y-58795970D01*
X126302228Y-58795970D02*
X126016514Y-58867398D01*
X126016514Y-58867398D02*
X125802228Y-58867398D01*
X125802228Y-58867398D02*
X125516514Y-58795970D01*
X125516514Y-58795970D02*
X125373657Y-58724541D01*
X125373657Y-58724541D02*
X125230800Y-58581684D01*
X125230800Y-58581684D02*
X125159371Y-58367398D01*
X125159371Y-58367398D02*
X125159371Y-58010255D01*
X107505666Y-70914819D02*
X107172333Y-70438628D01*
X106934238Y-70914819D02*
X106934238Y-69914819D01*
X106934238Y-69914819D02*
X107315190Y-69914819D01*
X107315190Y-69914819D02*
X107410428Y-69962438D01*
X107410428Y-69962438D02*
X107458047Y-70010057D01*
X107458047Y-70010057D02*
X107505666Y-70105295D01*
X107505666Y-70105295D02*
X107505666Y-70248152D01*
X107505666Y-70248152D02*
X107458047Y-70343390D01*
X107458047Y-70343390D02*
X107410428Y-70391009D01*
X107410428Y-70391009D02*
X107315190Y-70438628D01*
X107315190Y-70438628D02*
X106934238Y-70438628D01*
X107934238Y-70391009D02*
X108267571Y-70391009D01*
X108410428Y-70914819D02*
X107934238Y-70914819D01*
X107934238Y-70914819D02*
X107934238Y-69914819D01*
X107934238Y-69914819D02*
X108410428Y-69914819D01*
X109172333Y-70391009D02*
X108839000Y-70391009D01*
X108839000Y-70914819D02*
X108839000Y-69914819D01*
X108839000Y-69914819D02*
X109315190Y-69914819D01*
X109839000Y-69914819D02*
X109839000Y-70152914D01*
X109600905Y-70057676D02*
X109839000Y-70152914D01*
X109839000Y-70152914D02*
X110077095Y-70057676D01*
X109696143Y-70343390D02*
X109839000Y-70152914D01*
X109839000Y-70152914D02*
X109981857Y-70343390D01*
X110600905Y-69914819D02*
X110600905Y-70152914D01*
X110362810Y-70057676D02*
X110600905Y-70152914D01*
X110600905Y-70152914D02*
X110839000Y-70057676D01*
X110458048Y-70343390D02*
X110600905Y-70152914D01*
X110600905Y-70152914D02*
X110743762Y-70343390D01*
X107378666Y-51000819D02*
X107045333Y-50524628D01*
X106807238Y-51000819D02*
X106807238Y-50000819D01*
X106807238Y-50000819D02*
X107188190Y-50000819D01*
X107188190Y-50000819D02*
X107283428Y-50048438D01*
X107283428Y-50048438D02*
X107331047Y-50096057D01*
X107331047Y-50096057D02*
X107378666Y-50191295D01*
X107378666Y-50191295D02*
X107378666Y-50334152D01*
X107378666Y-50334152D02*
X107331047Y-50429390D01*
X107331047Y-50429390D02*
X107283428Y-50477009D01*
X107283428Y-50477009D02*
X107188190Y-50524628D01*
X107188190Y-50524628D02*
X106807238Y-50524628D01*
X107807238Y-50477009D02*
X108140571Y-50477009D01*
X108283428Y-51000819D02*
X107807238Y-51000819D01*
X107807238Y-51000819D02*
X107807238Y-50000819D01*
X107807238Y-50000819D02*
X108283428Y-50000819D01*
X109045333Y-50477009D02*
X108712000Y-50477009D01*
X108712000Y-51000819D02*
X108712000Y-50000819D01*
X108712000Y-50000819D02*
X109188190Y-50000819D01*
X109712000Y-50000819D02*
X109712000Y-50238914D01*
X109473905Y-50143676D02*
X109712000Y-50238914D01*
X109712000Y-50238914D02*
X109950095Y-50143676D01*
X109569143Y-50429390D02*
X109712000Y-50238914D01*
X109712000Y-50238914D02*
X109854857Y-50429390D01*
X110473905Y-50000819D02*
X110473905Y-50238914D01*
X110235810Y-50143676D02*
X110473905Y-50238914D01*
X110473905Y-50238914D02*
X110712000Y-50143676D01*
X110331048Y-50429390D02*
X110473905Y-50238914D01*
X110473905Y-50238914D02*
X110616762Y-50429390D01*
X138239666Y-70050819D02*
X137906333Y-69574628D01*
X137668238Y-70050819D02*
X137668238Y-69050819D01*
X137668238Y-69050819D02*
X138049190Y-69050819D01*
X138049190Y-69050819D02*
X138144428Y-69098438D01*
X138144428Y-69098438D02*
X138192047Y-69146057D01*
X138192047Y-69146057D02*
X138239666Y-69241295D01*
X138239666Y-69241295D02*
X138239666Y-69384152D01*
X138239666Y-69384152D02*
X138192047Y-69479390D01*
X138192047Y-69479390D02*
X138144428Y-69527009D01*
X138144428Y-69527009D02*
X138049190Y-69574628D01*
X138049190Y-69574628D02*
X137668238Y-69574628D01*
X138668238Y-69527009D02*
X139001571Y-69527009D01*
X139144428Y-70050819D02*
X138668238Y-70050819D01*
X138668238Y-70050819D02*
X138668238Y-69050819D01*
X138668238Y-69050819D02*
X139144428Y-69050819D01*
X139906333Y-69527009D02*
X139573000Y-69527009D01*
X139573000Y-70050819D02*
X139573000Y-69050819D01*
X139573000Y-69050819D02*
X140049190Y-69050819D01*
X140573000Y-69050819D02*
X140573000Y-69288914D01*
X140334905Y-69193676D02*
X140573000Y-69288914D01*
X140573000Y-69288914D02*
X140811095Y-69193676D01*
X140430143Y-69479390D02*
X140573000Y-69288914D01*
X140573000Y-69288914D02*
X140715857Y-69479390D01*
X141334905Y-69050819D02*
X141334905Y-69288914D01*
X141096810Y-69193676D02*
X141334905Y-69288914D01*
X141334905Y-69288914D02*
X141573000Y-69193676D01*
X141192048Y-69479390D02*
X141334905Y-69288914D01*
X141334905Y-69288914D02*
X141477762Y-69479390D01*
X137604666Y-51508819D02*
X137271333Y-51032628D01*
X137033238Y-51508819D02*
X137033238Y-50508819D01*
X137033238Y-50508819D02*
X137414190Y-50508819D01*
X137414190Y-50508819D02*
X137509428Y-50556438D01*
X137509428Y-50556438D02*
X137557047Y-50604057D01*
X137557047Y-50604057D02*
X137604666Y-50699295D01*
X137604666Y-50699295D02*
X137604666Y-50842152D01*
X137604666Y-50842152D02*
X137557047Y-50937390D01*
X137557047Y-50937390D02*
X137509428Y-50985009D01*
X137509428Y-50985009D02*
X137414190Y-51032628D01*
X137414190Y-51032628D02*
X137033238Y-51032628D01*
X138033238Y-50985009D02*
X138366571Y-50985009D01*
X138509428Y-51508819D02*
X138033238Y-51508819D01*
X138033238Y-51508819D02*
X138033238Y-50508819D01*
X138033238Y-50508819D02*
X138509428Y-50508819D01*
X139271333Y-50985009D02*
X138938000Y-50985009D01*
X138938000Y-51508819D02*
X138938000Y-50508819D01*
X138938000Y-50508819D02*
X139414190Y-50508819D01*
X139938000Y-50508819D02*
X139938000Y-50746914D01*
X139699905Y-50651676D02*
X139938000Y-50746914D01*
X139938000Y-50746914D02*
X140176095Y-50651676D01*
X139795143Y-50937390D02*
X139938000Y-50746914D01*
X139938000Y-50746914D02*
X140080857Y-50937390D01*
X140699905Y-50508819D02*
X140699905Y-50746914D01*
X140461810Y-50651676D02*
X140699905Y-50746914D01*
X140699905Y-50746914D02*
X140938000Y-50651676D01*
X140557048Y-50937390D02*
X140699905Y-50746914D01*
X140699905Y-50746914D02*
X140842762Y-50937390D01*
X134523819Y-56300666D02*
X134047628Y-56633999D01*
X134523819Y-56872094D02*
X133523819Y-56872094D01*
X133523819Y-56872094D02*
X133523819Y-56491142D01*
X133523819Y-56491142D02*
X133571438Y-56395904D01*
X133571438Y-56395904D02*
X133619057Y-56348285D01*
X133619057Y-56348285D02*
X133714295Y-56300666D01*
X133714295Y-56300666D02*
X133857152Y-56300666D01*
X133857152Y-56300666D02*
X133952390Y-56348285D01*
X133952390Y-56348285D02*
X134000009Y-56395904D01*
X134000009Y-56395904D02*
X134047628Y-56491142D01*
X134047628Y-56491142D02*
X134047628Y-56872094D01*
X134523819Y-55348285D02*
X134523819Y-55919713D01*
X134523819Y-55633999D02*
X133523819Y-55633999D01*
X133523819Y-55633999D02*
X133666676Y-55729237D01*
X133666676Y-55729237D02*
X133761914Y-55824475D01*
X133761914Y-55824475D02*
X133809533Y-55919713D01*
X121713666Y-45499819D02*
X121713666Y-46214104D01*
X121713666Y-46214104D02*
X121666047Y-46356961D01*
X121666047Y-46356961D02*
X121570809Y-46452200D01*
X121570809Y-46452200D02*
X121427952Y-46499819D01*
X121427952Y-46499819D02*
X121332714Y-46499819D01*
X122142238Y-45595057D02*
X122189857Y-45547438D01*
X122189857Y-45547438D02*
X122285095Y-45499819D01*
X122285095Y-45499819D02*
X122523190Y-45499819D01*
X122523190Y-45499819D02*
X122618428Y-45547438D01*
X122618428Y-45547438D02*
X122666047Y-45595057D01*
X122666047Y-45595057D02*
X122713666Y-45690295D01*
X122713666Y-45690295D02*
X122713666Y-45785533D01*
X122713666Y-45785533D02*
X122666047Y-45928390D01*
X122666047Y-45928390D02*
X122094619Y-46499819D01*
X122094619Y-46499819D02*
X122713666Y-46499819D01*
X114921819Y-71072333D02*
X115636104Y-71072333D01*
X115636104Y-71072333D02*
X115778961Y-71119952D01*
X115778961Y-71119952D02*
X115874200Y-71215190D01*
X115874200Y-71215190D02*
X115921819Y-71358047D01*
X115921819Y-71358047D02*
X115921819Y-71453285D01*
X115921819Y-70072333D02*
X115921819Y-70643761D01*
X115921819Y-70358047D02*
X114921819Y-70358047D01*
X114921819Y-70358047D02*
X115064676Y-70453285D01*
X115064676Y-70453285D02*
X115159914Y-70548523D01*
X115159914Y-70548523D02*
X115207533Y-70643761D01*
X128066819Y-68937094D02*
X127066819Y-68937094D01*
X127066819Y-68937094D02*
X127066819Y-68698999D01*
X127066819Y-68698999D02*
X127114438Y-68556142D01*
X127114438Y-68556142D02*
X127209676Y-68460904D01*
X127209676Y-68460904D02*
X127304914Y-68413285D01*
X127304914Y-68413285D02*
X127495390Y-68365666D01*
X127495390Y-68365666D02*
X127638247Y-68365666D01*
X127638247Y-68365666D02*
X127828723Y-68413285D01*
X127828723Y-68413285D02*
X127923961Y-68460904D01*
X127923961Y-68460904D02*
X128019200Y-68556142D01*
X128019200Y-68556142D02*
X128066819Y-68698999D01*
X128066819Y-68698999D02*
X128066819Y-68937094D01*
X128066819Y-67413285D02*
X128066819Y-67984713D01*
X128066819Y-67698999D02*
X127066819Y-67698999D01*
X127066819Y-67698999D02*
X127209676Y-67794237D01*
X127209676Y-67794237D02*
X127304914Y-67889475D01*
X127304914Y-67889475D02*
X127352533Y-67984713D01*
D12*
%TO.C,R1*%
X131699000Y-60174000D02*
X131699000Y-59404000D01*
X131699000Y-52094000D02*
X131699000Y-52864000D01*
X133069000Y-52864000D02*
X130329000Y-52864000D01*
X130329000Y-59404000D02*
X133069000Y-59404000D01*
X130329000Y-52864000D02*
X130329000Y-59404000D01*
X133069000Y-59404000D02*
X133069000Y-52864000D01*
%TO.C,J2*%
X119977000Y-47735000D02*
X121577000Y-47735000D01*
X118237000Y-53155000D02*
X118237000Y-52155000D01*
X125057000Y-47135000D02*
X125057000Y-47735000D01*
X124117000Y-47735000D02*
X124117000Y-47135000D01*
X118487000Y-53155000D02*
X118487000Y-52155000D01*
X121577000Y-47735000D02*
X121577000Y-47135000D01*
X118487000Y-51625000D02*
X125607000Y-51625000D01*
X116857000Y-53155000D02*
X127237000Y-53155000D01*
X118237000Y-52155000D02*
X118487000Y-51625000D01*
X116567000Y-48165000D02*
X116567000Y-52165000D01*
X125057000Y-47735000D02*
X126657000Y-47735000D01*
X122517000Y-47735000D02*
X124117000Y-47735000D01*
X127237000Y-53155000D02*
X127237000Y-47135000D01*
X118237000Y-52155000D02*
X125857000Y-52155000D01*
X122517000Y-47135000D02*
X122517000Y-47735000D01*
X119977000Y-47135000D02*
X119977000Y-47735000D01*
X117437000Y-47135000D02*
X117437000Y-47735000D01*
X125857000Y-52155000D02*
X125857000Y-53155000D01*
X126657000Y-47735000D02*
X126657000Y-47135000D01*
X119037000Y-47735000D02*
X119037000Y-47135000D01*
X125607000Y-51625000D02*
X125857000Y-52155000D01*
X117437000Y-47735000D02*
X119037000Y-47735000D01*
X125607000Y-53155000D02*
X125607000Y-52155000D01*
X116857000Y-47135000D02*
X116857000Y-53155000D01*
X127237000Y-47135000D02*
X116857000Y-47135000D01*
%TO.C,J1*%
X116907000Y-70739000D02*
X116907000Y-69409000D01*
X116907000Y-69409000D02*
X118237000Y-69409000D01*
X119507000Y-72069000D02*
X127187000Y-72069000D01*
X119507000Y-72069000D02*
X119507000Y-69409000D01*
X119507000Y-69409000D02*
X127187000Y-69409000D01*
X127187000Y-72069000D02*
X127187000Y-69409000D01*
%TO.C,D1*%
X130027000Y-70759000D02*
X133117000Y-70759000D01*
X133116830Y-70759000D02*
G75*
G03*
X131571538Y-65209000I-1544830J2560000D01*
G01*
X131572462Y-65209001D02*
G75*
G03*
X130027170Y-70758999I-462J-2989999D01*
G01*
X134072000Y-68199000D02*
G75*
G03*
X134072000Y-68199000I-2500000J0D01*
G01*
%TD*%
M02*
