%TF.GenerationSoftware,KiCad,Pcbnew,7.0.11-7.0.11~ubuntu22.04.1*%
%TF.CreationDate,2024-11-08T22:36:42-03:00*%
%TF.ProjectId,esp32cam_board,65737033-3263-4616-9d5f-626f6172642e,rev?*%
%TF.SameCoordinates,Original*%
%TF.FileFunction,Drillmap*%
%TF.FilePolarity,Positive*%
%FSLAX45Y45*%
G04 Gerber Fmt 4.5, Leading zero omitted, Abs format (unit mm)*
G04 Created by KiCad (PCBNEW 7.0.11-7.0.11~ubuntu22.04.1) date 2024-11-08 22:36:42*
%MOMM*%
%LPD*%
G01*
G04 APERTURE LIST*
%ADD10C,0.050000*%
%ADD11C,0.200000*%
%ADD12C,0.100000*%
%ADD13C,0.120000*%
G04 APERTURE END LIST*
D10*
X9296000Y-6807000D02*
G75*
G03*
X8966000Y-6807000I-165000J0D01*
G01*
X8966000Y-6807000D02*
G75*
G03*
X9296000Y-6807000I165000J0D01*
G01*
X8888000Y-6553000D02*
X14613000Y-6553000D01*
X14613000Y-10129000D01*
X8888000Y-10129000D01*
X8888000Y-6553000D01*
X14528000Y-9874000D02*
G75*
G03*
X14198000Y-9874000I-165000J0D01*
G01*
X14198000Y-9874000D02*
G75*
G03*
X14528000Y-9874000I165000J0D01*
G01*
D11*
D12*
X9249000Y-8735500D02*
X9349000Y-8835500D01*
X9349000Y-8735500D02*
X9249000Y-8835500D01*
X9249000Y-8989500D02*
X9349000Y-9089500D01*
X9349000Y-8989500D02*
X9249000Y-9089500D01*
X9890000Y-7307000D02*
X9990000Y-7407000D01*
X9990000Y-7307000D02*
X9890000Y-7407000D01*
X9890000Y-7561000D02*
X9990000Y-7661000D01*
X9990000Y-7561000D02*
X9890000Y-7661000D01*
X9890000Y-7815000D02*
X9990000Y-7915000D01*
X9990000Y-7815000D02*
X9890000Y-7915000D01*
X9890000Y-8069000D02*
X9990000Y-8169000D01*
X9990000Y-8069000D02*
X9890000Y-8169000D01*
X9890000Y-8323000D02*
X9990000Y-8423000D01*
X9990000Y-8323000D02*
X9890000Y-8423000D01*
X9890000Y-8577000D02*
X9990000Y-8677000D01*
X9990000Y-8577000D02*
X9890000Y-8677000D01*
X9890000Y-8831000D02*
X9990000Y-8931000D01*
X9990000Y-8831000D02*
X9890000Y-8931000D01*
X9890000Y-9085000D02*
X9990000Y-9185000D01*
X9990000Y-9085000D02*
X9890000Y-9185000D01*
X12195000Y-7305000D02*
X12295000Y-7405000D01*
X12295000Y-7305000D02*
X12195000Y-7405000D01*
X12195000Y-7559000D02*
X12295000Y-7659000D01*
X12295000Y-7559000D02*
X12195000Y-7659000D01*
X12195000Y-7813000D02*
X12295000Y-7913000D01*
X12295000Y-7813000D02*
X12195000Y-7913000D01*
X12195000Y-8067000D02*
X12295000Y-8167000D01*
X12295000Y-8067000D02*
X12195000Y-8167000D01*
X12195000Y-8321000D02*
X12295000Y-8421000D01*
X12295000Y-8321000D02*
X12195000Y-8421000D01*
X12195000Y-8575000D02*
X12295000Y-8675000D01*
X12295000Y-8575000D02*
X12195000Y-8675000D01*
X12195000Y-8829000D02*
X12295000Y-8929000D01*
X12295000Y-8829000D02*
X12195000Y-8929000D01*
X12195000Y-9083000D02*
X12295000Y-9183000D01*
X12295000Y-9083000D02*
X12195000Y-9183000D01*
X12765000Y-7050000D02*
X12865000Y-7150000D01*
X12865000Y-7050000D02*
X12765000Y-7150000D01*
X12765000Y-7304000D02*
X12865000Y-7404000D01*
X12865000Y-7304000D02*
X12765000Y-7404000D01*
X12765000Y-7558000D02*
X12865000Y-7658000D01*
X12865000Y-7558000D02*
X12765000Y-7658000D01*
X12765000Y-7812000D02*
X12865000Y-7912000D01*
X12865000Y-7812000D02*
X12765000Y-7912000D01*
X12765000Y-8066000D02*
X12865000Y-8166000D01*
X12865000Y-8066000D02*
X12765000Y-8166000D01*
X12765000Y-8320000D02*
X12865000Y-8420000D01*
X12865000Y-8320000D02*
X12765000Y-8420000D01*
X12765000Y-8574000D02*
X12865000Y-8674000D01*
X12865000Y-8574000D02*
X12765000Y-8674000D01*
X12765000Y-8828000D02*
X12865000Y-8928000D01*
X12865000Y-8828000D02*
X12765000Y-8928000D01*
X12765000Y-9082000D02*
X12865000Y-9182000D01*
X12865000Y-9082000D02*
X12765000Y-9182000D01*
X14308500Y-7043000D02*
X14408500Y-7143000D01*
X14408500Y-7043000D02*
X14308500Y-7143000D01*
X14308500Y-7297000D02*
X14408500Y-7397000D01*
X14408500Y-7297000D02*
X14308500Y-7397000D01*
X14308500Y-7551000D02*
X14408500Y-7651000D01*
X14408500Y-7551000D02*
X14308500Y-7651000D01*
X14308500Y-7805000D02*
X14408500Y-7905000D01*
X14408500Y-7805000D02*
X14308500Y-7905000D01*
X14308500Y-8059000D02*
X14408500Y-8159000D01*
X14408500Y-8059000D02*
X14308500Y-8159000D01*
X14308500Y-8313000D02*
X14408500Y-8413000D01*
X14408500Y-8313000D02*
X14308500Y-8413000D01*
X14308500Y-8567000D02*
X14408500Y-8667000D01*
X14408500Y-8567000D02*
X14308500Y-8667000D01*
X14308500Y-8821000D02*
X14408500Y-8921000D01*
X14408500Y-8821000D02*
X14308500Y-8921000D01*
X14308500Y-9075000D02*
X14408500Y-9175000D01*
X14408500Y-9075000D02*
X14308500Y-9175000D01*
D13*
X9350000Y-7362000D02*
G75*
G03*
X9230000Y-7362000I-60000J0D01*
G01*
X9230000Y-7362000D02*
G75*
G03*
X9350000Y-7362000I60000J0D01*
G01*
X9350000Y-7616000D02*
G75*
G03*
X9230000Y-7616000I-60000J0D01*
G01*
X9230000Y-7616000D02*
G75*
G03*
X9350000Y-7616000I60000J0D01*
G01*
X9350000Y-7870000D02*
G75*
G03*
X9230000Y-7870000I-60000J0D01*
G01*
X9230000Y-7870000D02*
G75*
G03*
X9350000Y-7870000I60000J0D01*
G01*
X9350000Y-8124000D02*
G75*
G03*
X9230000Y-8124000I-60000J0D01*
G01*
X9230000Y-8124000D02*
G75*
G03*
X9350000Y-8124000I60000J0D01*
G01*
D11*
X9146277Y-10442984D02*
X9146277Y-10242984D01*
X9146277Y-10242984D02*
X9193896Y-10242984D01*
X9193896Y-10242984D02*
X9222467Y-10252508D01*
X9222467Y-10252508D02*
X9241515Y-10271555D01*
X9241515Y-10271555D02*
X9251039Y-10290603D01*
X9251039Y-10290603D02*
X9260563Y-10328698D01*
X9260563Y-10328698D02*
X9260563Y-10357270D01*
X9260563Y-10357270D02*
X9251039Y-10395365D01*
X9251039Y-10395365D02*
X9241515Y-10414412D01*
X9241515Y-10414412D02*
X9222467Y-10433460D01*
X9222467Y-10433460D02*
X9193896Y-10442984D01*
X9193896Y-10442984D02*
X9146277Y-10442984D01*
X9346277Y-10442984D02*
X9346277Y-10309650D01*
X9346277Y-10347746D02*
X9355801Y-10328698D01*
X9355801Y-10328698D02*
X9365324Y-10319174D01*
X9365324Y-10319174D02*
X9384372Y-10309650D01*
X9384372Y-10309650D02*
X9403420Y-10309650D01*
X9470086Y-10442984D02*
X9470086Y-10309650D01*
X9470086Y-10242984D02*
X9460563Y-10252508D01*
X9460563Y-10252508D02*
X9470086Y-10262031D01*
X9470086Y-10262031D02*
X9479610Y-10252508D01*
X9479610Y-10252508D02*
X9470086Y-10242984D01*
X9470086Y-10242984D02*
X9470086Y-10262031D01*
X9593896Y-10442984D02*
X9574848Y-10433460D01*
X9574848Y-10433460D02*
X9565324Y-10414412D01*
X9565324Y-10414412D02*
X9565324Y-10242984D01*
X9698658Y-10442984D02*
X9679610Y-10433460D01*
X9679610Y-10433460D02*
X9670086Y-10414412D01*
X9670086Y-10414412D02*
X9670086Y-10242984D01*
X9927229Y-10442984D02*
X9927229Y-10242984D01*
X9927229Y-10242984D02*
X9993896Y-10385841D01*
X9993896Y-10385841D02*
X10060563Y-10242984D01*
X10060563Y-10242984D02*
X10060563Y-10442984D01*
X10241515Y-10442984D02*
X10241515Y-10338222D01*
X10241515Y-10338222D02*
X10231991Y-10319174D01*
X10231991Y-10319174D02*
X10212944Y-10309650D01*
X10212944Y-10309650D02*
X10174848Y-10309650D01*
X10174848Y-10309650D02*
X10155801Y-10319174D01*
X10241515Y-10433460D02*
X10222467Y-10442984D01*
X10222467Y-10442984D02*
X10174848Y-10442984D01*
X10174848Y-10442984D02*
X10155801Y-10433460D01*
X10155801Y-10433460D02*
X10146277Y-10414412D01*
X10146277Y-10414412D02*
X10146277Y-10395365D01*
X10146277Y-10395365D02*
X10155801Y-10376317D01*
X10155801Y-10376317D02*
X10174848Y-10366793D01*
X10174848Y-10366793D02*
X10222467Y-10366793D01*
X10222467Y-10366793D02*
X10241515Y-10357270D01*
X10336753Y-10309650D02*
X10336753Y-10509650D01*
X10336753Y-10319174D02*
X10355801Y-10309650D01*
X10355801Y-10309650D02*
X10393896Y-10309650D01*
X10393896Y-10309650D02*
X10412944Y-10319174D01*
X10412944Y-10319174D02*
X10422467Y-10328698D01*
X10422467Y-10328698D02*
X10431991Y-10347746D01*
X10431991Y-10347746D02*
X10431991Y-10404889D01*
X10431991Y-10404889D02*
X10422467Y-10423936D01*
X10422467Y-10423936D02*
X10412944Y-10433460D01*
X10412944Y-10433460D02*
X10393896Y-10442984D01*
X10393896Y-10442984D02*
X10355801Y-10442984D01*
X10355801Y-10442984D02*
X10336753Y-10433460D01*
X10517705Y-10423936D02*
X10527229Y-10433460D01*
X10527229Y-10433460D02*
X10517705Y-10442984D01*
X10517705Y-10442984D02*
X10508182Y-10433460D01*
X10508182Y-10433460D02*
X10517705Y-10423936D01*
X10517705Y-10423936D02*
X10517705Y-10442984D01*
X10517705Y-10319174D02*
X10527229Y-10328698D01*
X10527229Y-10328698D02*
X10517705Y-10338222D01*
X10517705Y-10338222D02*
X10508182Y-10328698D01*
X10508182Y-10328698D02*
X10517705Y-10319174D01*
X10517705Y-10319174D02*
X10517705Y-10338222D01*
D12*
X8785500Y-10721500D02*
X8885500Y-10821500D01*
X8885500Y-10721500D02*
X8785500Y-10821500D01*
D11*
X9251039Y-10862984D02*
X9136753Y-10862984D01*
X9193896Y-10862984D02*
X9193896Y-10662984D01*
X9193896Y-10662984D02*
X9174848Y-10691555D01*
X9174848Y-10691555D02*
X9155801Y-10710603D01*
X9155801Y-10710603D02*
X9136753Y-10720127D01*
X9336753Y-10843936D02*
X9346277Y-10853460D01*
X9346277Y-10853460D02*
X9336753Y-10862984D01*
X9336753Y-10862984D02*
X9327229Y-10853460D01*
X9327229Y-10853460D02*
X9336753Y-10843936D01*
X9336753Y-10843936D02*
X9336753Y-10862984D01*
X9470086Y-10662984D02*
X9489134Y-10662984D01*
X9489134Y-10662984D02*
X9508182Y-10672508D01*
X9508182Y-10672508D02*
X9517705Y-10682031D01*
X9517705Y-10682031D02*
X9527229Y-10701079D01*
X9527229Y-10701079D02*
X9536753Y-10739174D01*
X9536753Y-10739174D02*
X9536753Y-10786793D01*
X9536753Y-10786793D02*
X9527229Y-10824889D01*
X9527229Y-10824889D02*
X9517705Y-10843936D01*
X9517705Y-10843936D02*
X9508182Y-10853460D01*
X9508182Y-10853460D02*
X9489134Y-10862984D01*
X9489134Y-10862984D02*
X9470086Y-10862984D01*
X9470086Y-10862984D02*
X9451039Y-10853460D01*
X9451039Y-10853460D02*
X9441515Y-10843936D01*
X9441515Y-10843936D02*
X9431991Y-10824889D01*
X9431991Y-10824889D02*
X9422467Y-10786793D01*
X9422467Y-10786793D02*
X9422467Y-10739174D01*
X9422467Y-10739174D02*
X9431991Y-10701079D01*
X9431991Y-10701079D02*
X9441515Y-10682031D01*
X9441515Y-10682031D02*
X9451039Y-10672508D01*
X9451039Y-10672508D02*
X9470086Y-10662984D01*
X9660563Y-10662984D02*
X9679610Y-10662984D01*
X9679610Y-10662984D02*
X9698658Y-10672508D01*
X9698658Y-10672508D02*
X9708182Y-10682031D01*
X9708182Y-10682031D02*
X9717705Y-10701079D01*
X9717705Y-10701079D02*
X9727229Y-10739174D01*
X9727229Y-10739174D02*
X9727229Y-10786793D01*
X9727229Y-10786793D02*
X9717705Y-10824889D01*
X9717705Y-10824889D02*
X9708182Y-10843936D01*
X9708182Y-10843936D02*
X9698658Y-10853460D01*
X9698658Y-10853460D02*
X9679610Y-10862984D01*
X9679610Y-10862984D02*
X9660563Y-10862984D01*
X9660563Y-10862984D02*
X9641515Y-10853460D01*
X9641515Y-10853460D02*
X9631991Y-10843936D01*
X9631991Y-10843936D02*
X9622467Y-10824889D01*
X9622467Y-10824889D02*
X9612944Y-10786793D01*
X9612944Y-10786793D02*
X9612944Y-10739174D01*
X9612944Y-10739174D02*
X9622467Y-10701079D01*
X9622467Y-10701079D02*
X9631991Y-10682031D01*
X9631991Y-10682031D02*
X9641515Y-10672508D01*
X9641515Y-10672508D02*
X9660563Y-10662984D01*
X9851039Y-10662984D02*
X9870086Y-10662984D01*
X9870086Y-10662984D02*
X9889134Y-10672508D01*
X9889134Y-10672508D02*
X9898658Y-10682031D01*
X9898658Y-10682031D02*
X9908182Y-10701079D01*
X9908182Y-10701079D02*
X9917705Y-10739174D01*
X9917705Y-10739174D02*
X9917705Y-10786793D01*
X9917705Y-10786793D02*
X9908182Y-10824889D01*
X9908182Y-10824889D02*
X9898658Y-10843936D01*
X9898658Y-10843936D02*
X9889134Y-10853460D01*
X9889134Y-10853460D02*
X9870086Y-10862984D01*
X9870086Y-10862984D02*
X9851039Y-10862984D01*
X9851039Y-10862984D02*
X9831991Y-10853460D01*
X9831991Y-10853460D02*
X9822467Y-10843936D01*
X9822467Y-10843936D02*
X9812944Y-10824889D01*
X9812944Y-10824889D02*
X9803420Y-10786793D01*
X9803420Y-10786793D02*
X9803420Y-10739174D01*
X9803420Y-10739174D02*
X9812944Y-10701079D01*
X9812944Y-10701079D02*
X9822467Y-10682031D01*
X9822467Y-10682031D02*
X9831991Y-10672508D01*
X9831991Y-10672508D02*
X9851039Y-10662984D01*
X10003420Y-10862984D02*
X10003420Y-10729650D01*
X10003420Y-10748698D02*
X10012944Y-10739174D01*
X10012944Y-10739174D02*
X10031991Y-10729650D01*
X10031991Y-10729650D02*
X10060563Y-10729650D01*
X10060563Y-10729650D02*
X10079610Y-10739174D01*
X10079610Y-10739174D02*
X10089134Y-10758222D01*
X10089134Y-10758222D02*
X10089134Y-10862984D01*
X10089134Y-10758222D02*
X10098658Y-10739174D01*
X10098658Y-10739174D02*
X10117705Y-10729650D01*
X10117705Y-10729650D02*
X10146277Y-10729650D01*
X10146277Y-10729650D02*
X10165325Y-10739174D01*
X10165325Y-10739174D02*
X10174848Y-10758222D01*
X10174848Y-10758222D02*
X10174848Y-10862984D01*
X10270086Y-10862984D02*
X10270086Y-10729650D01*
X10270086Y-10748698D02*
X10279610Y-10739174D01*
X10279610Y-10739174D02*
X10298658Y-10729650D01*
X10298658Y-10729650D02*
X10327229Y-10729650D01*
X10327229Y-10729650D02*
X10346277Y-10739174D01*
X10346277Y-10739174D02*
X10355801Y-10758222D01*
X10355801Y-10758222D02*
X10355801Y-10862984D01*
X10355801Y-10758222D02*
X10365325Y-10739174D01*
X10365325Y-10739174D02*
X10384372Y-10729650D01*
X10384372Y-10729650D02*
X10412944Y-10729650D01*
X10412944Y-10729650D02*
X10431991Y-10739174D01*
X10431991Y-10739174D02*
X10441515Y-10758222D01*
X10441515Y-10758222D02*
X10441515Y-10862984D01*
X10831991Y-10653460D02*
X10660563Y-10910603D01*
X11089134Y-10662984D02*
X11108182Y-10662984D01*
X11108182Y-10662984D02*
X11127229Y-10672508D01*
X11127229Y-10672508D02*
X11136753Y-10682031D01*
X11136753Y-10682031D02*
X11146277Y-10701079D01*
X11146277Y-10701079D02*
X11155801Y-10739174D01*
X11155801Y-10739174D02*
X11155801Y-10786793D01*
X11155801Y-10786793D02*
X11146277Y-10824889D01*
X11146277Y-10824889D02*
X11136753Y-10843936D01*
X11136753Y-10843936D02*
X11127229Y-10853460D01*
X11127229Y-10853460D02*
X11108182Y-10862984D01*
X11108182Y-10862984D02*
X11089134Y-10862984D01*
X11089134Y-10862984D02*
X11070087Y-10853460D01*
X11070087Y-10853460D02*
X11060563Y-10843936D01*
X11060563Y-10843936D02*
X11051039Y-10824889D01*
X11051039Y-10824889D02*
X11041515Y-10786793D01*
X11041515Y-10786793D02*
X11041515Y-10739174D01*
X11041515Y-10739174D02*
X11051039Y-10701079D01*
X11051039Y-10701079D02*
X11060563Y-10682031D01*
X11060563Y-10682031D02*
X11070087Y-10672508D01*
X11070087Y-10672508D02*
X11089134Y-10662984D01*
X11241515Y-10843936D02*
X11251039Y-10853460D01*
X11251039Y-10853460D02*
X11241515Y-10862984D01*
X11241515Y-10862984D02*
X11231991Y-10853460D01*
X11231991Y-10853460D02*
X11241515Y-10843936D01*
X11241515Y-10843936D02*
X11241515Y-10862984D01*
X11374848Y-10662984D02*
X11393896Y-10662984D01*
X11393896Y-10662984D02*
X11412944Y-10672508D01*
X11412944Y-10672508D02*
X11422467Y-10682031D01*
X11422467Y-10682031D02*
X11431991Y-10701079D01*
X11431991Y-10701079D02*
X11441515Y-10739174D01*
X11441515Y-10739174D02*
X11441515Y-10786793D01*
X11441515Y-10786793D02*
X11431991Y-10824889D01*
X11431991Y-10824889D02*
X11422467Y-10843936D01*
X11422467Y-10843936D02*
X11412944Y-10853460D01*
X11412944Y-10853460D02*
X11393896Y-10862984D01*
X11393896Y-10862984D02*
X11374848Y-10862984D01*
X11374848Y-10862984D02*
X11355801Y-10853460D01*
X11355801Y-10853460D02*
X11346277Y-10843936D01*
X11346277Y-10843936D02*
X11336753Y-10824889D01*
X11336753Y-10824889D02*
X11327229Y-10786793D01*
X11327229Y-10786793D02*
X11327229Y-10739174D01*
X11327229Y-10739174D02*
X11336753Y-10701079D01*
X11336753Y-10701079D02*
X11346277Y-10682031D01*
X11346277Y-10682031D02*
X11355801Y-10672508D01*
X11355801Y-10672508D02*
X11374848Y-10662984D01*
X11508182Y-10662984D02*
X11631991Y-10662984D01*
X11631991Y-10662984D02*
X11565325Y-10739174D01*
X11565325Y-10739174D02*
X11593896Y-10739174D01*
X11593896Y-10739174D02*
X11612944Y-10748698D01*
X11612944Y-10748698D02*
X11622467Y-10758222D01*
X11622467Y-10758222D02*
X11631991Y-10777270D01*
X11631991Y-10777270D02*
X11631991Y-10824889D01*
X11631991Y-10824889D02*
X11622467Y-10843936D01*
X11622467Y-10843936D02*
X11612944Y-10853460D01*
X11612944Y-10853460D02*
X11593896Y-10862984D01*
X11593896Y-10862984D02*
X11536753Y-10862984D01*
X11536753Y-10862984D02*
X11517706Y-10853460D01*
X11517706Y-10853460D02*
X11508182Y-10843936D01*
X11727229Y-10862984D02*
X11765325Y-10862984D01*
X11765325Y-10862984D02*
X11784372Y-10853460D01*
X11784372Y-10853460D02*
X11793896Y-10843936D01*
X11793896Y-10843936D02*
X11812944Y-10815365D01*
X11812944Y-10815365D02*
X11822467Y-10777270D01*
X11822467Y-10777270D02*
X11822467Y-10701079D01*
X11822467Y-10701079D02*
X11812944Y-10682031D01*
X11812944Y-10682031D02*
X11803420Y-10672508D01*
X11803420Y-10672508D02*
X11784372Y-10662984D01*
X11784372Y-10662984D02*
X11746277Y-10662984D01*
X11746277Y-10662984D02*
X11727229Y-10672508D01*
X11727229Y-10672508D02*
X11717706Y-10682031D01*
X11717706Y-10682031D02*
X11708182Y-10701079D01*
X11708182Y-10701079D02*
X11708182Y-10748698D01*
X11708182Y-10748698D02*
X11717706Y-10767746D01*
X11717706Y-10767746D02*
X11727229Y-10777270D01*
X11727229Y-10777270D02*
X11746277Y-10786793D01*
X11746277Y-10786793D02*
X11784372Y-10786793D01*
X11784372Y-10786793D02*
X11803420Y-10777270D01*
X11803420Y-10777270D02*
X11812944Y-10767746D01*
X11812944Y-10767746D02*
X11822467Y-10748698D01*
X11993896Y-10729650D02*
X11993896Y-10862984D01*
X11946277Y-10653460D02*
X11898658Y-10796317D01*
X11898658Y-10796317D02*
X12022467Y-10796317D01*
X12089134Y-10662984D02*
X12089134Y-10701079D01*
X12165325Y-10662984D02*
X12165325Y-10701079D01*
X12460563Y-10939174D02*
X12451039Y-10929650D01*
X12451039Y-10929650D02*
X12431991Y-10901079D01*
X12431991Y-10901079D02*
X12422468Y-10882031D01*
X12422468Y-10882031D02*
X12412944Y-10853460D01*
X12412944Y-10853460D02*
X12403420Y-10805841D01*
X12403420Y-10805841D02*
X12403420Y-10767746D01*
X12403420Y-10767746D02*
X12412944Y-10720127D01*
X12412944Y-10720127D02*
X12422468Y-10691555D01*
X12422468Y-10691555D02*
X12431991Y-10672508D01*
X12431991Y-10672508D02*
X12451039Y-10643936D01*
X12451039Y-10643936D02*
X12460563Y-10634412D01*
X12517706Y-10662984D02*
X12641515Y-10662984D01*
X12641515Y-10662984D02*
X12574848Y-10739174D01*
X12574848Y-10739174D02*
X12603420Y-10739174D01*
X12603420Y-10739174D02*
X12622468Y-10748698D01*
X12622468Y-10748698D02*
X12631991Y-10758222D01*
X12631991Y-10758222D02*
X12641515Y-10777270D01*
X12641515Y-10777270D02*
X12641515Y-10824889D01*
X12641515Y-10824889D02*
X12631991Y-10843936D01*
X12631991Y-10843936D02*
X12622468Y-10853460D01*
X12622468Y-10853460D02*
X12603420Y-10862984D01*
X12603420Y-10862984D02*
X12546277Y-10862984D01*
X12546277Y-10862984D02*
X12527229Y-10853460D01*
X12527229Y-10853460D02*
X12517706Y-10843936D01*
X12812944Y-10662984D02*
X12774848Y-10662984D01*
X12774848Y-10662984D02*
X12755801Y-10672508D01*
X12755801Y-10672508D02*
X12746277Y-10682031D01*
X12746277Y-10682031D02*
X12727229Y-10710603D01*
X12727229Y-10710603D02*
X12717706Y-10748698D01*
X12717706Y-10748698D02*
X12717706Y-10824889D01*
X12717706Y-10824889D02*
X12727229Y-10843936D01*
X12727229Y-10843936D02*
X12736753Y-10853460D01*
X12736753Y-10853460D02*
X12755801Y-10862984D01*
X12755801Y-10862984D02*
X12793896Y-10862984D01*
X12793896Y-10862984D02*
X12812944Y-10853460D01*
X12812944Y-10853460D02*
X12822468Y-10843936D01*
X12822468Y-10843936D02*
X12831991Y-10824889D01*
X12831991Y-10824889D02*
X12831991Y-10777270D01*
X12831991Y-10777270D02*
X12822468Y-10758222D01*
X12822468Y-10758222D02*
X12812944Y-10748698D01*
X12812944Y-10748698D02*
X12793896Y-10739174D01*
X12793896Y-10739174D02*
X12755801Y-10739174D01*
X12755801Y-10739174D02*
X12736753Y-10748698D01*
X12736753Y-10748698D02*
X12727229Y-10758222D01*
X12727229Y-10758222D02*
X12717706Y-10777270D01*
X13070087Y-10862984D02*
X13070087Y-10662984D01*
X13155801Y-10862984D02*
X13155801Y-10758222D01*
X13155801Y-10758222D02*
X13146277Y-10739174D01*
X13146277Y-10739174D02*
X13127230Y-10729650D01*
X13127230Y-10729650D02*
X13098658Y-10729650D01*
X13098658Y-10729650D02*
X13079610Y-10739174D01*
X13079610Y-10739174D02*
X13070087Y-10748698D01*
X13279610Y-10862984D02*
X13260563Y-10853460D01*
X13260563Y-10853460D02*
X13251039Y-10843936D01*
X13251039Y-10843936D02*
X13241515Y-10824889D01*
X13241515Y-10824889D02*
X13241515Y-10767746D01*
X13241515Y-10767746D02*
X13251039Y-10748698D01*
X13251039Y-10748698D02*
X13260563Y-10739174D01*
X13260563Y-10739174D02*
X13279610Y-10729650D01*
X13279610Y-10729650D02*
X13308182Y-10729650D01*
X13308182Y-10729650D02*
X13327230Y-10739174D01*
X13327230Y-10739174D02*
X13336753Y-10748698D01*
X13336753Y-10748698D02*
X13346277Y-10767746D01*
X13346277Y-10767746D02*
X13346277Y-10824889D01*
X13346277Y-10824889D02*
X13336753Y-10843936D01*
X13336753Y-10843936D02*
X13327230Y-10853460D01*
X13327230Y-10853460D02*
X13308182Y-10862984D01*
X13308182Y-10862984D02*
X13279610Y-10862984D01*
X13460563Y-10862984D02*
X13441515Y-10853460D01*
X13441515Y-10853460D02*
X13431991Y-10834412D01*
X13431991Y-10834412D02*
X13431991Y-10662984D01*
X13612944Y-10853460D02*
X13593896Y-10862984D01*
X13593896Y-10862984D02*
X13555801Y-10862984D01*
X13555801Y-10862984D02*
X13536753Y-10853460D01*
X13536753Y-10853460D02*
X13527230Y-10834412D01*
X13527230Y-10834412D02*
X13527230Y-10758222D01*
X13527230Y-10758222D02*
X13536753Y-10739174D01*
X13536753Y-10739174D02*
X13555801Y-10729650D01*
X13555801Y-10729650D02*
X13593896Y-10729650D01*
X13593896Y-10729650D02*
X13612944Y-10739174D01*
X13612944Y-10739174D02*
X13622468Y-10758222D01*
X13622468Y-10758222D02*
X13622468Y-10777270D01*
X13622468Y-10777270D02*
X13527230Y-10796317D01*
X13698658Y-10853460D02*
X13717706Y-10862984D01*
X13717706Y-10862984D02*
X13755801Y-10862984D01*
X13755801Y-10862984D02*
X13774849Y-10853460D01*
X13774849Y-10853460D02*
X13784372Y-10834412D01*
X13784372Y-10834412D02*
X13784372Y-10824889D01*
X13784372Y-10824889D02*
X13774849Y-10805841D01*
X13774849Y-10805841D02*
X13755801Y-10796317D01*
X13755801Y-10796317D02*
X13727230Y-10796317D01*
X13727230Y-10796317D02*
X13708182Y-10786793D01*
X13708182Y-10786793D02*
X13698658Y-10767746D01*
X13698658Y-10767746D02*
X13698658Y-10758222D01*
X13698658Y-10758222D02*
X13708182Y-10739174D01*
X13708182Y-10739174D02*
X13727230Y-10729650D01*
X13727230Y-10729650D02*
X13755801Y-10729650D01*
X13755801Y-10729650D02*
X13774849Y-10739174D01*
X13851039Y-10939174D02*
X13860563Y-10929650D01*
X13860563Y-10929650D02*
X13879611Y-10901079D01*
X13879611Y-10901079D02*
X13889134Y-10882031D01*
X13889134Y-10882031D02*
X13898658Y-10853460D01*
X13898658Y-10853460D02*
X13908182Y-10805841D01*
X13908182Y-10805841D02*
X13908182Y-10767746D01*
X13908182Y-10767746D02*
X13898658Y-10720127D01*
X13898658Y-10720127D02*
X13889134Y-10691555D01*
X13889134Y-10691555D02*
X13879611Y-10672508D01*
X13879611Y-10672508D02*
X13860563Y-10643936D01*
X13860563Y-10643936D02*
X13851039Y-10634412D01*
D13*
X8885500Y-11035500D02*
G75*
G03*
X8765500Y-11035500I-60000J0D01*
G01*
X8765500Y-11035500D02*
G75*
G03*
X8885500Y-11035500I60000J0D01*
G01*
D11*
X9251039Y-11126984D02*
X9136753Y-11126984D01*
X9193896Y-11126984D02*
X9193896Y-10926984D01*
X9193896Y-10926984D02*
X9174848Y-10955555D01*
X9174848Y-10955555D02*
X9155801Y-10974603D01*
X9155801Y-10974603D02*
X9136753Y-10984127D01*
X9336753Y-11107936D02*
X9346277Y-11117460D01*
X9346277Y-11117460D02*
X9336753Y-11126984D01*
X9336753Y-11126984D02*
X9327229Y-11117460D01*
X9327229Y-11117460D02*
X9336753Y-11107936D01*
X9336753Y-11107936D02*
X9336753Y-11126984D01*
X9422467Y-10946031D02*
X9431991Y-10936508D01*
X9431991Y-10936508D02*
X9451039Y-10926984D01*
X9451039Y-10926984D02*
X9498658Y-10926984D01*
X9498658Y-10926984D02*
X9517705Y-10936508D01*
X9517705Y-10936508D02*
X9527229Y-10946031D01*
X9527229Y-10946031D02*
X9536753Y-10965079D01*
X9536753Y-10965079D02*
X9536753Y-10984127D01*
X9536753Y-10984127D02*
X9527229Y-11012698D01*
X9527229Y-11012698D02*
X9412944Y-11126984D01*
X9412944Y-11126984D02*
X9536753Y-11126984D01*
X9660563Y-10926984D02*
X9679610Y-10926984D01*
X9679610Y-10926984D02*
X9698658Y-10936508D01*
X9698658Y-10936508D02*
X9708182Y-10946031D01*
X9708182Y-10946031D02*
X9717705Y-10965079D01*
X9717705Y-10965079D02*
X9727229Y-11003174D01*
X9727229Y-11003174D02*
X9727229Y-11050793D01*
X9727229Y-11050793D02*
X9717705Y-11088889D01*
X9717705Y-11088889D02*
X9708182Y-11107936D01*
X9708182Y-11107936D02*
X9698658Y-11117460D01*
X9698658Y-11117460D02*
X9679610Y-11126984D01*
X9679610Y-11126984D02*
X9660563Y-11126984D01*
X9660563Y-11126984D02*
X9641515Y-11117460D01*
X9641515Y-11117460D02*
X9631991Y-11107936D01*
X9631991Y-11107936D02*
X9622467Y-11088889D01*
X9622467Y-11088889D02*
X9612944Y-11050793D01*
X9612944Y-11050793D02*
X9612944Y-11003174D01*
X9612944Y-11003174D02*
X9622467Y-10965079D01*
X9622467Y-10965079D02*
X9631991Y-10946031D01*
X9631991Y-10946031D02*
X9641515Y-10936508D01*
X9641515Y-10936508D02*
X9660563Y-10926984D01*
X9851039Y-10926984D02*
X9870086Y-10926984D01*
X9870086Y-10926984D02*
X9889134Y-10936508D01*
X9889134Y-10936508D02*
X9898658Y-10946031D01*
X9898658Y-10946031D02*
X9908182Y-10965079D01*
X9908182Y-10965079D02*
X9917705Y-11003174D01*
X9917705Y-11003174D02*
X9917705Y-11050793D01*
X9917705Y-11050793D02*
X9908182Y-11088889D01*
X9908182Y-11088889D02*
X9898658Y-11107936D01*
X9898658Y-11107936D02*
X9889134Y-11117460D01*
X9889134Y-11117460D02*
X9870086Y-11126984D01*
X9870086Y-11126984D02*
X9851039Y-11126984D01*
X9851039Y-11126984D02*
X9831991Y-11117460D01*
X9831991Y-11117460D02*
X9822467Y-11107936D01*
X9822467Y-11107936D02*
X9812944Y-11088889D01*
X9812944Y-11088889D02*
X9803420Y-11050793D01*
X9803420Y-11050793D02*
X9803420Y-11003174D01*
X9803420Y-11003174D02*
X9812944Y-10965079D01*
X9812944Y-10965079D02*
X9822467Y-10946031D01*
X9822467Y-10946031D02*
X9831991Y-10936508D01*
X9831991Y-10936508D02*
X9851039Y-10926984D01*
X10003420Y-11126984D02*
X10003420Y-10993650D01*
X10003420Y-11012698D02*
X10012944Y-11003174D01*
X10012944Y-11003174D02*
X10031991Y-10993650D01*
X10031991Y-10993650D02*
X10060563Y-10993650D01*
X10060563Y-10993650D02*
X10079610Y-11003174D01*
X10079610Y-11003174D02*
X10089134Y-11022222D01*
X10089134Y-11022222D02*
X10089134Y-11126984D01*
X10089134Y-11022222D02*
X10098658Y-11003174D01*
X10098658Y-11003174D02*
X10117705Y-10993650D01*
X10117705Y-10993650D02*
X10146277Y-10993650D01*
X10146277Y-10993650D02*
X10165325Y-11003174D01*
X10165325Y-11003174D02*
X10174848Y-11022222D01*
X10174848Y-11022222D02*
X10174848Y-11126984D01*
X10270086Y-11126984D02*
X10270086Y-10993650D01*
X10270086Y-11012698D02*
X10279610Y-11003174D01*
X10279610Y-11003174D02*
X10298658Y-10993650D01*
X10298658Y-10993650D02*
X10327229Y-10993650D01*
X10327229Y-10993650D02*
X10346277Y-11003174D01*
X10346277Y-11003174D02*
X10355801Y-11022222D01*
X10355801Y-11022222D02*
X10355801Y-11126984D01*
X10355801Y-11022222D02*
X10365325Y-11003174D01*
X10365325Y-11003174D02*
X10384372Y-10993650D01*
X10384372Y-10993650D02*
X10412944Y-10993650D01*
X10412944Y-10993650D02*
X10431991Y-11003174D01*
X10431991Y-11003174D02*
X10441515Y-11022222D01*
X10441515Y-11022222D02*
X10441515Y-11126984D01*
X10831991Y-10917460D02*
X10660563Y-11174603D01*
X11089134Y-10926984D02*
X11108182Y-10926984D01*
X11108182Y-10926984D02*
X11127229Y-10936508D01*
X11127229Y-10936508D02*
X11136753Y-10946031D01*
X11136753Y-10946031D02*
X11146277Y-10965079D01*
X11146277Y-10965079D02*
X11155801Y-11003174D01*
X11155801Y-11003174D02*
X11155801Y-11050793D01*
X11155801Y-11050793D02*
X11146277Y-11088889D01*
X11146277Y-11088889D02*
X11136753Y-11107936D01*
X11136753Y-11107936D02*
X11127229Y-11117460D01*
X11127229Y-11117460D02*
X11108182Y-11126984D01*
X11108182Y-11126984D02*
X11089134Y-11126984D01*
X11089134Y-11126984D02*
X11070087Y-11117460D01*
X11070087Y-11117460D02*
X11060563Y-11107936D01*
X11060563Y-11107936D02*
X11051039Y-11088889D01*
X11051039Y-11088889D02*
X11041515Y-11050793D01*
X11041515Y-11050793D02*
X11041515Y-11003174D01*
X11041515Y-11003174D02*
X11051039Y-10965079D01*
X11051039Y-10965079D02*
X11060563Y-10946031D01*
X11060563Y-10946031D02*
X11070087Y-10936508D01*
X11070087Y-10936508D02*
X11089134Y-10926984D01*
X11241515Y-11107936D02*
X11251039Y-11117460D01*
X11251039Y-11117460D02*
X11241515Y-11126984D01*
X11241515Y-11126984D02*
X11231991Y-11117460D01*
X11231991Y-11117460D02*
X11241515Y-11107936D01*
X11241515Y-11107936D02*
X11241515Y-11126984D01*
X11374848Y-10926984D02*
X11393896Y-10926984D01*
X11393896Y-10926984D02*
X11412944Y-10936508D01*
X11412944Y-10936508D02*
X11422467Y-10946031D01*
X11422467Y-10946031D02*
X11431991Y-10965079D01*
X11431991Y-10965079D02*
X11441515Y-11003174D01*
X11441515Y-11003174D02*
X11441515Y-11050793D01*
X11441515Y-11050793D02*
X11431991Y-11088889D01*
X11431991Y-11088889D02*
X11422467Y-11107936D01*
X11422467Y-11107936D02*
X11412944Y-11117460D01*
X11412944Y-11117460D02*
X11393896Y-11126984D01*
X11393896Y-11126984D02*
X11374848Y-11126984D01*
X11374848Y-11126984D02*
X11355801Y-11117460D01*
X11355801Y-11117460D02*
X11346277Y-11107936D01*
X11346277Y-11107936D02*
X11336753Y-11088889D01*
X11336753Y-11088889D02*
X11327229Y-11050793D01*
X11327229Y-11050793D02*
X11327229Y-11003174D01*
X11327229Y-11003174D02*
X11336753Y-10965079D01*
X11336753Y-10965079D02*
X11346277Y-10946031D01*
X11346277Y-10946031D02*
X11355801Y-10936508D01*
X11355801Y-10936508D02*
X11374848Y-10926984D01*
X11612944Y-10993650D02*
X11612944Y-11126984D01*
X11565325Y-10917460D02*
X11517706Y-11060317D01*
X11517706Y-11060317D02*
X11641515Y-11060317D01*
X11698658Y-10926984D02*
X11831991Y-10926984D01*
X11831991Y-10926984D02*
X11746277Y-11126984D01*
X11898658Y-10946031D02*
X11908182Y-10936508D01*
X11908182Y-10936508D02*
X11927229Y-10926984D01*
X11927229Y-10926984D02*
X11974848Y-10926984D01*
X11974848Y-10926984D02*
X11993896Y-10936508D01*
X11993896Y-10936508D02*
X12003420Y-10946031D01*
X12003420Y-10946031D02*
X12012944Y-10965079D01*
X12012944Y-10965079D02*
X12012944Y-10984127D01*
X12012944Y-10984127D02*
X12003420Y-11012698D01*
X12003420Y-11012698D02*
X11889134Y-11126984D01*
X11889134Y-11126984D02*
X12012944Y-11126984D01*
X12089134Y-10926984D02*
X12089134Y-10965079D01*
X12165325Y-10926984D02*
X12165325Y-10965079D01*
X12460563Y-11203174D02*
X12451039Y-11193650D01*
X12451039Y-11193650D02*
X12431991Y-11165079D01*
X12431991Y-11165079D02*
X12422468Y-11146031D01*
X12422468Y-11146031D02*
X12412944Y-11117460D01*
X12412944Y-11117460D02*
X12403420Y-11069841D01*
X12403420Y-11069841D02*
X12403420Y-11031746D01*
X12403420Y-11031746D02*
X12412944Y-10984127D01*
X12412944Y-10984127D02*
X12422468Y-10955555D01*
X12422468Y-10955555D02*
X12431991Y-10936508D01*
X12431991Y-10936508D02*
X12451039Y-10907936D01*
X12451039Y-10907936D02*
X12460563Y-10898412D01*
X12622468Y-10993650D02*
X12622468Y-11126984D01*
X12574848Y-10917460D02*
X12527229Y-11060317D01*
X12527229Y-11060317D02*
X12651039Y-11060317D01*
X12879610Y-11126984D02*
X12879610Y-10926984D01*
X12965325Y-11126984D02*
X12965325Y-11022222D01*
X12965325Y-11022222D02*
X12955801Y-11003174D01*
X12955801Y-11003174D02*
X12936753Y-10993650D01*
X12936753Y-10993650D02*
X12908182Y-10993650D01*
X12908182Y-10993650D02*
X12889134Y-11003174D01*
X12889134Y-11003174D02*
X12879610Y-11012698D01*
X13089134Y-11126984D02*
X13070087Y-11117460D01*
X13070087Y-11117460D02*
X13060563Y-11107936D01*
X13060563Y-11107936D02*
X13051039Y-11088889D01*
X13051039Y-11088889D02*
X13051039Y-11031746D01*
X13051039Y-11031746D02*
X13060563Y-11012698D01*
X13060563Y-11012698D02*
X13070087Y-11003174D01*
X13070087Y-11003174D02*
X13089134Y-10993650D01*
X13089134Y-10993650D02*
X13117706Y-10993650D01*
X13117706Y-10993650D02*
X13136753Y-11003174D01*
X13136753Y-11003174D02*
X13146277Y-11012698D01*
X13146277Y-11012698D02*
X13155801Y-11031746D01*
X13155801Y-11031746D02*
X13155801Y-11088889D01*
X13155801Y-11088889D02*
X13146277Y-11107936D01*
X13146277Y-11107936D02*
X13136753Y-11117460D01*
X13136753Y-11117460D02*
X13117706Y-11126984D01*
X13117706Y-11126984D02*
X13089134Y-11126984D01*
X13270087Y-11126984D02*
X13251039Y-11117460D01*
X13251039Y-11117460D02*
X13241515Y-11098412D01*
X13241515Y-11098412D02*
X13241515Y-10926984D01*
X13422468Y-11117460D02*
X13403420Y-11126984D01*
X13403420Y-11126984D02*
X13365325Y-11126984D01*
X13365325Y-11126984D02*
X13346277Y-11117460D01*
X13346277Y-11117460D02*
X13336753Y-11098412D01*
X13336753Y-11098412D02*
X13336753Y-11022222D01*
X13336753Y-11022222D02*
X13346277Y-11003174D01*
X13346277Y-11003174D02*
X13365325Y-10993650D01*
X13365325Y-10993650D02*
X13403420Y-10993650D01*
X13403420Y-10993650D02*
X13422468Y-11003174D01*
X13422468Y-11003174D02*
X13431991Y-11022222D01*
X13431991Y-11022222D02*
X13431991Y-11041270D01*
X13431991Y-11041270D02*
X13336753Y-11060317D01*
X13508182Y-11117460D02*
X13527230Y-11126984D01*
X13527230Y-11126984D02*
X13565325Y-11126984D01*
X13565325Y-11126984D02*
X13584372Y-11117460D01*
X13584372Y-11117460D02*
X13593896Y-11098412D01*
X13593896Y-11098412D02*
X13593896Y-11088889D01*
X13593896Y-11088889D02*
X13584372Y-11069841D01*
X13584372Y-11069841D02*
X13565325Y-11060317D01*
X13565325Y-11060317D02*
X13536753Y-11060317D01*
X13536753Y-11060317D02*
X13517706Y-11050793D01*
X13517706Y-11050793D02*
X13508182Y-11031746D01*
X13508182Y-11031746D02*
X13508182Y-11022222D01*
X13508182Y-11022222D02*
X13517706Y-11003174D01*
X13517706Y-11003174D02*
X13536753Y-10993650D01*
X13536753Y-10993650D02*
X13565325Y-10993650D01*
X13565325Y-10993650D02*
X13584372Y-11003174D01*
X13660563Y-11203174D02*
X13670087Y-11193650D01*
X13670087Y-11193650D02*
X13689134Y-11165079D01*
X13689134Y-11165079D02*
X13698658Y-11146031D01*
X13698658Y-11146031D02*
X13708182Y-11117460D01*
X13708182Y-11117460D02*
X13717706Y-11069841D01*
X13717706Y-11069841D02*
X13717706Y-11031746D01*
X13717706Y-11031746D02*
X13708182Y-10984127D01*
X13708182Y-10984127D02*
X13698658Y-10955555D01*
X13698658Y-10955555D02*
X13689134Y-10936508D01*
X13689134Y-10936508D02*
X13670087Y-10907936D01*
X13670087Y-10907936D02*
X13660563Y-10898412D01*
M02*
