%TF.GenerationSoftware,KiCad,Pcbnew,7.0.11-7.0.11~ubuntu22.04.1*%
%TF.CreationDate,2024-11-08T22:36:42-03:00*%
%TF.ProjectId,esp32cam_board,65737033-3263-4616-9d5f-626f6172642e,rev?*%
%TF.SameCoordinates,Original*%
%TF.FileFunction,Drillmap*%
%TF.FilePolarity,Positive*%
%FSLAX45Y45*%
G04 Gerber Fmt 4.5, Leading zero omitted, Abs format (unit mm)*
G04 Created by KiCad (PCBNEW 7.0.11-7.0.11~ubuntu22.04.1) date 2024-11-08 22:36:42*
%MOMM*%
%LPD*%
G01*
G04 APERTURE LIST*
%ADD10C,0.050000*%
%ADD11C,0.200000*%
G04 APERTURE END LIST*
D10*
X9296000Y-6807000D02*
G75*
G03*
X8966000Y-6807000I-165000J0D01*
G01*
X8966000Y-6807000D02*
G75*
G03*
X9296000Y-6807000I165000J0D01*
G01*
X8888000Y-6553000D02*
X14613000Y-6553000D01*
X14613000Y-10129000D01*
X8888000Y-10129000D01*
X8888000Y-6553000D01*
X14528000Y-9874000D02*
G75*
G03*
X14198000Y-9874000I-165000J0D01*
G01*
X14198000Y-9874000D02*
G75*
G03*
X14528000Y-9874000I165000J0D01*
G01*
D11*
X9146277Y-10442984D02*
X9146277Y-10242984D01*
X9146277Y-10242984D02*
X9193896Y-10242984D01*
X9193896Y-10242984D02*
X9222467Y-10252508D01*
X9222467Y-10252508D02*
X9241515Y-10271555D01*
X9241515Y-10271555D02*
X9251039Y-10290603D01*
X9251039Y-10290603D02*
X9260563Y-10328698D01*
X9260563Y-10328698D02*
X9260563Y-10357270D01*
X9260563Y-10357270D02*
X9251039Y-10395365D01*
X9251039Y-10395365D02*
X9241515Y-10414412D01*
X9241515Y-10414412D02*
X9222467Y-10433460D01*
X9222467Y-10433460D02*
X9193896Y-10442984D01*
X9193896Y-10442984D02*
X9146277Y-10442984D01*
X9346277Y-10442984D02*
X9346277Y-10309650D01*
X9346277Y-10347746D02*
X9355801Y-10328698D01*
X9355801Y-10328698D02*
X9365324Y-10319174D01*
X9365324Y-10319174D02*
X9384372Y-10309650D01*
X9384372Y-10309650D02*
X9403420Y-10309650D01*
X9470086Y-10442984D02*
X9470086Y-10309650D01*
X9470086Y-10242984D02*
X9460563Y-10252508D01*
X9460563Y-10252508D02*
X9470086Y-10262031D01*
X9470086Y-10262031D02*
X9479610Y-10252508D01*
X9479610Y-10252508D02*
X9470086Y-10242984D01*
X9470086Y-10242984D02*
X9470086Y-10262031D01*
X9593896Y-10442984D02*
X9574848Y-10433460D01*
X9574848Y-10433460D02*
X9565324Y-10414412D01*
X9565324Y-10414412D02*
X9565324Y-10242984D01*
X9698658Y-10442984D02*
X9679610Y-10433460D01*
X9679610Y-10433460D02*
X9670086Y-10414412D01*
X9670086Y-10414412D02*
X9670086Y-10242984D01*
X9927229Y-10442984D02*
X9927229Y-10242984D01*
X9927229Y-10242984D02*
X9993896Y-10385841D01*
X9993896Y-10385841D02*
X10060563Y-10242984D01*
X10060563Y-10242984D02*
X10060563Y-10442984D01*
X10241515Y-10442984D02*
X10241515Y-10338222D01*
X10241515Y-10338222D02*
X10231991Y-10319174D01*
X10231991Y-10319174D02*
X10212944Y-10309650D01*
X10212944Y-10309650D02*
X10174848Y-10309650D01*
X10174848Y-10309650D02*
X10155801Y-10319174D01*
X10241515Y-10433460D02*
X10222467Y-10442984D01*
X10222467Y-10442984D02*
X10174848Y-10442984D01*
X10174848Y-10442984D02*
X10155801Y-10433460D01*
X10155801Y-10433460D02*
X10146277Y-10414412D01*
X10146277Y-10414412D02*
X10146277Y-10395365D01*
X10146277Y-10395365D02*
X10155801Y-10376317D01*
X10155801Y-10376317D02*
X10174848Y-10366793D01*
X10174848Y-10366793D02*
X10222467Y-10366793D01*
X10222467Y-10366793D02*
X10241515Y-10357270D01*
X10336753Y-10309650D02*
X10336753Y-10509650D01*
X10336753Y-10319174D02*
X10355801Y-10309650D01*
X10355801Y-10309650D02*
X10393896Y-10309650D01*
X10393896Y-10309650D02*
X10412944Y-10319174D01*
X10412944Y-10319174D02*
X10422467Y-10328698D01*
X10422467Y-10328698D02*
X10431991Y-10347746D01*
X10431991Y-10347746D02*
X10431991Y-10404889D01*
X10431991Y-10404889D02*
X10422467Y-10423936D01*
X10422467Y-10423936D02*
X10412944Y-10433460D01*
X10412944Y-10433460D02*
X10393896Y-10442984D01*
X10393896Y-10442984D02*
X10355801Y-10442984D01*
X10355801Y-10442984D02*
X10336753Y-10433460D01*
X10517705Y-10423936D02*
X10527229Y-10433460D01*
X10527229Y-10433460D02*
X10517705Y-10442984D01*
X10517705Y-10442984D02*
X10508182Y-10433460D01*
X10508182Y-10433460D02*
X10517705Y-10423936D01*
X10517705Y-10423936D02*
X10517705Y-10442984D01*
X10517705Y-10319174D02*
X10527229Y-10328698D01*
X10527229Y-10328698D02*
X10517705Y-10338222D01*
X10517705Y-10338222D02*
X10508182Y-10328698D01*
X10508182Y-10328698D02*
X10517705Y-10319174D01*
X10517705Y-10319174D02*
X10517705Y-10338222D01*
M02*
