%TF.GenerationSoftware,KiCad,Pcbnew,7.0.11-7.0.11~ubuntu22.04.1*%
%TF.CreationDate,2024-11-08T22:36:37-03:00*%
%TF.ProjectId,esp32cam_board,65737033-3263-4616-9d5f-626f6172642e,rev?*%
%TF.SameCoordinates,Original*%
%TF.FileFunction,Soldermask,Top*%
%TF.FilePolarity,Negative*%
%FSLAX46Y46*%
G04 Gerber Fmt 4.6, Leading zero omitted, Abs format (unit mm)*
G04 Created by KiCad (PCBNEW 7.0.11-7.0.11~ubuntu22.04.1) date 2024-11-08 22:36:37*
%MOMM*%
%LPD*%
G01*
G04 APERTURE LIST*
G04 Aperture macros list*
%AMRoundRect*
0 Rectangle with rounded corners*
0 $1 Rounding radius*
0 $2 $3 $4 $5 $6 $7 $8 $9 X,Y pos of 4 corners*
0 Add a 4 corners polygon primitive as box body*
4,1,4,$2,$3,$4,$5,$6,$7,$8,$9,$2,$3,0*
0 Add four circle primitives for the rounded corners*
1,1,$1+$1,$2,$3*
1,1,$1+$1,$4,$5*
1,1,$1+$1,$6,$7*
1,1,$1+$1,$8,$9*
0 Add four rect primitives between the rounded corners*
20,1,$1+$1,$2,$3,$4,$5,0*
20,1,$1+$1,$4,$5,$6,$7,0*
20,1,$1+$1,$6,$7,$8,$9,0*
20,1,$1+$1,$8,$9,$2,$3,0*%
G04 Aperture macros list end*
%ADD10R,1.700000X1.700000*%
%ADD11O,1.700000X1.700000*%
%ADD12RoundRect,0.250000X-0.845000X0.620000X-0.845000X-0.620000X0.845000X-0.620000X0.845000X0.620000X0*%
%ADD13O,2.190000X1.740000*%
G04 APERTURE END LIST*
D10*
%TO.C,J5*%
X122450000Y-73550000D03*
D11*
X122450000Y-76090000D03*
X122450000Y-78630000D03*
X122450000Y-81170000D03*
X122450000Y-83710000D03*
X122450000Y-86250000D03*
X122450000Y-88790000D03*
X122450000Y-91330000D03*
%TD*%
D10*
%TO.C,J6*%
X92990000Y-87855000D03*
D11*
X92990000Y-90395000D03*
%TD*%
D10*
%TO.C,J4*%
X99400000Y-73570000D03*
D11*
X99400000Y-76110000D03*
X99400000Y-78650000D03*
X99400000Y-81190000D03*
X99400000Y-83730000D03*
X99400000Y-86270000D03*
X99400000Y-88810000D03*
X99400000Y-91350000D03*
%TD*%
D10*
%TO.C,J2*%
X128150000Y-71000000D03*
D11*
X128150000Y-73540000D03*
X128150000Y-76080000D03*
X128150000Y-78620000D03*
X128150000Y-81160000D03*
X128150000Y-83700000D03*
X128150000Y-86240000D03*
X128150000Y-88780000D03*
X128150000Y-91320000D03*
%TD*%
D10*
%TO.C,J3*%
X143585000Y-70930000D03*
D11*
X143585000Y-73470000D03*
X143585000Y-76010000D03*
X143585000Y-78550000D03*
X143585000Y-81090000D03*
X143585000Y-83630000D03*
X143585000Y-86170000D03*
X143585000Y-88710000D03*
X143585000Y-91250000D03*
%TD*%
D12*
%TO.C,J1*%
X92900000Y-73620000D03*
D13*
X92900000Y-76160000D03*
X92900000Y-78700000D03*
X92900000Y-81240000D03*
%TD*%
M02*
