M48
; DRILL file {KiCad 7.0.11-7.0.11~ubuntu22.04.1} date Fri 08 Nov 2024 10:36:41 PM -03
; FORMAT={-:-/ absolute / metric / decimal}
; #@! TF.CreationDate,2024-11-08T22:36:41-03:00
; #@! TF.GenerationSoftware,Kicad,Pcbnew,7.0.11-7.0.11~ubuntu22.04.1
; #@! TF.FileFunction,Plated,1,2,PTH
FMAT,2
METRIC
; #@! TA.AperFunction,Plated,PTH,ComponentDrill
T1C1.000
; #@! TA.AperFunction,Plated,PTH,ComponentDrill
T2C1.200
%
G90
G05
T1
X92.99Y-87.855
X92.99Y-90.395
X99.4Y-73.57
X99.4Y-76.11
X99.4Y-78.65
X99.4Y-81.19
X99.4Y-83.73
X99.4Y-86.27
X99.4Y-88.81
X99.4Y-91.35
X122.45Y-73.55
X122.45Y-76.09
X122.45Y-78.63
X122.45Y-81.17
X122.45Y-83.71
X122.45Y-86.25
X122.45Y-88.79
X122.45Y-91.33
X128.15Y-71.0
X128.15Y-73.54
X128.15Y-76.08
X128.15Y-78.62
X128.15Y-81.16
X128.15Y-83.7
X128.15Y-86.24
X128.15Y-88.78
X128.15Y-91.32
X143.585Y-70.93
X143.585Y-73.47
X143.585Y-76.01
X143.585Y-78.55
X143.585Y-81.09
X143.585Y-83.63
X143.585Y-86.17
X143.585Y-88.71
X143.585Y-91.25
T2
X92.9Y-73.62
X92.9Y-76.16
X92.9Y-78.7
X92.9Y-81.24
M30
