%TF.GenerationSoftware,KiCad,Pcbnew,7.0.11-7.0.11~ubuntu22.04.1*%
%TF.CreationDate,2024-11-08T22:36:37-03:00*%
%TF.ProjectId,esp32cam_board,65737033-3263-4616-9d5f-626f6172642e,rev?*%
%TF.SameCoordinates,Original*%
%TF.FileFunction,Copper,L2,Bot*%
%TF.FilePolarity,Positive*%
%FSLAX46Y46*%
G04 Gerber Fmt 4.6, Leading zero omitted, Abs format (unit mm)*
G04 Created by KiCad (PCBNEW 7.0.11-7.0.11~ubuntu22.04.1) date 2024-11-08 22:36:37*
%MOMM*%
%LPD*%
G01*
G04 APERTURE LIST*
G04 Aperture macros list*
%AMRoundRect*
0 Rectangle with rounded corners*
0 $1 Rounding radius*
0 $2 $3 $4 $5 $6 $7 $8 $9 X,Y pos of 4 corners*
0 Add a 4 corners polygon primitive as box body*
4,1,4,$2,$3,$4,$5,$6,$7,$8,$9,$2,$3,0*
0 Add four circle primitives for the rounded corners*
1,1,$1+$1,$2,$3*
1,1,$1+$1,$4,$5*
1,1,$1+$1,$6,$7*
1,1,$1+$1,$8,$9*
0 Add four rect primitives between the rounded corners*
20,1,$1+$1,$2,$3,$4,$5,0*
20,1,$1+$1,$4,$5,$6,$7,0*
20,1,$1+$1,$6,$7,$8,$9,0*
20,1,$1+$1,$8,$9,$2,$3,0*%
G04 Aperture macros list end*
%TA.AperFunction,ComponentPad*%
%ADD10R,1.700000X1.700000*%
%TD*%
%TA.AperFunction,ComponentPad*%
%ADD11O,1.700000X1.700000*%
%TD*%
%TA.AperFunction,ComponentPad*%
%ADD12RoundRect,0.250000X-0.845000X0.620000X-0.845000X-0.620000X0.845000X-0.620000X0.845000X0.620000X0*%
%TD*%
%TA.AperFunction,ComponentPad*%
%ADD13O,2.190000X1.740000*%
%TD*%
%TA.AperFunction,Conductor*%
%ADD14C,0.200000*%
%TD*%
%TA.AperFunction,Conductor*%
%ADD15C,1.300000*%
%TD*%
%TA.AperFunction,Conductor*%
%ADD16C,1.000000*%
%TD*%
%TA.AperFunction,Conductor*%
%ADD17C,1.750000*%
%TD*%
G04 APERTURE END LIST*
D10*
%TO.P,J5,1,Pin_1*%
%TO.N,unconnected-(J5-Pin_1-Pad1)*%
X122450000Y-73550000D03*
D11*
%TO.P,J5,2,Pin_2*%
%TO.N,unconnected-(J5-Pin_2-Pad2)*%
X122450000Y-76090000D03*
%TO.P,J5,3,Pin_3*%
%TO.N,Net-(J5-Pin_3)*%
X122450000Y-78630000D03*
%TO.P,J5,4,Pin_4*%
%TO.N,GND*%
X122450000Y-81170000D03*
%TO.P,J5,5,Pin_5*%
%TO.N,unconnected-(J5-Pin_5-Pad5)*%
X122450000Y-83710000D03*
%TO.P,J5,6,Pin_6*%
%TO.N,Net-(J3-Pin_9)*%
X122450000Y-86250000D03*
%TO.P,J5,7,Pin_7*%
%TO.N,Net-(J3-Pin_5)*%
X122450000Y-88790000D03*
%TO.P,J5,8,Pin_8*%
%TO.N,unconnected-(J5-Pin_8-Pad8)*%
X122450000Y-91330000D03*
%TD*%
D10*
%TO.P,J6,1,Pin_1*%
%TO.N,Net-(J5-Pin_3)*%
X92990000Y-87855000D03*
D11*
%TO.P,J6,2,Pin_2*%
%TO.N,GND*%
X92990000Y-90395000D03*
%TD*%
D10*
%TO.P,J4,1,Pin_1*%
%TO.N,Net-(J1-Pin_1)*%
X99400000Y-73570000D03*
D11*
%TO.P,J4,2,Pin_2*%
%TO.N,GND*%
X99400000Y-76110000D03*
%TO.P,J4,3,Pin_3*%
%TO.N,unconnected-(J4-Pin_3-Pad3)*%
X99400000Y-78650000D03*
%TO.P,J4,4,Pin_4*%
%TO.N,unconnected-(J4-Pin_4-Pad4)*%
X99400000Y-81190000D03*
%TO.P,J4,5,Pin_5*%
%TO.N,unconnected-(J4-Pin_5-Pad5)*%
X99400000Y-83730000D03*
%TO.P,J4,6,Pin_6*%
%TO.N,unconnected-(J4-Pin_6-Pad6)*%
X99400000Y-86270000D03*
%TO.P,J4,7,Pin_7*%
%TO.N,unconnected-(J4-Pin_7-Pad7)*%
X99400000Y-88810000D03*
%TO.P,J4,8,Pin_8*%
%TO.N,unconnected-(J4-Pin_8-Pad8)*%
X99400000Y-91350000D03*
%TD*%
D10*
%TO.P,J2,1,Pin_1*%
%TO.N,unconnected-(J2-Pin_1-Pad1)*%
X128150000Y-71000000D03*
D11*
%TO.P,J2,2,Pin_2*%
%TO.N,unconnected-(J2-Pin_2-Pad2)*%
X128150000Y-73540000D03*
%TO.P,J2,3,Pin_3*%
%TO.N,unconnected-(J2-Pin_3-Pad3)*%
X128150000Y-76080000D03*
%TO.P,J2,4,Pin_4*%
%TO.N,unconnected-(J2-Pin_4-Pad4)*%
X128150000Y-78620000D03*
%TO.P,J2,5,Pin_5*%
%TO.N,unconnected-(J2-Pin_5-Pad5)*%
X128150000Y-81160000D03*
%TO.P,J2,6,Pin_6*%
%TO.N,Net-(J1-Pin_1)*%
X128150000Y-83700000D03*
%TO.P,J2,7,Pin_7*%
%TO.N,unconnected-(J2-Pin_7-Pad7)*%
X128150000Y-86240000D03*
%TO.P,J2,8,Pin_8*%
%TO.N,unconnected-(J2-Pin_8-Pad8)*%
X128150000Y-88780000D03*
%TO.P,J2,9,Pin_9*%
%TO.N,GND*%
X128150000Y-91320000D03*
%TD*%
D10*
%TO.P,J3,1,Pin_1*%
%TO.N,unconnected-(J3-Pin_1-Pad1)*%
X143585000Y-70930000D03*
D11*
%TO.P,J3,2,Pin_2*%
%TO.N,unconnected-(J3-Pin_2-Pad2)*%
X143585000Y-73470000D03*
%TO.P,J3,3,Pin_3*%
%TO.N,unconnected-(J3-Pin_3-Pad3)*%
X143585000Y-76010000D03*
%TO.P,J3,4,Pin_4*%
%TO.N,unconnected-(J3-Pin_4-Pad4)*%
X143585000Y-78550000D03*
%TO.P,J3,5,Pin_5*%
%TO.N,Net-(J3-Pin_5)*%
X143585000Y-81090000D03*
%TO.P,J3,6,Pin_6*%
%TO.N,unconnected-(J3-Pin_6-Pad6)*%
X143585000Y-83630000D03*
%TO.P,J3,7,Pin_7*%
%TO.N,unconnected-(J3-Pin_7-Pad7)*%
X143585000Y-86170000D03*
%TO.P,J3,8,Pin_8*%
%TO.N,unconnected-(J3-Pin_8-Pad8)*%
X143585000Y-88710000D03*
%TO.P,J3,9,Pin_9*%
%TO.N,Net-(J3-Pin_9)*%
X143585000Y-91250000D03*
%TD*%
D12*
%TO.P,J1,1,Pin_1*%
%TO.N,Net-(J1-Pin_1)*%
X92900000Y-73620000D03*
D13*
%TO.P,J1,2,Pin_2*%
%TO.N,GND*%
X92900000Y-76160000D03*
%TO.P,J1,3,Pin_3*%
%TO.N,unconnected-(J1-Pin_3-Pad3)*%
X92900000Y-78700000D03*
%TO.P,J1,4,Pin_4*%
%TO.N,unconnected-(J1-Pin_4-Pad4)*%
X92900000Y-81240000D03*
%TD*%
D14*
%TO.N,Net-(J1-Pin_1)*%
X99433200Y-73685400D02*
X99583900Y-73534700D01*
D15*
X92900000Y-73620000D02*
X92950000Y-73570000D01*
X92950000Y-73570000D02*
X99400000Y-73570000D01*
D16*
X127366598Y-83700000D02*
X128150000Y-83700000D01*
D15*
X105360000Y-73570000D02*
X109220000Y-69710000D01*
X123820000Y-69710000D02*
X125280000Y-71170000D01*
X99400000Y-73570000D02*
X105360000Y-73570000D01*
X125280000Y-82830000D02*
X126150000Y-83700000D01*
D16*
X99350000Y-73620000D02*
X99400000Y-73570000D01*
D15*
X126150000Y-83700000D02*
X127366598Y-83700000D01*
X109220000Y-69710000D02*
X123820000Y-69710000D01*
X125280000Y-71170000D02*
X125280000Y-82830000D01*
D17*
%TO.N,GND*%
X99350000Y-76160000D02*
X99400000Y-76110000D01*
X128144700Y-91314700D02*
X128150000Y-91320000D01*
D14*
X99433200Y-76225400D02*
X99583900Y-76074700D01*
D15*
%TO.N,Net-(J3-Pin_5)*%
X127480000Y-95680000D02*
X142070000Y-81090000D01*
X120102692Y-88790000D02*
X119160000Y-89732692D01*
X119160000Y-89732692D02*
X119160000Y-93847308D01*
X122450000Y-88790000D02*
X120102692Y-88790000D01*
X120992692Y-95680000D02*
X127480000Y-95680000D01*
X142070000Y-81090000D02*
X143585000Y-81090000D01*
X119160000Y-93847308D02*
X120992692Y-95680000D01*
%TO.N,Net-(J3-Pin_9)*%
X116860000Y-94800000D02*
X116860000Y-88780000D01*
X143585000Y-91250000D02*
X135682158Y-91250000D01*
X119390000Y-86250000D02*
X122450000Y-86250000D01*
X120040000Y-97980000D02*
X116860000Y-94800000D01*
X116860000Y-88780000D02*
X119390000Y-86250000D01*
X135682158Y-91250000D02*
X128952158Y-97980000D01*
X128952158Y-97980000D02*
X120040000Y-97980000D01*
%TO.N,Net-(J5-Pin_3)*%
X120500000Y-78630000D02*
X122450000Y-78630000D01*
X96060000Y-89060000D02*
X96060000Y-92800000D01*
X98380000Y-95120000D02*
X104010000Y-95120000D01*
X104010000Y-95120000D02*
X120500000Y-78630000D01*
X92990000Y-87855000D02*
X94855000Y-87855000D01*
X96060000Y-92800000D02*
X98380000Y-95120000D01*
X94855000Y-87855000D02*
X96060000Y-89060000D01*
%TD*%
%TA.AperFunction,Conductor*%
%TO.N,GND*%
G36*
X145572539Y-66050185D02*
G01*
X145618294Y-66102989D01*
X145629500Y-66154500D01*
X145629500Y-69733562D01*
X145609815Y-69800601D01*
X145557011Y-69846356D01*
X145487853Y-69856300D01*
X145424297Y-69827275D01*
X145386523Y-69768497D01*
X145386284Y-69767674D01*
X145373361Y-69722510D01*
X145368909Y-69706951D01*
X145274698Y-69526593D01*
X145217394Y-69456315D01*
X145146109Y-69368890D01*
X144988409Y-69240304D01*
X144988410Y-69240304D01*
X144988407Y-69240302D01*
X144808049Y-69146091D01*
X144808048Y-69146090D01*
X144808045Y-69146089D01*
X144690829Y-69112550D01*
X144612418Y-69090114D01*
X144612415Y-69090113D01*
X144612413Y-69090113D01*
X144546102Y-69084217D01*
X144493037Y-69079500D01*
X144493032Y-69079500D01*
X142676971Y-69079500D01*
X142676965Y-69079500D01*
X142676964Y-69079501D01*
X142665316Y-69080536D01*
X142557584Y-69090113D01*
X142361954Y-69146089D01*
X142335107Y-69160113D01*
X142181593Y-69240302D01*
X142181591Y-69240303D01*
X142181590Y-69240304D01*
X142023890Y-69368890D01*
X141895304Y-69526590D01*
X141801089Y-69706954D01*
X141745114Y-69902583D01*
X141745113Y-69902586D01*
X141734500Y-70021966D01*
X141734500Y-71838028D01*
X141734501Y-71838034D01*
X141745113Y-71957415D01*
X141801089Y-72153045D01*
X141801090Y-72153047D01*
X141801091Y-72153049D01*
X141895302Y-72333407D01*
X141895304Y-72333409D01*
X141963551Y-72417108D01*
X141990660Y-72481505D01*
X141978651Y-72550334D01*
X141976282Y-72554895D01*
X141897426Y-72699309D01*
X141804921Y-72947326D01*
X141748658Y-73205965D01*
X141748657Y-73205972D01*
X141729773Y-73469998D01*
X141729773Y-73470001D01*
X141748657Y-73734027D01*
X141748658Y-73734034D01*
X141804921Y-73992673D01*
X141897426Y-74240690D01*
X141897428Y-74240694D01*
X142024280Y-74473005D01*
X142024285Y-74473013D01*
X142168520Y-74665690D01*
X142192937Y-74731155D01*
X142178085Y-74799427D01*
X142168520Y-74814310D01*
X142024285Y-75006986D01*
X142024280Y-75006994D01*
X141897428Y-75239305D01*
X141897426Y-75239309D01*
X141804921Y-75487326D01*
X141748658Y-75745965D01*
X141748657Y-75745972D01*
X141729773Y-76009998D01*
X141729773Y-76010001D01*
X141748657Y-76274027D01*
X141748658Y-76274034D01*
X141804921Y-76532673D01*
X141897426Y-76780690D01*
X141897428Y-76780694D01*
X142024280Y-77013005D01*
X142024284Y-77013011D01*
X142168520Y-77205690D01*
X142192937Y-77271155D01*
X142178085Y-77339427D01*
X142168520Y-77354310D01*
X142024285Y-77546986D01*
X142024280Y-77546994D01*
X141897428Y-77779305D01*
X141897426Y-77779309D01*
X141804921Y-78027326D01*
X141748658Y-78285965D01*
X141748657Y-78285972D01*
X141729773Y-78549998D01*
X141729773Y-78550001D01*
X141748657Y-78814027D01*
X141748658Y-78814034D01*
X141804921Y-79072673D01*
X141887286Y-79293502D01*
X141892270Y-79363193D01*
X141858785Y-79424516D01*
X141800052Y-79457408D01*
X141558390Y-79515427D01*
X141558388Y-79515427D01*
X141558387Y-79515428D01*
X141318376Y-79614843D01*
X141096859Y-79750588D01*
X140933630Y-79890000D01*
X140908861Y-79911155D01*
X140899310Y-79919312D01*
X140860222Y-79965076D01*
X140853615Y-79972223D01*
X129690661Y-91135177D01*
X129629338Y-91168662D01*
X129559646Y-91163678D01*
X129503713Y-91121806D01*
X129483205Y-91079589D01*
X129423433Y-90856516D01*
X129423429Y-90856507D01*
X129323600Y-90642422D01*
X129323599Y-90642420D01*
X129195230Y-90459090D01*
X129172903Y-90392884D01*
X129189913Y-90325117D01*
X129222489Y-90288705D01*
X129364915Y-90182087D01*
X129552087Y-89994915D01*
X129710716Y-89783011D01*
X129837574Y-89550689D01*
X129930077Y-89302678D01*
X129986343Y-89044026D01*
X130005227Y-88780000D01*
X129986343Y-88515974D01*
X129959653Y-88393280D01*
X129930078Y-88257326D01*
X129927153Y-88249485D01*
X129837574Y-88009311D01*
X129727097Y-87806989D01*
X129710719Y-87776994D01*
X129710714Y-87776986D01*
X129566479Y-87584310D01*
X129542062Y-87518846D01*
X129556914Y-87450573D01*
X129566479Y-87435690D01*
X129628263Y-87353155D01*
X129710716Y-87243011D01*
X129837574Y-87010689D01*
X129930077Y-86762678D01*
X129986343Y-86504026D01*
X130005227Y-86240000D01*
X129986343Y-85975974D01*
X129930077Y-85717322D01*
X129837574Y-85469311D01*
X129775484Y-85355603D01*
X129710719Y-85236994D01*
X129710714Y-85236986D01*
X129566479Y-85044310D01*
X129542062Y-84978846D01*
X129556914Y-84910573D01*
X129566479Y-84895690D01*
X129656943Y-84774843D01*
X129710716Y-84703011D01*
X129837574Y-84470689D01*
X129930077Y-84222678D01*
X129986343Y-83964026D01*
X130005227Y-83700000D01*
X129986343Y-83435974D01*
X129930077Y-83177322D01*
X129837574Y-82929311D01*
X129727097Y-82726989D01*
X129710719Y-82696994D01*
X129710714Y-82696986D01*
X129566479Y-82504310D01*
X129542062Y-82438846D01*
X129556914Y-82370573D01*
X129566479Y-82355690D01*
X129628263Y-82273155D01*
X129710716Y-82163011D01*
X129837574Y-81930689D01*
X129930077Y-81682678D01*
X129986343Y-81424026D01*
X130005227Y-81160000D01*
X129986343Y-80895974D01*
X129930077Y-80637322D01*
X129837574Y-80389311D01*
X129798402Y-80317574D01*
X129710719Y-80156994D01*
X129710714Y-80156986D01*
X129566479Y-79964310D01*
X129542062Y-79898846D01*
X129556914Y-79830573D01*
X129566479Y-79815690D01*
X129628263Y-79733155D01*
X129710716Y-79623011D01*
X129837574Y-79390689D01*
X129930077Y-79142678D01*
X129986343Y-78884026D01*
X130005227Y-78620000D01*
X129986343Y-78355974D01*
X129930077Y-78097322D01*
X129837574Y-77849311D01*
X129727097Y-77646989D01*
X129710719Y-77616994D01*
X129710714Y-77616986D01*
X129566479Y-77424310D01*
X129542062Y-77358846D01*
X129556914Y-77290573D01*
X129566479Y-77275690D01*
X129667083Y-77141298D01*
X129710716Y-77083011D01*
X129837574Y-76850689D01*
X129930077Y-76602678D01*
X129986343Y-76344026D01*
X130005227Y-76080000D01*
X129986343Y-75815974D01*
X129930077Y-75557322D01*
X129837574Y-75309311D01*
X129810481Y-75259695D01*
X129710719Y-75076994D01*
X129710714Y-75076986D01*
X129566479Y-74884310D01*
X129542062Y-74818846D01*
X129556914Y-74750573D01*
X129566479Y-74735690D01*
X129684959Y-74577418D01*
X129710716Y-74543011D01*
X129837574Y-74310689D01*
X129930077Y-74062678D01*
X129986343Y-73804026D01*
X130005227Y-73540000D01*
X129986343Y-73275974D01*
X129930077Y-73017322D01*
X129837574Y-72769311D01*
X129758717Y-72624896D01*
X129743865Y-72556624D01*
X129768282Y-72491159D01*
X129771426Y-72487134D01*
X129839698Y-72403407D01*
X129933909Y-72223049D01*
X129989886Y-72027418D01*
X130000500Y-71908037D01*
X130000499Y-70091964D01*
X129989886Y-69972582D01*
X129933909Y-69776951D01*
X129839698Y-69596593D01*
X129782618Y-69526590D01*
X129711109Y-69438890D01*
X129594147Y-69343521D01*
X129553407Y-69310302D01*
X129373049Y-69216091D01*
X129373048Y-69216090D01*
X129373045Y-69216089D01*
X129255829Y-69182550D01*
X129177418Y-69160114D01*
X129177415Y-69160113D01*
X129177413Y-69160113D01*
X129111102Y-69154217D01*
X129058037Y-69149500D01*
X129058032Y-69149500D01*
X127241971Y-69149500D01*
X127241965Y-69149500D01*
X127241964Y-69149501D01*
X127230316Y-69150536D01*
X127122584Y-69160113D01*
X126926954Y-69216089D01*
X126836772Y-69263196D01*
X126746593Y-69310302D01*
X126746591Y-69310303D01*
X126746590Y-69310304D01*
X126588890Y-69438890D01*
X126460304Y-69596590D01*
X126460302Y-69596593D01*
X126402655Y-69706954D01*
X126394529Y-69722510D01*
X126346042Y-69772817D01*
X126278054Y-69788924D01*
X126212151Y-69765717D01*
X126196939Y-69752779D01*
X125036385Y-68592225D01*
X125029776Y-68585076D01*
X124990689Y-68539311D01*
X124793140Y-68370588D01*
X124571628Y-68234846D01*
X124571627Y-68234845D01*
X124571623Y-68234843D01*
X124405627Y-68166086D01*
X124331610Y-68135427D01*
X124331611Y-68135427D01*
X124193921Y-68102370D01*
X124078994Y-68074779D01*
X124078992Y-68074778D01*
X124078991Y-68074778D01*
X123884853Y-68059500D01*
X123884853Y-68059499D01*
X123824730Y-68054768D01*
X123820000Y-68054396D01*
X123819999Y-68054396D01*
X123760000Y-68059118D01*
X123750272Y-68059500D01*
X109289728Y-68059500D01*
X109280000Y-68059118D01*
X109220000Y-68054396D01*
X109155146Y-68059499D01*
X109155147Y-68059500D01*
X108961009Y-68074778D01*
X108708394Y-68135425D01*
X108538671Y-68205727D01*
X108538670Y-68205727D01*
X108468373Y-68234844D01*
X108468371Y-68234845D01*
X108297059Y-68339826D01*
X108258409Y-68363511D01*
X108253875Y-68366288D01*
X108246856Y-68370589D01*
X108049311Y-68539311D01*
X108049303Y-68539318D01*
X108010217Y-68585082D01*
X108003609Y-68592230D01*
X104712659Y-71883181D01*
X104651336Y-71916666D01*
X104624978Y-71919500D01*
X100895626Y-71919500D01*
X100828587Y-71899815D01*
X100817265Y-71891602D01*
X100806937Y-71883181D01*
X100803407Y-71880302D01*
X100623049Y-71786091D01*
X100623048Y-71786090D01*
X100623045Y-71786089D01*
X100505829Y-71752550D01*
X100427418Y-71730114D01*
X100427415Y-71730113D01*
X100427413Y-71730113D01*
X100361102Y-71724217D01*
X100308037Y-71719500D01*
X100308032Y-71719500D01*
X98491971Y-71719500D01*
X98491965Y-71719500D01*
X98491964Y-71719501D01*
X98480316Y-71720536D01*
X98372584Y-71730113D01*
X98176954Y-71786089D01*
X98121795Y-71814902D01*
X97996593Y-71880302D01*
X97996591Y-71880303D01*
X97996590Y-71880304D01*
X97982735Y-71891602D01*
X97918339Y-71918711D01*
X97904374Y-71919500D01*
X94416802Y-71919500D01*
X94365521Y-71908399D01*
X94159681Y-71814903D01*
X94159678Y-71814902D01*
X93941420Y-71759905D01*
X93941413Y-71759904D01*
X93897347Y-71756436D01*
X93809217Y-71749500D01*
X93809215Y-71749500D01*
X91990791Y-71749500D01*
X91990776Y-71749501D01*
X91858586Y-71759904D01*
X91858579Y-71759905D01*
X91640321Y-71814902D01*
X91640318Y-71814903D01*
X91435377Y-71907991D01*
X91435367Y-71907997D01*
X91250354Y-72036174D01*
X91250342Y-72036184D01*
X91091184Y-72195342D01*
X91091174Y-72195354D01*
X90962997Y-72380367D01*
X90962991Y-72380377D01*
X90869903Y-72585318D01*
X90869902Y-72585321D01*
X90814905Y-72803579D01*
X90814904Y-72803586D01*
X90804500Y-72935777D01*
X90804500Y-74304208D01*
X90804501Y-74304223D01*
X90814904Y-74436413D01*
X90814905Y-74436420D01*
X90869902Y-74654678D01*
X90869903Y-74654681D01*
X90962991Y-74859622D01*
X90962997Y-74859632D01*
X91091174Y-75044645D01*
X91091178Y-75044650D01*
X91091181Y-75044654D01*
X91250346Y-75203819D01*
X91250350Y-75203822D01*
X91250354Y-75203825D01*
X91437719Y-75333632D01*
X91481616Y-75387990D01*
X91489155Y-75457452D01*
X91477826Y-75491385D01*
X91399196Y-75647338D01*
X91330906Y-75870329D01*
X91325826Y-75909999D01*
X91325827Y-75910000D01*
X92354118Y-75910000D01*
X92315444Y-76003369D01*
X92294823Y-76160000D01*
X92315444Y-76316631D01*
X92354118Y-76410000D01*
X91327424Y-76410000D01*
X91360316Y-76562619D01*
X91360316Y-76562620D01*
X91447267Y-76779005D01*
X91569541Y-76977592D01*
X91593676Y-77005015D01*
X91623190Y-77068345D01*
X91613780Y-77137578D01*
X91576378Y-77185083D01*
X91423442Y-77303177D01*
X91233403Y-77500287D01*
X91233396Y-77500295D01*
X91074089Y-77722966D01*
X91074082Y-77722977D01*
X90948891Y-77966476D01*
X90948886Y-77966486D01*
X90860483Y-78225613D01*
X90860480Y-78225627D01*
X90810747Y-78494876D01*
X90810747Y-78494878D01*
X90800747Y-78768495D01*
X90830695Y-79040656D01*
X90830696Y-79040666D01*
X90899947Y-79305557D01*
X90899949Y-79305563D01*
X91007036Y-79557559D01*
X91149673Y-79791278D01*
X91185988Y-79834915D01*
X91229244Y-79886893D01*
X91256996Y-79951015D01*
X91245676Y-80019961D01*
X91234779Y-80038362D01*
X91074089Y-80262966D01*
X91074082Y-80262977D01*
X90948891Y-80506476D01*
X90948886Y-80506486D01*
X90860483Y-80765613D01*
X90860480Y-80765627D01*
X90810747Y-81034876D01*
X90810747Y-81034878D01*
X90800747Y-81308495D01*
X90830695Y-81580656D01*
X90830696Y-81580666D01*
X90865655Y-81714386D01*
X90899949Y-81845563D01*
X91007036Y-82097559D01*
X91121851Y-82285690D01*
X91149670Y-82331273D01*
X91149677Y-82331283D01*
X91324817Y-82541736D01*
X91324823Y-82541742D01*
X91419970Y-82626994D01*
X91528742Y-82724454D01*
X91757095Y-82875531D01*
X92005012Y-82991750D01*
X92267209Y-83070633D01*
X92538097Y-83110500D01*
X92538102Y-83110500D01*
X93193353Y-83110500D01*
X93193354Y-83110500D01*
X93193356Y-83110499D01*
X93193372Y-83110499D01*
X93240101Y-83107078D01*
X93398075Y-83095516D01*
X93665331Y-83035983D01*
X93921070Y-82938171D01*
X94159842Y-82804165D01*
X94376558Y-82636822D01*
X94566600Y-82439709D01*
X94725916Y-82217025D01*
X94851112Y-81973518D01*
X94939519Y-81714377D01*
X94989252Y-81445126D01*
X94999252Y-81171503D01*
X94969305Y-80899340D01*
X94900051Y-80634437D01*
X94792964Y-80382441D01*
X94650327Y-80148722D01*
X94598950Y-80086986D01*
X94570756Y-80053107D01*
X94543003Y-79988986D01*
X94554322Y-79920039D01*
X94565220Y-79901638D01*
X94644175Y-79791278D01*
X94725916Y-79677025D01*
X94851112Y-79433518D01*
X94939519Y-79174377D01*
X94989252Y-78905126D01*
X94999252Y-78631503D01*
X94969305Y-78359340D01*
X94900051Y-78094437D01*
X94792964Y-77842441D01*
X94650327Y-77608722D01*
X94564077Y-77505082D01*
X94475182Y-77398263D01*
X94475176Y-77398257D01*
X94271258Y-77215546D01*
X94230532Y-77188602D01*
X94185482Y-77135194D01*
X94176458Y-77065910D01*
X94199256Y-77011451D01*
X94295810Y-76880902D01*
X94400803Y-76672661D01*
X94469093Y-76449670D01*
X94474173Y-76410000D01*
X93445882Y-76410000D01*
X93484556Y-76316631D01*
X93505177Y-76160000D01*
X93484556Y-76003369D01*
X93445882Y-75910000D01*
X94472576Y-75910000D01*
X94472575Y-75909999D01*
X94439683Y-75757380D01*
X94439683Y-75757379D01*
X94352731Y-75540991D01*
X94327684Y-75500311D01*
X94309297Y-75432904D01*
X94330272Y-75366257D01*
X94362658Y-75333370D01*
X94364624Y-75332007D01*
X94364626Y-75332007D01*
X94493717Y-75242571D01*
X94560033Y-75220575D01*
X94564333Y-75220500D01*
X97904374Y-75220500D01*
X97971413Y-75240185D01*
X97982730Y-75248394D01*
X97996593Y-75259698D01*
X98141089Y-75335176D01*
X98191395Y-75383662D01*
X98207502Y-75451650D01*
X98196058Y-75497488D01*
X98126571Y-75646502D01*
X98126567Y-75646513D01*
X98069364Y-75859999D01*
X98069364Y-75860000D01*
X98966314Y-75860000D01*
X98940507Y-75900156D01*
X98900000Y-76038111D01*
X98900000Y-76181889D01*
X98940507Y-76319844D01*
X98966314Y-76360000D01*
X98069364Y-76360000D01*
X98126567Y-76573486D01*
X98126570Y-76573492D01*
X98226399Y-76787578D01*
X98354769Y-76970907D01*
X98377096Y-77037113D01*
X98360086Y-77104881D01*
X98327505Y-77141298D01*
X98185086Y-77247912D01*
X98185074Y-77247922D01*
X97997922Y-77435074D01*
X97997906Y-77435092D01*
X97839285Y-77646986D01*
X97839280Y-77646994D01*
X97712428Y-77879305D01*
X97712426Y-77879309D01*
X97619921Y-78127326D01*
X97563658Y-78385965D01*
X97563657Y-78385972D01*
X97544773Y-78649998D01*
X97544773Y-78650001D01*
X97563657Y-78914027D01*
X97563658Y-78914034D01*
X97619921Y-79172673D01*
X97712426Y-79420690D01*
X97712428Y-79420694D01*
X97839280Y-79653005D01*
X97839285Y-79653013D01*
X97983520Y-79845690D01*
X98007937Y-79911155D01*
X97993085Y-79979427D01*
X97983520Y-79994310D01*
X97839285Y-80186986D01*
X97839280Y-80186994D01*
X97712428Y-80419305D01*
X97712426Y-80419309D01*
X97619921Y-80667326D01*
X97563658Y-80925965D01*
X97563657Y-80925972D01*
X97544773Y-81189998D01*
X97544773Y-81190001D01*
X97563657Y-81454027D01*
X97563658Y-81454034D01*
X97619921Y-81712673D01*
X97712426Y-81960690D01*
X97712428Y-81960694D01*
X97839280Y-82193005D01*
X97839285Y-82193013D01*
X97983520Y-82385690D01*
X98007937Y-82451155D01*
X97993085Y-82519427D01*
X97983520Y-82534310D01*
X97839285Y-82726986D01*
X97839280Y-82726994D01*
X97712428Y-82959305D01*
X97712426Y-82959309D01*
X97619921Y-83207326D01*
X97563658Y-83465965D01*
X97563657Y-83465972D01*
X97544773Y-83729998D01*
X97544773Y-83730001D01*
X97563657Y-83994027D01*
X97563658Y-83994034D01*
X97619921Y-84252673D01*
X97712426Y-84500690D01*
X97712428Y-84500694D01*
X97839280Y-84733005D01*
X97839285Y-84733013D01*
X97983520Y-84925690D01*
X98007937Y-84991155D01*
X97993085Y-85059427D01*
X97983520Y-85074310D01*
X97839285Y-85266986D01*
X97839280Y-85266994D01*
X97712428Y-85499305D01*
X97712426Y-85499309D01*
X97619921Y-85747326D01*
X97563658Y-86005965D01*
X97563657Y-86005972D01*
X97544773Y-86269998D01*
X97544773Y-86270001D01*
X97563657Y-86534027D01*
X97563658Y-86534034D01*
X97619921Y-86792673D01*
X97712426Y-87040690D01*
X97712428Y-87040694D01*
X97839280Y-87273005D01*
X97839285Y-87273013D01*
X97983520Y-87465690D01*
X98007937Y-87531155D01*
X97993085Y-87599427D01*
X97983520Y-87614310D01*
X97839285Y-87806986D01*
X97839280Y-87806994D01*
X97712428Y-88039305D01*
X97671906Y-88147950D01*
X97630034Y-88203883D01*
X97564570Y-88228300D01*
X97496297Y-88213448D01*
X97449997Y-88169406D01*
X97399415Y-88086865D01*
X97399414Y-88086862D01*
X97357999Y-88038372D01*
X97341714Y-88019305D01*
X97230689Y-87889311D01*
X97184916Y-87850217D01*
X97177767Y-87843608D01*
X96071385Y-86737225D01*
X96064776Y-86730076D01*
X96025689Y-86684311D01*
X95828140Y-86515588D01*
X95606628Y-86379846D01*
X95606627Y-86379845D01*
X95606623Y-86379843D01*
X95440627Y-86311086D01*
X95366610Y-86280427D01*
X95366611Y-86280427D01*
X95198212Y-86239998D01*
X95113994Y-86219779D01*
X95113992Y-86219778D01*
X95113991Y-86219778D01*
X94919853Y-86204500D01*
X94919853Y-86204499D01*
X94859730Y-86199768D01*
X94855000Y-86199396D01*
X94854999Y-86199396D01*
X94795000Y-86204118D01*
X94785272Y-86204500D01*
X94485626Y-86204500D01*
X94418587Y-86184815D01*
X94407265Y-86176602D01*
X94399169Y-86170001D01*
X94393407Y-86165302D01*
X94213049Y-86071091D01*
X94213048Y-86071090D01*
X94213045Y-86071089D01*
X94095829Y-86037550D01*
X94017418Y-86015114D01*
X94017415Y-86015113D01*
X94017413Y-86015113D01*
X93951102Y-86009217D01*
X93898037Y-86004500D01*
X93898032Y-86004500D01*
X92081971Y-86004500D01*
X92081965Y-86004500D01*
X92081964Y-86004501D01*
X92070316Y-86005536D01*
X91962584Y-86015113D01*
X91766954Y-86071089D01*
X91676772Y-86118196D01*
X91586593Y-86165302D01*
X91586591Y-86165303D01*
X91586590Y-86165304D01*
X91428890Y-86293890D01*
X91314625Y-86434027D01*
X91300302Y-86451593D01*
X91253196Y-86541772D01*
X91206089Y-86631954D01*
X91150114Y-86827583D01*
X91150113Y-86827586D01*
X91142607Y-86912016D01*
X91140058Y-86940694D01*
X91139500Y-86946966D01*
X91139500Y-88763028D01*
X91139501Y-88763034D01*
X91150113Y-88882415D01*
X91206089Y-89078045D01*
X91206090Y-89078048D01*
X91206091Y-89078049D01*
X91300302Y-89258407D01*
X91300304Y-89258409D01*
X91428890Y-89416109D01*
X91448583Y-89432166D01*
X91586593Y-89544698D01*
X91731089Y-89620176D01*
X91781395Y-89668662D01*
X91797502Y-89736650D01*
X91786058Y-89782488D01*
X91716571Y-89931502D01*
X91716567Y-89931513D01*
X91659364Y-90144999D01*
X91659364Y-90145000D01*
X92556314Y-90145000D01*
X92530507Y-90185156D01*
X92490000Y-90323111D01*
X92490000Y-90466889D01*
X92530507Y-90604844D01*
X92556314Y-90645000D01*
X91659364Y-90645000D01*
X91716567Y-90858486D01*
X91716570Y-90858492D01*
X91816399Y-91072578D01*
X91951894Y-91266082D01*
X92118917Y-91433105D01*
X92312421Y-91568600D01*
X92526507Y-91668429D01*
X92526516Y-91668433D01*
X92740000Y-91725634D01*
X92740000Y-90830501D01*
X92847685Y-90879680D01*
X92954237Y-90895000D01*
X93025763Y-90895000D01*
X93132315Y-90879680D01*
X93240000Y-90830501D01*
X93240000Y-91725633D01*
X93453483Y-91668433D01*
X93453492Y-91668429D01*
X93667578Y-91568600D01*
X93861082Y-91433105D01*
X94028105Y-91266082D01*
X94163600Y-91072578D01*
X94173118Y-91052167D01*
X94219290Y-90999728D01*
X94286484Y-90980576D01*
X94353365Y-91000792D01*
X94398700Y-91053957D01*
X94409500Y-91104572D01*
X94409500Y-92730271D01*
X94409118Y-92739999D01*
X94404396Y-92799999D01*
X94409500Y-92864853D01*
X94424778Y-93058990D01*
X94485427Y-93311610D01*
X94584843Y-93551623D01*
X94584845Y-93551627D01*
X94584846Y-93551628D01*
X94720588Y-93773140D01*
X94889311Y-93970689D01*
X94915646Y-93993181D01*
X94935076Y-94009776D01*
X94942225Y-94016385D01*
X97163608Y-96237767D01*
X97170217Y-96244916D01*
X97209311Y-96290689D01*
X97343652Y-96405427D01*
X97343651Y-96405427D01*
X97406856Y-96459409D01*
X97406860Y-96459412D01*
X97628371Y-96595154D01*
X97698671Y-96624272D01*
X97698673Y-96624273D01*
X97723525Y-96634567D01*
X97868390Y-96694573D01*
X98121006Y-96755221D01*
X98380000Y-96775604D01*
X98436404Y-96771164D01*
X98440000Y-96770882D01*
X98449728Y-96770500D01*
X103940272Y-96770500D01*
X103950000Y-96770882D01*
X103953882Y-96771187D01*
X104010000Y-96775604D01*
X104074853Y-96770500D01*
X104268994Y-96755221D01*
X104521610Y-96694573D01*
X104761628Y-96595154D01*
X104983140Y-96459412D01*
X105180689Y-96290689D01*
X105219782Y-96244916D01*
X105226373Y-96237785D01*
X121045333Y-80418825D01*
X121106654Y-80385342D01*
X121176346Y-80390326D01*
X121232279Y-80432198D01*
X121256696Y-80497662D01*
X121245394Y-80558912D01*
X121176571Y-80706502D01*
X121176567Y-80706513D01*
X121119364Y-80919999D01*
X121119364Y-80920000D01*
X122016314Y-80920000D01*
X121990507Y-80960156D01*
X121950000Y-81098111D01*
X121950000Y-81241889D01*
X121990507Y-81379844D01*
X122016314Y-81420000D01*
X121119364Y-81420000D01*
X121176567Y-81633486D01*
X121176570Y-81633492D01*
X121276399Y-81847578D01*
X121404769Y-82030907D01*
X121427096Y-82097113D01*
X121410086Y-82164881D01*
X121377505Y-82201298D01*
X121235086Y-82307912D01*
X121235074Y-82307922D01*
X121047922Y-82495074D01*
X121047906Y-82495092D01*
X120889285Y-82706986D01*
X120889280Y-82706994D01*
X120762428Y-82939305D01*
X120762426Y-82939309D01*
X120669921Y-83187326D01*
X120613658Y-83445965D01*
X120613657Y-83445972D01*
X120594773Y-83709998D01*
X120594773Y-83710001D01*
X120613657Y-83974027D01*
X120613658Y-83974034D01*
X120669921Y-84232670D01*
X120669923Y-84232678D01*
X120744329Y-84432169D01*
X120749313Y-84501858D01*
X120715828Y-84563181D01*
X120654505Y-84596666D01*
X120628147Y-84599500D01*
X119459728Y-84599500D01*
X119450000Y-84599118D01*
X119390000Y-84594396D01*
X119325146Y-84599499D01*
X119325147Y-84599500D01*
X119131009Y-84614778D01*
X118878389Y-84675427D01*
X118723705Y-84739500D01*
X118723704Y-84739500D01*
X118638377Y-84774843D01*
X118638364Y-84774849D01*
X118453454Y-84888163D01*
X118453453Y-84888164D01*
X118416862Y-84910586D01*
X118342251Y-84974310D01*
X118225167Y-85074310D01*
X118219310Y-85079312D01*
X118180222Y-85125076D01*
X118173615Y-85132223D01*
X115742223Y-87563615D01*
X115735076Y-87570222D01*
X115706874Y-87594310D01*
X115689311Y-87609311D01*
X115664692Y-87638136D01*
X115520588Y-87806859D01*
X115384843Y-88028376D01*
X115285428Y-88268387D01*
X115285424Y-88268399D01*
X115255444Y-88393279D01*
X115224779Y-88521003D01*
X115204396Y-88780000D01*
X115209118Y-88839998D01*
X115209500Y-88849727D01*
X115209500Y-94730271D01*
X115209118Y-94739999D01*
X115204396Y-94799999D01*
X115209500Y-94864853D01*
X115224778Y-95058990D01*
X115285427Y-95311610D01*
X115384843Y-95551623D01*
X115384845Y-95551627D01*
X115384846Y-95551628D01*
X115520588Y-95773140D01*
X115689311Y-95970689D01*
X115735076Y-96009776D01*
X115742225Y-96016385D01*
X118823613Y-99097773D01*
X118830222Y-99104922D01*
X118869311Y-99150689D01*
X118916926Y-99191356D01*
X118916940Y-99191369D01*
X119066856Y-99319409D01*
X119066860Y-99319412D01*
X119288372Y-99455154D01*
X119288374Y-99455154D01*
X119288376Y-99455156D01*
X119349693Y-99480554D01*
X119528390Y-99554573D01*
X119781006Y-99615221D01*
X120040000Y-99635604D01*
X120096404Y-99631164D01*
X120100000Y-99630882D01*
X120109728Y-99630500D01*
X128882430Y-99630500D01*
X128892158Y-99630882D01*
X128896040Y-99631187D01*
X128952158Y-99635604D01*
X129017011Y-99630500D01*
X129211152Y-99615221D01*
X129463768Y-99554573D01*
X129703786Y-99455154D01*
X129925298Y-99319412D01*
X130075232Y-99191356D01*
X130122845Y-99150691D01*
X130122847Y-99150689D01*
X130161933Y-99104924D01*
X130168531Y-99097785D01*
X136329499Y-92936819D01*
X136390822Y-92903334D01*
X136417180Y-92900500D01*
X142714766Y-92900500D01*
X142774192Y-92915667D01*
X142814311Y-92937574D01*
X143062322Y-93030077D01*
X143062325Y-93030077D01*
X143062326Y-93030078D01*
X143195252Y-93058994D01*
X143320974Y-93086343D01*
X143564660Y-93103772D01*
X143584999Y-93105227D01*
X143585000Y-93105227D01*
X143585001Y-93105227D01*
X143603885Y-93103876D01*
X143849026Y-93086343D01*
X144107678Y-93030077D01*
X144355689Y-92937574D01*
X144588011Y-92810716D01*
X144799915Y-92652087D01*
X144987087Y-92464915D01*
X145145716Y-92253011D01*
X145272574Y-92020689D01*
X145365077Y-91772678D01*
X145384334Y-91684156D01*
X145417819Y-91622833D01*
X145479142Y-91589348D01*
X145548833Y-91594332D01*
X145604767Y-91636204D01*
X145629184Y-91701668D01*
X145629500Y-91710514D01*
X145629500Y-97452851D01*
X145609815Y-97519890D01*
X145557011Y-97565645D01*
X145487853Y-97575589D01*
X145424297Y-97546564D01*
X145404196Y-97524359D01*
X145302067Y-97379676D01*
X145101256Y-97164661D01*
X144873045Y-96978998D01*
X144621680Y-96826139D01*
X144621675Y-96826137D01*
X144351845Y-96708934D01*
X144068560Y-96629561D01*
X144068556Y-96629560D01*
X144068555Y-96629560D01*
X143922826Y-96609530D01*
X143777099Y-96589500D01*
X143777098Y-96589500D01*
X143482902Y-96589500D01*
X143482901Y-96589500D01*
X143191445Y-96629560D01*
X143191439Y-96629561D01*
X142908154Y-96708934D01*
X142638324Y-96826137D01*
X142638319Y-96826139D01*
X142386954Y-96978998D01*
X142158743Y-97164661D01*
X141957932Y-97379676D01*
X141788282Y-97620016D01*
X141788278Y-97620022D01*
X141652927Y-97881237D01*
X141554409Y-98158440D01*
X141554404Y-98158456D01*
X141494552Y-98446486D01*
X141494551Y-98446488D01*
X141474475Y-98740000D01*
X141494551Y-99033511D01*
X141494552Y-99033513D01*
X141554404Y-99321543D01*
X141554409Y-99321559D01*
X141652927Y-99598762D01*
X141788278Y-99859977D01*
X141788282Y-99859983D01*
X141957932Y-100100323D01*
X142158743Y-100315338D01*
X142286384Y-100419181D01*
X142386951Y-100500999D01*
X142386953Y-100501000D01*
X142386954Y-100501001D01*
X142483237Y-100559552D01*
X142530289Y-100611203D01*
X142541947Y-100680094D01*
X142514510Y-100744350D01*
X142456688Y-100783573D01*
X142418809Y-100789500D01*
X89504500Y-100789500D01*
X89437461Y-100769815D01*
X89391706Y-100717011D01*
X89380500Y-100665500D01*
X89380500Y-69456315D01*
X89400185Y-69389276D01*
X89452989Y-69343521D01*
X89522147Y-69333577D01*
X89585703Y-69362602D01*
X89605805Y-69384808D01*
X89637933Y-69430325D01*
X89838743Y-69645338D01*
X89947185Y-69733562D01*
X90066951Y-69830999D01*
X90066953Y-69831000D01*
X90066954Y-69831001D01*
X90318319Y-69983860D01*
X90318324Y-69983862D01*
X90588154Y-70101065D01*
X90588159Y-70101067D01*
X90871445Y-70180440D01*
X91127681Y-70215659D01*
X91162901Y-70220500D01*
X91162902Y-70220500D01*
X91457099Y-70220500D01*
X91488520Y-70216180D01*
X91748555Y-70180440D01*
X92031841Y-70101067D01*
X92301682Y-69983859D01*
X92553049Y-69830999D01*
X92781260Y-69645335D01*
X92982065Y-69430326D01*
X93151722Y-69189976D01*
X93287072Y-68928764D01*
X93385592Y-68651554D01*
X93385592Y-68651549D01*
X93385595Y-68651543D01*
X93445448Y-68363510D01*
X93454249Y-68234843D01*
X93465525Y-68070000D01*
X93445448Y-67776489D01*
X93420151Y-67654753D01*
X93385595Y-67488456D01*
X93385590Y-67488440D01*
X93287072Y-67211237D01*
X93287072Y-67211236D01*
X93151722Y-66950024D01*
X93151721Y-66950022D01*
X93151717Y-66950016D01*
X92982067Y-66709676D01*
X92781256Y-66494661D01*
X92553048Y-66309000D01*
X92473207Y-66260448D01*
X92426155Y-66208796D01*
X92414498Y-66139906D01*
X92441936Y-66075649D01*
X92499758Y-66036427D01*
X92537636Y-66030500D01*
X145505500Y-66030500D01*
X145572539Y-66050185D01*
G37*
%TD.AperFunction*%
%TA.AperFunction,Conductor*%
G36*
X124370433Y-84261696D02*
G01*
X124398687Y-84282847D01*
X124933613Y-84817773D01*
X124940222Y-84824922D01*
X124979311Y-84870689D01*
X125176860Y-85039412D01*
X125398372Y-85175154D01*
X125398374Y-85175154D01*
X125398376Y-85175156D01*
X125459693Y-85200554D01*
X125638390Y-85274573D01*
X125891006Y-85335221D01*
X126085147Y-85350500D01*
X126085146Y-85350500D01*
X126089877Y-85350872D01*
X126150000Y-85355604D01*
X126206404Y-85351164D01*
X126210000Y-85350882D01*
X126219728Y-85350500D01*
X126328147Y-85350500D01*
X126395186Y-85370185D01*
X126440941Y-85422989D01*
X126450885Y-85492147D01*
X126444331Y-85517824D01*
X126369923Y-85717322D01*
X126369922Y-85717325D01*
X126369921Y-85717329D01*
X126313658Y-85975965D01*
X126313657Y-85975972D01*
X126294773Y-86239998D01*
X126294773Y-86240001D01*
X126313657Y-86504027D01*
X126313658Y-86504034D01*
X126369921Y-86762673D01*
X126462426Y-87010690D01*
X126462428Y-87010694D01*
X126589280Y-87243005D01*
X126589285Y-87243013D01*
X126733520Y-87435690D01*
X126757937Y-87501155D01*
X126743085Y-87569427D01*
X126733520Y-87584310D01*
X126589285Y-87776986D01*
X126589280Y-87776994D01*
X126462428Y-88009305D01*
X126462426Y-88009309D01*
X126369921Y-88257326D01*
X126313658Y-88515965D01*
X126313657Y-88515972D01*
X126294773Y-88779998D01*
X126294773Y-88780001D01*
X126313657Y-89044027D01*
X126313658Y-89044034D01*
X126369921Y-89302673D01*
X126462426Y-89550690D01*
X126462428Y-89550694D01*
X126589280Y-89783005D01*
X126589285Y-89783013D01*
X126747906Y-89994907D01*
X126747922Y-89994925D01*
X126935074Y-90182077D01*
X126935092Y-90182093D01*
X127004626Y-90234145D01*
X127077502Y-90288699D01*
X127077504Y-90288700D01*
X127119376Y-90344633D01*
X127124360Y-90414325D01*
X127104769Y-90459090D01*
X126976400Y-90642420D01*
X126976399Y-90642422D01*
X126876570Y-90856507D01*
X126876567Y-90856513D01*
X126819364Y-91069999D01*
X126819364Y-91070000D01*
X127716314Y-91070000D01*
X127690507Y-91110156D01*
X127650000Y-91248111D01*
X127650000Y-91391889D01*
X127690507Y-91529844D01*
X127716314Y-91570000D01*
X126819364Y-91570000D01*
X126876567Y-91783486D01*
X126876570Y-91783492D01*
X126976399Y-91997578D01*
X127111894Y-92191082D01*
X127278917Y-92358105D01*
X127472421Y-92493600D01*
X127686507Y-92593429D01*
X127686516Y-92593433D01*
X127909589Y-92653205D01*
X127969250Y-92689570D01*
X127999779Y-92752417D01*
X127991484Y-92821792D01*
X127965177Y-92860661D01*
X126832659Y-93993181D01*
X126771336Y-94026666D01*
X126744978Y-94029500D01*
X121727714Y-94029500D01*
X121660675Y-94009815D01*
X121640033Y-93993181D01*
X120846819Y-93199967D01*
X120813334Y-93138644D01*
X120810500Y-93112286D01*
X120810500Y-92600328D01*
X120830185Y-92533289D01*
X120882989Y-92487534D01*
X120952147Y-92477590D01*
X121015703Y-92506615D01*
X121033768Y-92526019D01*
X121047909Y-92544910D01*
X121047922Y-92544925D01*
X121235074Y-92732077D01*
X121235092Y-92732093D01*
X121446986Y-92890714D01*
X121446994Y-92890719D01*
X121679305Y-93017571D01*
X121679309Y-93017573D01*
X121679311Y-93017574D01*
X121927322Y-93110077D01*
X121927325Y-93110077D01*
X121927326Y-93110078D01*
X122058643Y-93138644D01*
X122185974Y-93166343D01*
X122429660Y-93183772D01*
X122449999Y-93185227D01*
X122450000Y-93185227D01*
X122450001Y-93185227D01*
X122468885Y-93183876D01*
X122714026Y-93166343D01*
X122972678Y-93110077D01*
X123220689Y-93017574D01*
X123453011Y-92890716D01*
X123664915Y-92732087D01*
X123852087Y-92544915D01*
X124010716Y-92333011D01*
X124137574Y-92100689D01*
X124230077Y-91852678D01*
X124286343Y-91594026D01*
X124305227Y-91330000D01*
X124286343Y-91065974D01*
X124246583Y-90883198D01*
X124230078Y-90807326D01*
X124200238Y-90727322D01*
X124137574Y-90559311D01*
X124093890Y-90479311D01*
X124010719Y-90326994D01*
X124010714Y-90326986D01*
X123866479Y-90134310D01*
X123842062Y-90068846D01*
X123856914Y-90000573D01*
X123866479Y-89985690D01*
X123937514Y-89890798D01*
X124010716Y-89793011D01*
X124137574Y-89560689D01*
X124230077Y-89312678D01*
X124286343Y-89054026D01*
X124305227Y-88790000D01*
X124286343Y-88525974D01*
X124234428Y-88287322D01*
X124230078Y-88267326D01*
X124226348Y-88257326D01*
X124137574Y-88019311D01*
X124132112Y-88009309D01*
X124010719Y-87786994D01*
X124010714Y-87786986D01*
X123866479Y-87594310D01*
X123842062Y-87528846D01*
X123856914Y-87460573D01*
X123866479Y-87445690D01*
X123928263Y-87363155D01*
X124010716Y-87253011D01*
X124137574Y-87020689D01*
X124230077Y-86772678D01*
X124286343Y-86514026D01*
X124305227Y-86250000D01*
X124303065Y-86219779D01*
X124299169Y-86165302D01*
X124286343Y-85985974D01*
X124234428Y-85747322D01*
X124230078Y-85727326D01*
X124226349Y-85717329D01*
X124137574Y-85479311D01*
X124132112Y-85469309D01*
X124010719Y-85246994D01*
X124010714Y-85246986D01*
X123866479Y-85054310D01*
X123842062Y-84988846D01*
X123856914Y-84920573D01*
X123866479Y-84905690D01*
X123964429Y-84774843D01*
X124010716Y-84713011D01*
X124137574Y-84480689D01*
X124194824Y-84327194D01*
X124236695Y-84271261D01*
X124302160Y-84246844D01*
X124370433Y-84261696D01*
G37*
%TD.AperFunction*%
%TA.AperFunction,Conductor*%
G36*
X123152017Y-71380185D02*
G01*
X123172659Y-71396819D01*
X123263659Y-71487819D01*
X123297144Y-71549142D01*
X123292160Y-71618834D01*
X123250288Y-71674767D01*
X123184824Y-71699184D01*
X123175978Y-71699500D01*
X121541971Y-71699500D01*
X121541965Y-71699500D01*
X121541964Y-71699501D01*
X121530316Y-71700536D01*
X121422584Y-71710113D01*
X121226954Y-71766089D01*
X121136772Y-71813196D01*
X121046593Y-71860302D01*
X121046591Y-71860303D01*
X121046590Y-71860304D01*
X120888890Y-71988890D01*
X120760304Y-72146590D01*
X120760302Y-72146593D01*
X120720366Y-72223047D01*
X120666089Y-72326954D01*
X120610114Y-72522583D01*
X120610113Y-72522586D01*
X120607523Y-72551723D01*
X120601018Y-72624896D01*
X120599500Y-72641966D01*
X120599500Y-74458028D01*
X120599500Y-74458033D01*
X120599501Y-74458036D01*
X120601571Y-74481330D01*
X120610113Y-74577415D01*
X120666089Y-74773045D01*
X120666090Y-74773048D01*
X120666091Y-74773049D01*
X120760302Y-74953407D01*
X120760304Y-74953409D01*
X120828551Y-75037108D01*
X120855660Y-75101505D01*
X120843651Y-75170334D01*
X120841282Y-75174895D01*
X120762426Y-75319309D01*
X120669921Y-75567326D01*
X120613658Y-75825965D01*
X120613657Y-75825972D01*
X120594773Y-76089998D01*
X120594773Y-76090001D01*
X120613657Y-76354027D01*
X120613658Y-76354034D01*
X120669340Y-76610000D01*
X120669923Y-76612678D01*
X120744329Y-76812169D01*
X120749313Y-76881858D01*
X120715828Y-76943181D01*
X120654505Y-76976666D01*
X120628147Y-76979500D01*
X120569738Y-76979500D01*
X120560009Y-76979118D01*
X120540620Y-76977592D01*
X120500000Y-76974395D01*
X120499999Y-76974395D01*
X120259315Y-76993337D01*
X120259314Y-76993336D01*
X120241008Y-76994778D01*
X120241007Y-76994778D01*
X120165065Y-77013011D01*
X119988394Y-77055425D01*
X119748373Y-77154845D01*
X119526862Y-77290585D01*
X119524946Y-77292096D01*
X119523159Y-77293748D01*
X119329311Y-77459311D01*
X119329303Y-77459318D01*
X119290217Y-77505082D01*
X119283609Y-77512230D01*
X103362659Y-93433181D01*
X103301336Y-93466666D01*
X103274978Y-93469500D01*
X99115021Y-93469500D01*
X99047982Y-93449815D01*
X99027340Y-93433181D01*
X98980290Y-93386131D01*
X98946805Y-93324808D01*
X98951789Y-93255116D01*
X98993661Y-93199183D01*
X99059125Y-93174766D01*
X99094330Y-93177284D01*
X99135974Y-93186343D01*
X99375955Y-93203507D01*
X99399999Y-93205227D01*
X99400000Y-93205227D01*
X99400001Y-93205227D01*
X99418885Y-93203876D01*
X99664026Y-93186343D01*
X99922678Y-93130077D01*
X100170689Y-93037574D01*
X100403011Y-92910716D01*
X100614915Y-92752087D01*
X100802087Y-92564915D01*
X100960716Y-92353011D01*
X101087574Y-92120689D01*
X101180077Y-91872678D01*
X101236343Y-91614026D01*
X101255227Y-91350000D01*
X101236343Y-91085974D01*
X101186856Y-90858486D01*
X101180078Y-90827326D01*
X101178994Y-90824420D01*
X101087574Y-90579311D01*
X101077071Y-90560077D01*
X100960719Y-90346994D01*
X100960714Y-90346986D01*
X100816479Y-90154310D01*
X100792062Y-90088846D01*
X100806914Y-90020573D01*
X100816479Y-90005690D01*
X100880758Y-89919823D01*
X100960716Y-89813011D01*
X101087574Y-89580689D01*
X101180077Y-89332678D01*
X101236343Y-89074026D01*
X101255227Y-88810000D01*
X101236343Y-88545974D01*
X101214589Y-88445972D01*
X101180078Y-88287326D01*
X101178994Y-88284420D01*
X101087574Y-88039311D01*
X101087061Y-88038372D01*
X100960719Y-87806994D01*
X100960714Y-87806986D01*
X100816479Y-87614310D01*
X100792062Y-87548846D01*
X100806914Y-87480573D01*
X100816479Y-87465690D01*
X100880196Y-87380573D01*
X100960716Y-87273011D01*
X101087574Y-87040689D01*
X101180077Y-86792678D01*
X101236343Y-86534026D01*
X101255227Y-86270000D01*
X101236343Y-86005974D01*
X101214589Y-85905972D01*
X101180078Y-85747326D01*
X101178994Y-85744420D01*
X101087574Y-85499311D01*
X101071189Y-85469305D01*
X100960719Y-85266994D01*
X100960714Y-85266986D01*
X100816479Y-85074310D01*
X100792062Y-85008846D01*
X100806914Y-84940573D01*
X100816479Y-84925690D01*
X100880196Y-84840573D01*
X100960716Y-84733011D01*
X101087574Y-84500689D01*
X101180077Y-84252678D01*
X101236343Y-83994026D01*
X101255227Y-83730000D01*
X101236343Y-83465974D01*
X101192232Y-83263198D01*
X101180078Y-83207326D01*
X101178994Y-83204420D01*
X101087574Y-82959311D01*
X101071189Y-82929305D01*
X100960719Y-82726994D01*
X100960714Y-82726986D01*
X100816479Y-82534310D01*
X100792062Y-82468846D01*
X100806914Y-82400573D01*
X100816479Y-82385690D01*
X100880196Y-82300573D01*
X100960716Y-82193011D01*
X101087574Y-81960689D01*
X101180077Y-81712678D01*
X101236343Y-81454026D01*
X101255227Y-81190000D01*
X101236343Y-80925974D01*
X101192232Y-80723198D01*
X101180078Y-80667326D01*
X101178994Y-80664420D01*
X101087574Y-80419311D01*
X101071189Y-80389305D01*
X100960719Y-80186994D01*
X100960714Y-80186986D01*
X100816479Y-79994310D01*
X100792062Y-79928846D01*
X100806914Y-79860573D01*
X100816479Y-79845690D01*
X100887671Y-79750588D01*
X100960716Y-79653011D01*
X101087574Y-79420689D01*
X101180077Y-79172678D01*
X101236343Y-78914026D01*
X101255227Y-78650000D01*
X101236343Y-78385974D01*
X101214589Y-78285972D01*
X101180078Y-78127326D01*
X101178994Y-78124420D01*
X101087574Y-77879311D01*
X101071189Y-77849305D01*
X100960719Y-77646994D01*
X100960714Y-77646986D01*
X100802093Y-77435092D01*
X100802077Y-77435074D01*
X100614925Y-77247922D01*
X100614907Y-77247906D01*
X100472495Y-77141299D01*
X100430623Y-77085366D01*
X100425639Y-77015674D01*
X100445230Y-76970908D01*
X100573600Y-76787578D01*
X100673429Y-76573492D01*
X100673432Y-76573486D01*
X100730636Y-76360000D01*
X99833686Y-76360000D01*
X99859493Y-76319844D01*
X99900000Y-76181889D01*
X99900000Y-76038111D01*
X99859493Y-75900156D01*
X99833686Y-75860000D01*
X100730636Y-75860000D01*
X100730635Y-75859999D01*
X100673432Y-75646513D01*
X100673429Y-75646507D01*
X100603941Y-75497488D01*
X100593449Y-75428410D01*
X100621969Y-75364626D01*
X100658905Y-75335179D01*
X100803407Y-75259698D01*
X100817266Y-75248397D01*
X100881661Y-75221289D01*
X100895626Y-75220500D01*
X105290272Y-75220500D01*
X105300000Y-75220882D01*
X105303882Y-75221187D01*
X105360000Y-75225604D01*
X105424853Y-75220500D01*
X105618994Y-75205221D01*
X105871610Y-75144573D01*
X106111628Y-75045154D01*
X106333140Y-74909412D01*
X106391437Y-74859622D01*
X106475192Y-74788089D01*
X106475192Y-74788088D01*
X106501911Y-74765268D01*
X106501912Y-74765265D01*
X106530689Y-74740689D01*
X106531278Y-74740000D01*
X106569775Y-74694924D01*
X106576373Y-74687785D01*
X109867340Y-71396819D01*
X109928663Y-71363334D01*
X109955021Y-71360500D01*
X123084978Y-71360500D01*
X123152017Y-71380185D01*
G37*
%TD.AperFunction*%
%TD*%
M02*
