%TF.GenerationSoftware,KiCad,Pcbnew,7.0.11-7.0.11~ubuntu22.04.1*%
%TF.CreationDate,2024-11-08T22:36:37-03:00*%
%TF.ProjectId,esp32cam_board,65737033-3263-4616-9d5f-626f6172642e,rev?*%
%TF.SameCoordinates,Original*%
%TF.FileFunction,Legend,Top*%
%TF.FilePolarity,Positive*%
%FSLAX46Y46*%
G04 Gerber Fmt 4.6, Leading zero omitted, Abs format (unit mm)*
G04 Created by KiCad (PCBNEW 7.0.11-7.0.11~ubuntu22.04.1) date 2024-11-08 22:36:37*
%MOMM*%
%LPD*%
G01*
G04 APERTURE LIST*
%ADD10C,0.100000*%
%ADD11C,0.150000*%
%ADD12C,0.120000*%
G04 APERTURE END LIST*
D10*
X96500038Y-77032306D02*
X96452419Y-77127544D01*
X96452419Y-77127544D02*
X96452419Y-77270401D01*
X96452419Y-77270401D02*
X96500038Y-77413258D01*
X96500038Y-77413258D02*
X96595276Y-77508496D01*
X96595276Y-77508496D02*
X96690514Y-77556115D01*
X96690514Y-77556115D02*
X96880990Y-77603734D01*
X96880990Y-77603734D02*
X97023847Y-77603734D01*
X97023847Y-77603734D02*
X97214323Y-77556115D01*
X97214323Y-77556115D02*
X97309561Y-77508496D01*
X97309561Y-77508496D02*
X97404800Y-77413258D01*
X97404800Y-77413258D02*
X97452419Y-77270401D01*
X97452419Y-77270401D02*
X97452419Y-77175163D01*
X97452419Y-77175163D02*
X97404800Y-77032306D01*
X97404800Y-77032306D02*
X97357180Y-76984687D01*
X97357180Y-76984687D02*
X97023847Y-76984687D01*
X97023847Y-76984687D02*
X97023847Y-77175163D01*
X97452419Y-76556115D02*
X96452419Y-76556115D01*
X96452419Y-76556115D02*
X97452419Y-75984687D01*
X97452419Y-75984687D02*
X96452419Y-75984687D01*
X97452419Y-75508496D02*
X96452419Y-75508496D01*
X96452419Y-75508496D02*
X96452419Y-75270401D01*
X96452419Y-75270401D02*
X96500038Y-75127544D01*
X96500038Y-75127544D02*
X96595276Y-75032306D01*
X96595276Y-75032306D02*
X96690514Y-74984687D01*
X96690514Y-74984687D02*
X96880990Y-74937068D01*
X96880990Y-74937068D02*
X97023847Y-74937068D01*
X97023847Y-74937068D02*
X97214323Y-74984687D01*
X97214323Y-74984687D02*
X97309561Y-75032306D01*
X97309561Y-75032306D02*
X97404800Y-75127544D01*
X97404800Y-75127544D02*
X97452419Y-75270401D01*
X97452419Y-75270401D02*
X97452419Y-75508496D01*
X96412419Y-73659925D02*
X96412419Y-74136115D01*
X96412419Y-74136115D02*
X96888609Y-74183734D01*
X96888609Y-74183734D02*
X96840990Y-74136115D01*
X96840990Y-74136115D02*
X96793371Y-74040877D01*
X96793371Y-74040877D02*
X96793371Y-73802782D01*
X96793371Y-73802782D02*
X96840990Y-73707544D01*
X96840990Y-73707544D02*
X96888609Y-73659925D01*
X96888609Y-73659925D02*
X96983847Y-73612306D01*
X96983847Y-73612306D02*
X97221942Y-73612306D01*
X97221942Y-73612306D02*
X97317180Y-73659925D01*
X97317180Y-73659925D02*
X97364800Y-73707544D01*
X97364800Y-73707544D02*
X97412419Y-73802782D01*
X97412419Y-73802782D02*
X97412419Y-74040877D01*
X97412419Y-74040877D02*
X97364800Y-74136115D01*
X97364800Y-74136115D02*
X97317180Y-74183734D01*
X96412419Y-73326591D02*
X97412419Y-72993258D01*
X97412419Y-72993258D02*
X96412419Y-72659925D01*
D11*
X122116666Y-70234819D02*
X122116666Y-70949104D01*
X122116666Y-70949104D02*
X122069047Y-71091961D01*
X122069047Y-71091961D02*
X121973809Y-71187200D01*
X121973809Y-71187200D02*
X121830952Y-71234819D01*
X121830952Y-71234819D02*
X121735714Y-71234819D01*
X123069047Y-70234819D02*
X122592857Y-70234819D01*
X122592857Y-70234819D02*
X122545238Y-70711009D01*
X122545238Y-70711009D02*
X122592857Y-70663390D01*
X122592857Y-70663390D02*
X122688095Y-70615771D01*
X122688095Y-70615771D02*
X122926190Y-70615771D01*
X122926190Y-70615771D02*
X123021428Y-70663390D01*
X123021428Y-70663390D02*
X123069047Y-70711009D01*
X123069047Y-70711009D02*
X123116666Y-70806247D01*
X123116666Y-70806247D02*
X123116666Y-71044342D01*
X123116666Y-71044342D02*
X123069047Y-71139580D01*
X123069047Y-71139580D02*
X123021428Y-71187200D01*
X123021428Y-71187200D02*
X122926190Y-71234819D01*
X122926190Y-71234819D02*
X122688095Y-71234819D01*
X122688095Y-71234819D02*
X122592857Y-71187200D01*
X122592857Y-71187200D02*
X122545238Y-71139580D01*
X92656666Y-84979819D02*
X92656666Y-85694104D01*
X92656666Y-85694104D02*
X92609047Y-85836961D01*
X92609047Y-85836961D02*
X92513809Y-85932200D01*
X92513809Y-85932200D02*
X92370952Y-85979819D01*
X92370952Y-85979819D02*
X92275714Y-85979819D01*
X93561428Y-84979819D02*
X93370952Y-84979819D01*
X93370952Y-84979819D02*
X93275714Y-85027438D01*
X93275714Y-85027438D02*
X93228095Y-85075057D01*
X93228095Y-85075057D02*
X93132857Y-85217914D01*
X93132857Y-85217914D02*
X93085238Y-85408390D01*
X93085238Y-85408390D02*
X93085238Y-85789342D01*
X93085238Y-85789342D02*
X93132857Y-85884580D01*
X93132857Y-85884580D02*
X93180476Y-85932200D01*
X93180476Y-85932200D02*
X93275714Y-85979819D01*
X93275714Y-85979819D02*
X93466190Y-85979819D01*
X93466190Y-85979819D02*
X93561428Y-85932200D01*
X93561428Y-85932200D02*
X93609047Y-85884580D01*
X93609047Y-85884580D02*
X93656666Y-85789342D01*
X93656666Y-85789342D02*
X93656666Y-85551247D01*
X93656666Y-85551247D02*
X93609047Y-85456009D01*
X93609047Y-85456009D02*
X93561428Y-85408390D01*
X93561428Y-85408390D02*
X93466190Y-85360771D01*
X93466190Y-85360771D02*
X93275714Y-85360771D01*
X93275714Y-85360771D02*
X93180476Y-85408390D01*
X93180476Y-85408390D02*
X93132857Y-85456009D01*
X93132857Y-85456009D02*
X93085238Y-85551247D01*
X99066666Y-70254819D02*
X99066666Y-70969104D01*
X99066666Y-70969104D02*
X99019047Y-71111961D01*
X99019047Y-71111961D02*
X98923809Y-71207200D01*
X98923809Y-71207200D02*
X98780952Y-71254819D01*
X98780952Y-71254819D02*
X98685714Y-71254819D01*
X99971428Y-70588152D02*
X99971428Y-71254819D01*
X99733333Y-70207200D02*
X99495238Y-70921485D01*
X99495238Y-70921485D02*
X100114285Y-70921485D01*
X127816666Y-67684819D02*
X127816666Y-68399104D01*
X127816666Y-68399104D02*
X127769047Y-68541961D01*
X127769047Y-68541961D02*
X127673809Y-68637200D01*
X127673809Y-68637200D02*
X127530952Y-68684819D01*
X127530952Y-68684819D02*
X127435714Y-68684819D01*
X128245238Y-67780057D02*
X128292857Y-67732438D01*
X128292857Y-67732438D02*
X128388095Y-67684819D01*
X128388095Y-67684819D02*
X128626190Y-67684819D01*
X128626190Y-67684819D02*
X128721428Y-67732438D01*
X128721428Y-67732438D02*
X128769047Y-67780057D01*
X128769047Y-67780057D02*
X128816666Y-67875295D01*
X128816666Y-67875295D02*
X128816666Y-67970533D01*
X128816666Y-67970533D02*
X128769047Y-68113390D01*
X128769047Y-68113390D02*
X128197619Y-68684819D01*
X128197619Y-68684819D02*
X128816666Y-68684819D01*
X143251666Y-67614819D02*
X143251666Y-68329104D01*
X143251666Y-68329104D02*
X143204047Y-68471961D01*
X143204047Y-68471961D02*
X143108809Y-68567200D01*
X143108809Y-68567200D02*
X142965952Y-68614819D01*
X142965952Y-68614819D02*
X142870714Y-68614819D01*
X143632619Y-67614819D02*
X144251666Y-67614819D01*
X144251666Y-67614819D02*
X143918333Y-67995771D01*
X143918333Y-67995771D02*
X144061190Y-67995771D01*
X144061190Y-67995771D02*
X144156428Y-68043390D01*
X144156428Y-68043390D02*
X144204047Y-68091009D01*
X144204047Y-68091009D02*
X144251666Y-68186247D01*
X144251666Y-68186247D02*
X144251666Y-68424342D01*
X144251666Y-68424342D02*
X144204047Y-68519580D01*
X144204047Y-68519580D02*
X144156428Y-68567200D01*
X144156428Y-68567200D02*
X144061190Y-68614819D01*
X144061190Y-68614819D02*
X143775476Y-68614819D01*
X143775476Y-68614819D02*
X143680238Y-68567200D01*
X143680238Y-68567200D02*
X143632619Y-68519580D01*
X93556666Y-70464819D02*
X93556666Y-71179104D01*
X93556666Y-71179104D02*
X93509047Y-71321961D01*
X93509047Y-71321961D02*
X93413809Y-71417200D01*
X93413809Y-71417200D02*
X93270952Y-71464819D01*
X93270952Y-71464819D02*
X93175714Y-71464819D01*
X94556666Y-71464819D02*
X93985238Y-71464819D01*
X94270952Y-71464819D02*
X94270952Y-70464819D01*
X94270952Y-70464819D02*
X94175714Y-70607676D01*
X94175714Y-70607676D02*
X94080476Y-70702914D01*
X94080476Y-70702914D02*
X93985238Y-70750533D01*
D12*
%TO.C,J5*%
X121120000Y-74820000D02*
X121120000Y-92660000D01*
X121120000Y-74820000D02*
X123780000Y-74820000D01*
X121120000Y-92660000D02*
X123780000Y-92660000D01*
X122450000Y-72220000D02*
X123780000Y-72220000D01*
X123780000Y-72220000D02*
X123780000Y-73550000D01*
X123780000Y-74820000D02*
X123780000Y-92660000D01*
%TO.C,J6*%
X91660000Y-86525000D02*
X92990000Y-86525000D01*
X91660000Y-87855000D02*
X91660000Y-86525000D01*
X91660000Y-89125000D02*
X91660000Y-91725000D01*
X91660000Y-89125000D02*
X94320000Y-89125000D01*
X91660000Y-91725000D02*
X94320000Y-91725000D01*
X94320000Y-89125000D02*
X94320000Y-91725000D01*
%TO.C,J4*%
X98070000Y-74840000D02*
X98070000Y-92680000D01*
X98070000Y-74840000D02*
X100730000Y-74840000D01*
X98070000Y-92680000D02*
X100730000Y-92680000D01*
X99400000Y-72240000D02*
X100730000Y-72240000D01*
X100730000Y-72240000D02*
X100730000Y-73570000D01*
X100730000Y-74840000D02*
X100730000Y-92680000D01*
%TO.C,J2*%
X126820000Y-72270000D02*
X126820000Y-92650000D01*
X126820000Y-72270000D02*
X129480000Y-72270000D01*
X126820000Y-92650000D02*
X129480000Y-92650000D01*
X128150000Y-69670000D02*
X129480000Y-69670000D01*
X129480000Y-69670000D02*
X129480000Y-71000000D01*
X129480000Y-72270000D02*
X129480000Y-92650000D01*
%TO.C,J3*%
X142255000Y-72200000D02*
X142255000Y-92580000D01*
X142255000Y-72200000D02*
X144915000Y-72200000D01*
X142255000Y-92580000D02*
X144915000Y-92580000D01*
X143585000Y-69600000D02*
X144915000Y-69600000D01*
X144915000Y-69600000D02*
X144915000Y-70930000D01*
X144915000Y-72200000D02*
X144915000Y-92580000D01*
%TO.C,J1*%
X94900000Y-71950000D02*
X90900000Y-71950000D01*
X95930000Y-72240000D02*
X89910000Y-72240000D01*
X89910000Y-72240000D02*
X89910000Y-82620000D01*
X95930000Y-72820000D02*
X95330000Y-72820000D01*
X95330000Y-72820000D02*
X95330000Y-74420000D01*
X90910000Y-73620000D02*
X91440000Y-73870000D01*
X90910000Y-73620000D02*
X90910000Y-81240000D01*
X89910000Y-73620000D02*
X90910000Y-73620000D01*
X91440000Y-73870000D02*
X91440000Y-80990000D01*
X89910000Y-73870000D02*
X90910000Y-73870000D01*
X95330000Y-74420000D02*
X95930000Y-74420000D01*
X95930000Y-75360000D02*
X95330000Y-75360000D01*
X95330000Y-75360000D02*
X95330000Y-76960000D01*
X95330000Y-76960000D02*
X95930000Y-76960000D01*
X95930000Y-77900000D02*
X95330000Y-77900000D01*
X95330000Y-77900000D02*
X95330000Y-79500000D01*
X95330000Y-79500000D02*
X95930000Y-79500000D01*
X95930000Y-80440000D02*
X95330000Y-80440000D01*
X95330000Y-80440000D02*
X95330000Y-82040000D01*
X91440000Y-80990000D02*
X90910000Y-81240000D01*
X89910000Y-80990000D02*
X90910000Y-80990000D01*
X90910000Y-81240000D02*
X89910000Y-81240000D01*
X95330000Y-82040000D02*
X95930000Y-82040000D01*
X95930000Y-82620000D02*
X95930000Y-72240000D01*
X89910000Y-82620000D02*
X95930000Y-82620000D01*
%TD*%
M02*
