M48
; DRILL file {KiCad 8.0.3} date 2024-10-12T11:47:33-0300
; FORMAT={-:-/ absolute / inch / decimal}
; #@! TF.CreationDate,2024-10-12T11:47:33-03:00
; #@! TF.GenerationSoftware,Kicad,Pcbnew,8.0.3
; #@! TF.FileFunction,Plated,1,2,PTH
FMAT,2
INCH
; #@! TA.AperFunction,Plated,PTH,ComponentDrill
T1C0.0315
; #@! TA.AperFunction,Plated,PTH,ComponentDrill
T2C0.0354
; #@! TA.AperFunction,Plated,PTH,ComponentDrill
T3C0.0374
%
G90
G05
T1
X3.3465Y-3.5236
X3.7465Y-3.5236
X4.1276Y-3.1102
X4.5276Y-3.1102
T2
X3.0299Y-3.5236
X3.1299Y-3.5236
X3.8764Y-3.1102
X3.9764Y-3.1102
T3
X3.0315Y-2.2047
X3.0315Y-2.6969
X3.0315Y-3.1299
X3.1299Y-2.2047
X3.1299Y-2.6969
X3.1299Y-3.1299
X3.2283Y-2.2047
X3.2283Y-2.6969
X3.2283Y-3.1299
X3.3268Y-2.2047
X3.3268Y-2.6969
X3.3268Y-3.1299
X3.878Y-2.2047
X3.878Y-2.6969
X3.9764Y-2.2047
X3.9764Y-2.6969
X4.0748Y-2.2047
X4.0748Y-2.6969
X4.1732Y-2.2047
X4.1732Y-2.6969
M30
