%TF.GenerationSoftware,KiCad,Pcbnew,8.0.3*%
%TF.CreationDate,2024-10-12T11:47:42-03:00*%
%TF.ProjectId,m_dulo_sensor_i2c_2sensores,6df36475-6c6f-45f7-9365-6e736f725f69,rev?*%
%TF.SameCoordinates,Original*%
%TF.FileFunction,Copper,L2,Bot*%
%TF.FilePolarity,Positive*%
%FSLAX46Y46*%
G04 Gerber Fmt 4.6, Leading zero omitted, Abs format (unit mm)*
G04 Created by KiCad (PCBNEW 8.0.3) date 2024-10-12 11:47:42*
%MOMM*%
%LPD*%
G01*
G04 APERTURE LIST*
G04 Aperture macros list*
%AMRoundRect*
0 Rectangle with rounded corners*
0 $1 Rounding radius*
0 $2 $3 $4 $5 $6 $7 $8 $9 X,Y pos of 4 corners*
0 Add a 4 corners polygon primitive as box body*
4,1,4,$2,$3,$4,$5,$6,$7,$8,$9,$2,$3,0*
0 Add four circle primitives for the rounded corners*
1,1,$1+$1,$2,$3*
1,1,$1+$1,$4,$5*
1,1,$1+$1,$6,$7*
1,1,$1+$1,$8,$9*
0 Add four rect primitives between the rounded corners*
20,1,$1+$1,$2,$3,$4,$5,0*
20,1,$1+$1,$4,$5,$6,$7,0*
20,1,$1+$1,$6,$7,$8,$9,0*
20,1,$1+$1,$8,$9,$2,$3,0*%
G04 Aperture macros list end*
%TA.AperFunction,ComponentPad*%
%ADD10C,1.600000*%
%TD*%
%TA.AperFunction,ComponentPad*%
%ADD11O,1.600000X1.600000*%
%TD*%
%TA.AperFunction,ComponentPad*%
%ADD12RoundRect,0.250000X-0.600000X-0.725000X0.600000X-0.725000X0.600000X0.725000X-0.600000X0.725000X0*%
%TD*%
%TA.AperFunction,ComponentPad*%
%ADD13O,1.700000X1.950000*%
%TD*%
%TA.AperFunction,ComponentPad*%
%ADD14R,1.800000X1.800000*%
%TD*%
%TA.AperFunction,ComponentPad*%
%ADD15C,1.800000*%
%TD*%
%TA.AperFunction,Conductor*%
%ADD16C,0.900000*%
%TD*%
G04 APERTURE END LIST*
D10*
%TO.P,R2,1*%
%TO.N,Net-(D2-A)*%
X104840000Y-79000000D03*
D11*
%TO.P,R2,2*%
%TO.N,+5V*%
X115000000Y-79000000D03*
%TD*%
D10*
%TO.P,R1,1*%
%TO.N,+3.3V*%
X95160000Y-89500000D03*
D11*
%TO.P,R1,2*%
%TO.N,Net-(D1-A)*%
X85000000Y-89500000D03*
%TD*%
D12*
%TO.P,J5,1,Pin_1*%
%TO.N,GND*%
X98500000Y-68500000D03*
D13*
%TO.P,J5,2,Pin_2*%
%TO.N,+5V*%
X101000000Y-68500000D03*
%TO.P,J5,3,Pin_3*%
%TO.N,TX*%
X103500000Y-68500000D03*
%TO.P,J5,4,Pin_4*%
%TO.N,RX*%
X106000000Y-68500000D03*
%TD*%
D12*
%TO.P,J4,1,Pin_1*%
%TO.N,GND*%
X98500000Y-56000000D03*
D13*
%TO.P,J4,2,Pin_2*%
%TO.N,+5V*%
X101000000Y-56000000D03*
%TO.P,J4,3,Pin_3*%
%TO.N,TX*%
X103500000Y-56000000D03*
%TO.P,J4,4,Pin_4*%
%TO.N,RX*%
X106000000Y-56000000D03*
%TD*%
D12*
%TO.P,J3,1,Pin_1*%
%TO.N,GND*%
X77000000Y-79500000D03*
D13*
%TO.P,J3,2,Pin_2*%
%TO.N,+3.3V*%
X79500000Y-79500000D03*
%TO.P,J3,3,Pin_3*%
%TO.N,SDA*%
X82000000Y-79500000D03*
%TO.P,J3,4,Pin_4*%
%TO.N,SCL*%
X84500000Y-79500000D03*
%TD*%
D12*
%TO.P,J2,1,Pin_1*%
%TO.N,GND*%
X77000000Y-68500000D03*
D13*
%TO.P,J2,2,Pin_2*%
%TO.N,+3.3V*%
X79500000Y-68500000D03*
%TO.P,J2,3,Pin_3*%
%TO.N,SDA*%
X82000000Y-68500000D03*
%TO.P,J2,4,Pin_4*%
%TO.N,SCL*%
X84500000Y-68500000D03*
%TD*%
D12*
%TO.P,J1,1,Pin_1*%
%TO.N,GND*%
X77000000Y-56000000D03*
D13*
%TO.P,J1,2,Pin_2*%
%TO.N,+3.3V*%
X79500000Y-56000000D03*
%TO.P,J1,3,Pin_3*%
%TO.N,SDA*%
X82000000Y-56000000D03*
%TO.P,J1,4,Pin_4*%
%TO.N,SCL*%
X84500000Y-56000000D03*
%TD*%
D14*
%TO.P,D2,1,K*%
%TO.N,GND*%
X98460000Y-79000000D03*
D15*
%TO.P,D2,2,A*%
%TO.N,Net-(D2-A)*%
X101000000Y-79000000D03*
%TD*%
D14*
%TO.P,D1,1,K*%
%TO.N,GND*%
X76960000Y-89500000D03*
D15*
%TO.P,D1,2,A*%
%TO.N,Net-(D1-A)*%
X79500000Y-89500000D03*
%TD*%
D16*
%TO.N,Net-(D2-A)*%
X101000000Y-79000000D02*
X104840000Y-79000000D01*
%TO.N,+5V*%
X113500000Y-79000000D02*
X115000000Y-79000000D01*
X104625000Y-70125000D02*
X113500000Y-79000000D01*
X102625000Y-70125000D02*
X104625000Y-70125000D01*
X101000000Y-68500000D02*
X102625000Y-70125000D01*
%TO.N,RX*%
X106000000Y-56000000D02*
X106000000Y-68500000D01*
%TO.N,TX*%
X103500000Y-56000000D02*
X103500000Y-68500000D01*
%TO.N,+5V*%
X101000000Y-56000000D02*
X101000000Y-68500000D01*
%TO.N,+3.3V*%
X91500000Y-89500000D02*
X95160000Y-89500000D01*
X83125000Y-81125000D02*
X91500000Y-89500000D01*
X81125000Y-81125000D02*
X83125000Y-81125000D01*
X79500000Y-79500000D02*
X81125000Y-81125000D01*
%TO.N,Net-(D1-A)*%
X79500000Y-89500000D02*
X85000000Y-89500000D01*
%TO.N,SCL*%
X84500000Y-68500000D02*
X84500000Y-79500000D01*
X84500000Y-56000000D02*
X84500000Y-68500000D01*
%TO.N,SDA*%
X82000000Y-68500000D02*
X82000000Y-79500000D01*
X82000000Y-56000000D02*
X82000000Y-68500000D01*
%TO.N,+3.3V*%
X79500000Y-68500000D02*
X79500000Y-79500000D01*
X79500000Y-56000000D02*
X79500000Y-68500000D01*
%TD*%
%TA.AperFunction,Conductor*%
%TO.N,GND*%
G36*
X117942539Y-50020185D02*
G01*
X117988294Y-50072989D01*
X117999500Y-50124500D01*
X117999500Y-94375500D01*
X117979815Y-94442539D01*
X117927011Y-94488294D01*
X117875500Y-94499500D01*
X72124500Y-94499500D01*
X72057461Y-94479815D01*
X72011706Y-94427011D01*
X72000500Y-94375500D01*
X72000500Y-88552155D01*
X75560000Y-88552155D01*
X75560000Y-89250000D01*
X76584722Y-89250000D01*
X76540667Y-89326306D01*
X76510000Y-89440756D01*
X76510000Y-89559244D01*
X76540667Y-89673694D01*
X76584722Y-89750000D01*
X75560000Y-89750000D01*
X75560000Y-90447844D01*
X75566401Y-90507372D01*
X75566403Y-90507379D01*
X75616645Y-90642086D01*
X75616649Y-90642093D01*
X75702809Y-90757187D01*
X75702812Y-90757190D01*
X75817906Y-90843350D01*
X75817913Y-90843354D01*
X75952620Y-90893596D01*
X75952627Y-90893598D01*
X76012155Y-90899999D01*
X76012172Y-90900000D01*
X76710000Y-90900000D01*
X76710000Y-89875277D01*
X76786306Y-89919333D01*
X76900756Y-89950000D01*
X77019244Y-89950000D01*
X77133694Y-89919333D01*
X77210000Y-89875277D01*
X77210000Y-90900000D01*
X77907828Y-90900000D01*
X77907844Y-90899999D01*
X77967372Y-90893598D01*
X77967380Y-90893596D01*
X78066425Y-90856654D01*
X78136117Y-90851669D01*
X78197440Y-90885153D01*
X78197442Y-90885155D01*
X78252247Y-90939961D01*
X78252253Y-90939966D01*
X78252258Y-90939971D01*
X78469887Y-91102887D01*
X78469891Y-91102889D01*
X78469892Y-91102890D01*
X78708481Y-91233169D01*
X78708480Y-91233169D01*
X78708484Y-91233170D01*
X78708487Y-91233172D01*
X78963199Y-91328175D01*
X79228840Y-91385961D01*
X79480605Y-91403967D01*
X79499999Y-91405355D01*
X79500000Y-91405355D01*
X79500001Y-91405355D01*
X79518100Y-91404060D01*
X79771160Y-91385961D01*
X80036801Y-91328175D01*
X80291513Y-91233172D01*
X80291517Y-91233169D01*
X80291519Y-91233169D01*
X80410813Y-91168029D01*
X80530113Y-91102887D01*
X80590496Y-91057684D01*
X80700639Y-90975233D01*
X80766103Y-90950816D01*
X80774949Y-90950500D01*
X83893014Y-90950500D01*
X83960053Y-90970185D01*
X83962865Y-90972046D01*
X84058934Y-91037544D01*
X84097226Y-91063651D01*
X84340359Y-91180738D01*
X84598228Y-91260280D01*
X84598229Y-91260280D01*
X84598232Y-91260281D01*
X84865063Y-91300499D01*
X84865068Y-91300499D01*
X84865071Y-91300500D01*
X84865072Y-91300500D01*
X85134928Y-91300500D01*
X85134929Y-91300500D01*
X85134936Y-91300499D01*
X85401767Y-91260281D01*
X85401768Y-91260280D01*
X85401772Y-91260280D01*
X85659641Y-91180738D01*
X85902775Y-91063651D01*
X86125741Y-90911635D01*
X86292193Y-90757190D01*
X86323557Y-90728089D01*
X86323557Y-90728087D01*
X86323561Y-90728085D01*
X86491815Y-90517102D01*
X86626743Y-90283398D01*
X86725334Y-90032195D01*
X86785383Y-89769103D01*
X86792533Y-89673694D01*
X86805549Y-89500004D01*
X86805549Y-89499995D01*
X86788744Y-89275747D01*
X86785383Y-89230897D01*
X86725334Y-88967805D01*
X86626743Y-88716602D01*
X86491815Y-88482898D01*
X86323561Y-88271915D01*
X86323560Y-88271914D01*
X86323557Y-88271910D01*
X86125741Y-88088365D01*
X86084174Y-88060025D01*
X85902775Y-87936349D01*
X85902771Y-87936347D01*
X85902768Y-87936345D01*
X85902767Y-87936344D01*
X85659643Y-87819263D01*
X85659645Y-87819263D01*
X85401773Y-87739720D01*
X85401767Y-87739718D01*
X85134936Y-87699500D01*
X85134929Y-87699500D01*
X84865071Y-87699500D01*
X84865063Y-87699500D01*
X84598232Y-87739718D01*
X84598226Y-87739720D01*
X84340358Y-87819262D01*
X84097229Y-87936347D01*
X84097225Y-87936349D01*
X83962865Y-88027954D01*
X83896386Y-88049454D01*
X83893014Y-88049500D01*
X80774949Y-88049500D01*
X80707910Y-88029815D01*
X80700639Y-88024767D01*
X80530115Y-87897114D01*
X80530107Y-87897109D01*
X80291518Y-87766830D01*
X80291519Y-87766830D01*
X80218834Y-87739720D01*
X80036801Y-87671825D01*
X80036794Y-87671823D01*
X80036793Y-87671823D01*
X79771167Y-87614040D01*
X79771160Y-87614039D01*
X79500001Y-87594645D01*
X79499999Y-87594645D01*
X79228839Y-87614039D01*
X79228832Y-87614040D01*
X78963206Y-87671823D01*
X78963202Y-87671824D01*
X78963199Y-87671825D01*
X78889000Y-87699500D01*
X78708480Y-87766830D01*
X78469892Y-87897109D01*
X78469891Y-87897110D01*
X78252263Y-88060025D01*
X78252257Y-88060029D01*
X78197440Y-88114846D01*
X78136116Y-88148330D01*
X78066427Y-88143345D01*
X77967380Y-88106403D01*
X77967372Y-88106401D01*
X77907844Y-88100000D01*
X77210000Y-88100000D01*
X77210000Y-89124722D01*
X77133694Y-89080667D01*
X77019244Y-89050000D01*
X76900756Y-89050000D01*
X76786306Y-89080667D01*
X76710000Y-89124722D01*
X76710000Y-88100000D01*
X76012155Y-88100000D01*
X75952627Y-88106401D01*
X75952620Y-88106403D01*
X75817913Y-88156645D01*
X75817906Y-88156649D01*
X75702812Y-88242809D01*
X75702809Y-88242812D01*
X75616649Y-88357906D01*
X75616645Y-88357913D01*
X75566403Y-88492620D01*
X75566401Y-88492627D01*
X75560000Y-88552155D01*
X72000500Y-88552155D01*
X72000500Y-55225013D01*
X75650000Y-55225013D01*
X75650000Y-55750000D01*
X76595854Y-55750000D01*
X76557370Y-55816657D01*
X76525000Y-55937465D01*
X76525000Y-56062535D01*
X76557370Y-56183343D01*
X76595854Y-56250000D01*
X75650001Y-56250000D01*
X75650001Y-56774986D01*
X75660494Y-56877697D01*
X75715641Y-57044119D01*
X75715643Y-57044124D01*
X75807684Y-57193345D01*
X75931654Y-57317315D01*
X76080875Y-57409356D01*
X76080880Y-57409358D01*
X76247302Y-57464505D01*
X76247309Y-57464506D01*
X76350019Y-57474999D01*
X76749999Y-57474999D01*
X76750000Y-57474998D01*
X76750000Y-56404145D01*
X76816657Y-56442630D01*
X76937465Y-56475000D01*
X77062535Y-56475000D01*
X77183343Y-56442630D01*
X77250000Y-56404145D01*
X77250000Y-57474999D01*
X77649972Y-57474999D01*
X77649986Y-57474998D01*
X77752695Y-57464506D01*
X77886495Y-57420168D01*
X77956323Y-57417766D01*
X78016366Y-57453497D01*
X78047559Y-57516017D01*
X78049500Y-57537874D01*
X78049500Y-66962125D01*
X78029815Y-67029164D01*
X77977011Y-67074919D01*
X77907853Y-67084863D01*
X77886496Y-67079831D01*
X77752697Y-67035494D01*
X77752690Y-67035493D01*
X77649986Y-67025000D01*
X77250000Y-67025000D01*
X77250000Y-68095854D01*
X77183343Y-68057370D01*
X77062535Y-68025000D01*
X76937465Y-68025000D01*
X76816657Y-68057370D01*
X76750000Y-68095854D01*
X76750000Y-67025000D01*
X76350028Y-67025000D01*
X76350012Y-67025001D01*
X76247302Y-67035494D01*
X76080880Y-67090641D01*
X76080875Y-67090643D01*
X75931654Y-67182684D01*
X75807684Y-67306654D01*
X75715643Y-67455875D01*
X75715641Y-67455880D01*
X75660494Y-67622302D01*
X75660493Y-67622309D01*
X75650000Y-67725013D01*
X75650000Y-68250000D01*
X76595854Y-68250000D01*
X76557370Y-68316657D01*
X76525000Y-68437465D01*
X76525000Y-68562535D01*
X76557370Y-68683343D01*
X76595854Y-68750000D01*
X75650001Y-68750000D01*
X75650001Y-69274986D01*
X75660494Y-69377697D01*
X75715641Y-69544119D01*
X75715643Y-69544124D01*
X75807684Y-69693345D01*
X75931654Y-69817315D01*
X76080875Y-69909356D01*
X76080880Y-69909358D01*
X76247302Y-69964505D01*
X76247309Y-69964506D01*
X76350019Y-69974999D01*
X76749999Y-69974999D01*
X76750000Y-69974998D01*
X76750000Y-68904145D01*
X76816657Y-68942630D01*
X76937465Y-68975000D01*
X77062535Y-68975000D01*
X77183343Y-68942630D01*
X77250000Y-68904145D01*
X77250000Y-69974999D01*
X77649972Y-69974999D01*
X77649986Y-69974998D01*
X77752695Y-69964506D01*
X77886495Y-69920168D01*
X77956323Y-69917766D01*
X78016366Y-69953497D01*
X78047559Y-70016017D01*
X78049500Y-70037874D01*
X78049500Y-77962125D01*
X78029815Y-78029164D01*
X77977011Y-78074919D01*
X77907853Y-78084863D01*
X77886496Y-78079831D01*
X77752697Y-78035494D01*
X77752690Y-78035493D01*
X77649986Y-78025000D01*
X77250000Y-78025000D01*
X77250000Y-79095854D01*
X77183343Y-79057370D01*
X77062535Y-79025000D01*
X76937465Y-79025000D01*
X76816657Y-79057370D01*
X76750000Y-79095854D01*
X76750000Y-78025000D01*
X76350028Y-78025000D01*
X76350012Y-78025001D01*
X76247302Y-78035494D01*
X76080880Y-78090641D01*
X76080875Y-78090643D01*
X75931654Y-78182684D01*
X75807684Y-78306654D01*
X75715643Y-78455875D01*
X75715641Y-78455880D01*
X75660494Y-78622302D01*
X75660493Y-78622309D01*
X75650000Y-78725013D01*
X75650000Y-79250000D01*
X76595854Y-79250000D01*
X76557370Y-79316657D01*
X76525000Y-79437465D01*
X76525000Y-79562535D01*
X76557370Y-79683343D01*
X76595854Y-79750000D01*
X75650001Y-79750000D01*
X75650001Y-80274986D01*
X75660494Y-80377697D01*
X75715641Y-80544119D01*
X75715643Y-80544124D01*
X75807684Y-80693345D01*
X75931654Y-80817315D01*
X76080875Y-80909356D01*
X76080880Y-80909358D01*
X76247302Y-80964505D01*
X76247309Y-80964506D01*
X76350019Y-80974999D01*
X76749999Y-80974999D01*
X76750000Y-80974998D01*
X76750000Y-79904145D01*
X76816657Y-79942630D01*
X76937465Y-79975000D01*
X77062535Y-79975000D01*
X77183343Y-79942630D01*
X77250000Y-79904145D01*
X77250000Y-80974999D01*
X77649972Y-80974999D01*
X77649986Y-80974998D01*
X77752697Y-80964505D01*
X77919119Y-80909358D01*
X77919126Y-80909355D01*
X77989204Y-80866130D01*
X78056596Y-80847689D01*
X78123260Y-80868611D01*
X78141983Y-80883987D01*
X78277256Y-81019260D01*
X78277262Y-81019265D01*
X78469711Y-81166936D01*
X78679788Y-81288224D01*
X78903900Y-81381054D01*
X79138211Y-81443838D01*
X79378712Y-81475500D01*
X79378721Y-81475500D01*
X79380793Y-81475636D01*
X79381381Y-81475851D01*
X79382737Y-81476030D01*
X79382697Y-81476333D01*
X79446403Y-81499658D01*
X79460373Y-81511690D01*
X80180066Y-82231383D01*
X80287042Y-82309105D01*
X80287045Y-82309106D01*
X80364772Y-82365579D01*
X80460884Y-82414550D01*
X80568196Y-82469229D01*
X80568198Y-82469229D01*
X80568201Y-82469231D01*
X80684592Y-82507049D01*
X80785339Y-82539784D01*
X81010838Y-82575500D01*
X81010843Y-82575500D01*
X82472821Y-82575500D01*
X82539860Y-82595185D01*
X82560502Y-82611819D01*
X90555063Y-90606380D01*
X90739773Y-90740580D01*
X90839550Y-90791418D01*
X90943196Y-90844229D01*
X90943198Y-90844229D01*
X90943201Y-90844231D01*
X91059592Y-90882049D01*
X91160339Y-90914784D01*
X91385838Y-90950500D01*
X91385843Y-90950500D01*
X91385844Y-90950500D01*
X91614157Y-90950500D01*
X94053014Y-90950500D01*
X94120053Y-90970185D01*
X94122865Y-90972046D01*
X94218934Y-91037544D01*
X94257226Y-91063651D01*
X94500359Y-91180738D01*
X94758228Y-91260280D01*
X94758229Y-91260280D01*
X94758232Y-91260281D01*
X95025063Y-91300499D01*
X95025068Y-91300499D01*
X95025071Y-91300500D01*
X95025072Y-91300500D01*
X95294928Y-91300500D01*
X95294929Y-91300500D01*
X95294936Y-91300499D01*
X95561767Y-91260281D01*
X95561768Y-91260280D01*
X95561772Y-91260280D01*
X95819641Y-91180738D01*
X96062775Y-91063651D01*
X96285741Y-90911635D01*
X96452193Y-90757190D01*
X96483557Y-90728089D01*
X96483557Y-90728087D01*
X96483561Y-90728085D01*
X96651815Y-90517102D01*
X96786743Y-90283398D01*
X96885334Y-90032195D01*
X96945383Y-89769103D01*
X96952533Y-89673694D01*
X96965549Y-89500004D01*
X96965549Y-89499995D01*
X96948744Y-89275747D01*
X96945383Y-89230897D01*
X96885334Y-88967805D01*
X96786743Y-88716602D01*
X96651815Y-88482898D01*
X96483561Y-88271915D01*
X96483560Y-88271914D01*
X96483557Y-88271910D01*
X96285741Y-88088365D01*
X96244174Y-88060025D01*
X96062775Y-87936349D01*
X96062771Y-87936347D01*
X96062768Y-87936345D01*
X96062767Y-87936344D01*
X95819643Y-87819263D01*
X95819645Y-87819263D01*
X95561773Y-87739720D01*
X95561767Y-87739718D01*
X95294936Y-87699500D01*
X95294929Y-87699500D01*
X95025071Y-87699500D01*
X95025063Y-87699500D01*
X94758232Y-87739718D01*
X94758226Y-87739720D01*
X94500358Y-87819262D01*
X94257229Y-87936347D01*
X94257225Y-87936349D01*
X94122865Y-88027954D01*
X94056386Y-88049454D01*
X94053014Y-88049500D01*
X92152179Y-88049500D01*
X92085140Y-88029815D01*
X92064498Y-88013181D01*
X85446734Y-81395417D01*
X85413249Y-81334094D01*
X85418233Y-81264402D01*
X85460105Y-81208469D01*
X85472404Y-81200355D01*
X85530289Y-81166936D01*
X85722738Y-81019265D01*
X85894265Y-80847738D01*
X86041936Y-80655289D01*
X86163224Y-80445212D01*
X86256054Y-80221100D01*
X86318838Y-79986789D01*
X86350500Y-79746288D01*
X86350500Y-79253712D01*
X86318838Y-79013211D01*
X86256054Y-78778900D01*
X86163224Y-78554788D01*
X86113004Y-78467805D01*
X86041936Y-78344711D01*
X85976124Y-78258942D01*
X85950930Y-78193773D01*
X85950500Y-78183456D01*
X85950500Y-78052155D01*
X97060000Y-78052155D01*
X97060000Y-78750000D01*
X98084722Y-78750000D01*
X98040667Y-78826306D01*
X98010000Y-78940756D01*
X98010000Y-79059244D01*
X98040667Y-79173694D01*
X98084722Y-79250000D01*
X97060000Y-79250000D01*
X97060000Y-79947844D01*
X97066401Y-80007372D01*
X97066403Y-80007379D01*
X97116645Y-80142086D01*
X97116649Y-80142093D01*
X97202809Y-80257187D01*
X97202812Y-80257190D01*
X97317906Y-80343350D01*
X97317913Y-80343354D01*
X97452620Y-80393596D01*
X97452627Y-80393598D01*
X97512155Y-80399999D01*
X97512172Y-80400000D01*
X98210000Y-80400000D01*
X98210000Y-79375277D01*
X98286306Y-79419333D01*
X98400756Y-79450000D01*
X98519244Y-79450000D01*
X98633694Y-79419333D01*
X98710000Y-79375277D01*
X98710000Y-80400000D01*
X99407828Y-80400000D01*
X99407844Y-80399999D01*
X99467372Y-80393598D01*
X99467380Y-80393596D01*
X99566425Y-80356654D01*
X99636117Y-80351669D01*
X99697440Y-80385153D01*
X99697442Y-80385155D01*
X99752247Y-80439961D01*
X99752253Y-80439966D01*
X99752258Y-80439971D01*
X99969887Y-80602887D01*
X99969891Y-80602889D01*
X99969892Y-80602890D01*
X100208481Y-80733169D01*
X100208480Y-80733169D01*
X100208484Y-80733170D01*
X100208487Y-80733172D01*
X100463199Y-80828175D01*
X100728840Y-80885961D01*
X100980605Y-80903967D01*
X100999999Y-80905355D01*
X101000000Y-80905355D01*
X101000001Y-80905355D01*
X101018100Y-80904060D01*
X101271160Y-80885961D01*
X101536801Y-80828175D01*
X101791513Y-80733172D01*
X101791517Y-80733169D01*
X101791519Y-80733169D01*
X101934138Y-80655293D01*
X102030113Y-80602887D01*
X102108611Y-80544124D01*
X102200639Y-80475233D01*
X102266103Y-80450816D01*
X102274949Y-80450500D01*
X103733014Y-80450500D01*
X103800053Y-80470185D01*
X103802865Y-80472046D01*
X103898934Y-80537544D01*
X103937226Y-80563651D01*
X104180359Y-80680738D01*
X104438228Y-80760280D01*
X104438229Y-80760280D01*
X104438232Y-80760281D01*
X104705063Y-80800499D01*
X104705068Y-80800499D01*
X104705071Y-80800500D01*
X104705072Y-80800500D01*
X104974928Y-80800500D01*
X104974929Y-80800500D01*
X104974936Y-80800499D01*
X105241767Y-80760281D01*
X105241768Y-80760280D01*
X105241772Y-80760280D01*
X105499641Y-80680738D01*
X105742775Y-80563651D01*
X105965741Y-80411635D01*
X106132193Y-80257190D01*
X106163557Y-80228089D01*
X106163557Y-80228087D01*
X106163561Y-80228085D01*
X106331815Y-80017102D01*
X106466743Y-79783398D01*
X106565334Y-79532195D01*
X106625383Y-79269103D01*
X106636564Y-79119905D01*
X106645549Y-79000004D01*
X106645549Y-78999995D01*
X106628744Y-78775747D01*
X106625383Y-78730897D01*
X106565334Y-78467805D01*
X106466743Y-78216602D01*
X106331815Y-77982898D01*
X106163561Y-77771915D01*
X106163560Y-77771914D01*
X106163557Y-77771910D01*
X105965741Y-77588365D01*
X105924174Y-77560025D01*
X105742775Y-77436349D01*
X105742771Y-77436347D01*
X105742768Y-77436345D01*
X105742767Y-77436344D01*
X105499643Y-77319263D01*
X105499645Y-77319263D01*
X105241773Y-77239720D01*
X105241767Y-77239718D01*
X104974936Y-77199500D01*
X104974929Y-77199500D01*
X104705071Y-77199500D01*
X104705063Y-77199500D01*
X104438232Y-77239718D01*
X104438226Y-77239720D01*
X104180358Y-77319262D01*
X103937229Y-77436347D01*
X103937225Y-77436349D01*
X103802865Y-77527954D01*
X103736386Y-77549454D01*
X103733014Y-77549500D01*
X102274949Y-77549500D01*
X102207910Y-77529815D01*
X102200639Y-77524767D01*
X102030115Y-77397114D01*
X102030107Y-77397109D01*
X101791518Y-77266830D01*
X101791519Y-77266830D01*
X101718834Y-77239720D01*
X101536801Y-77171825D01*
X101536794Y-77171823D01*
X101536793Y-77171823D01*
X101271167Y-77114040D01*
X101271160Y-77114039D01*
X101000001Y-77094645D01*
X100999999Y-77094645D01*
X100728839Y-77114039D01*
X100728832Y-77114040D01*
X100463206Y-77171823D01*
X100463202Y-77171824D01*
X100463199Y-77171825D01*
X100389000Y-77199500D01*
X100208480Y-77266830D01*
X99969892Y-77397109D01*
X99969891Y-77397110D01*
X99752263Y-77560025D01*
X99752257Y-77560029D01*
X99697440Y-77614846D01*
X99636116Y-77648330D01*
X99566427Y-77643345D01*
X99467380Y-77606403D01*
X99467372Y-77606401D01*
X99407844Y-77600000D01*
X98710000Y-77600000D01*
X98710000Y-78624722D01*
X98633694Y-78580667D01*
X98519244Y-78550000D01*
X98400756Y-78550000D01*
X98286306Y-78580667D01*
X98210000Y-78624722D01*
X98210000Y-77600000D01*
X97512155Y-77600000D01*
X97452627Y-77606401D01*
X97452620Y-77606403D01*
X97317913Y-77656645D01*
X97317906Y-77656649D01*
X97202812Y-77742809D01*
X97202809Y-77742812D01*
X97116649Y-77857906D01*
X97116645Y-77857913D01*
X97066403Y-77992620D01*
X97066401Y-77992627D01*
X97060000Y-78052155D01*
X85950500Y-78052155D01*
X85950500Y-69816543D01*
X85970185Y-69749504D01*
X85976124Y-69741057D01*
X86012734Y-69693345D01*
X86041936Y-69655289D01*
X86163224Y-69445212D01*
X86256054Y-69221100D01*
X86318838Y-68986789D01*
X86350500Y-68746288D01*
X86350500Y-68253712D01*
X86318838Y-68013211D01*
X86256054Y-67778900D01*
X86163224Y-67554788D01*
X86106119Y-67455880D01*
X86041936Y-67344711D01*
X85976124Y-67258942D01*
X85950930Y-67193773D01*
X85950500Y-67183456D01*
X85950500Y-57316543D01*
X85970185Y-57249504D01*
X85976124Y-57241057D01*
X86012734Y-57193345D01*
X86041936Y-57155289D01*
X86163224Y-56945212D01*
X86256054Y-56721100D01*
X86318838Y-56486789D01*
X86350500Y-56246288D01*
X86350500Y-55753712D01*
X86318838Y-55513211D01*
X86256054Y-55278900D01*
X86233733Y-55225013D01*
X97150000Y-55225013D01*
X97150000Y-55750000D01*
X98095854Y-55750000D01*
X98057370Y-55816657D01*
X98025000Y-55937465D01*
X98025000Y-56062535D01*
X98057370Y-56183343D01*
X98095854Y-56250000D01*
X97150001Y-56250000D01*
X97150001Y-56774986D01*
X97160494Y-56877697D01*
X97215641Y-57044119D01*
X97215643Y-57044124D01*
X97307684Y-57193345D01*
X97431654Y-57317315D01*
X97580875Y-57409356D01*
X97580880Y-57409358D01*
X97747302Y-57464505D01*
X97747309Y-57464506D01*
X97850019Y-57474999D01*
X98249999Y-57474999D01*
X98250000Y-57474998D01*
X98250000Y-56404145D01*
X98316657Y-56442630D01*
X98437465Y-56475000D01*
X98562535Y-56475000D01*
X98683343Y-56442630D01*
X98750000Y-56404145D01*
X98750000Y-57474999D01*
X99149972Y-57474999D01*
X99149986Y-57474998D01*
X99252695Y-57464506D01*
X99386495Y-57420168D01*
X99456323Y-57417766D01*
X99516366Y-57453497D01*
X99547559Y-57516017D01*
X99549500Y-57537874D01*
X99549500Y-66962125D01*
X99529815Y-67029164D01*
X99477011Y-67074919D01*
X99407853Y-67084863D01*
X99386496Y-67079831D01*
X99252697Y-67035494D01*
X99252690Y-67035493D01*
X99149986Y-67025000D01*
X98750000Y-67025000D01*
X98750000Y-68095854D01*
X98683343Y-68057370D01*
X98562535Y-68025000D01*
X98437465Y-68025000D01*
X98316657Y-68057370D01*
X98250000Y-68095854D01*
X98250000Y-67025000D01*
X97850028Y-67025000D01*
X97850012Y-67025001D01*
X97747302Y-67035494D01*
X97580880Y-67090641D01*
X97580875Y-67090643D01*
X97431654Y-67182684D01*
X97307684Y-67306654D01*
X97215643Y-67455875D01*
X97215641Y-67455880D01*
X97160494Y-67622302D01*
X97160493Y-67622309D01*
X97150000Y-67725013D01*
X97150000Y-68250000D01*
X98095854Y-68250000D01*
X98057370Y-68316657D01*
X98025000Y-68437465D01*
X98025000Y-68562535D01*
X98057370Y-68683343D01*
X98095854Y-68750000D01*
X97150001Y-68750000D01*
X97150001Y-69274986D01*
X97160494Y-69377697D01*
X97215641Y-69544119D01*
X97215643Y-69544124D01*
X97307684Y-69693345D01*
X97431654Y-69817315D01*
X97580875Y-69909356D01*
X97580880Y-69909358D01*
X97747302Y-69964505D01*
X97747309Y-69964506D01*
X97850019Y-69974999D01*
X98249999Y-69974999D01*
X98250000Y-69974998D01*
X98250000Y-68904145D01*
X98316657Y-68942630D01*
X98437465Y-68975000D01*
X98562535Y-68975000D01*
X98683343Y-68942630D01*
X98750000Y-68904145D01*
X98750000Y-69974999D01*
X99149972Y-69974999D01*
X99149986Y-69974998D01*
X99252697Y-69964505D01*
X99419119Y-69909358D01*
X99419126Y-69909355D01*
X99489204Y-69866130D01*
X99556596Y-69847689D01*
X99623260Y-69868611D01*
X99641983Y-69883987D01*
X99777256Y-70019260D01*
X99777262Y-70019265D01*
X99969711Y-70166936D01*
X100179788Y-70288224D01*
X100403900Y-70381054D01*
X100638211Y-70443838D01*
X100878712Y-70475500D01*
X100878721Y-70475500D01*
X100880793Y-70475636D01*
X100881381Y-70475851D01*
X100882737Y-70476030D01*
X100882697Y-70476333D01*
X100946403Y-70499658D01*
X100960373Y-70511690D01*
X101680066Y-71231383D01*
X101787042Y-71309105D01*
X101787045Y-71309106D01*
X101864772Y-71365579D01*
X101960884Y-71414550D01*
X102068196Y-71469229D01*
X102068198Y-71469229D01*
X102068201Y-71469231D01*
X102184592Y-71507049D01*
X102285339Y-71539784D01*
X102510838Y-71575500D01*
X102510843Y-71575500D01*
X103972821Y-71575500D01*
X104039860Y-71595185D01*
X104060502Y-71611819D01*
X112393621Y-79944937D01*
X112555063Y-80106379D01*
X112739772Y-80240579D01*
X112807300Y-80274986D01*
X112943196Y-80344229D01*
X112943198Y-80344229D01*
X112943201Y-80344231D01*
X113059592Y-80382049D01*
X113160339Y-80414784D01*
X113385838Y-80450500D01*
X113385843Y-80450500D01*
X113893014Y-80450500D01*
X113960053Y-80470185D01*
X113962865Y-80472046D01*
X114058934Y-80537544D01*
X114097226Y-80563651D01*
X114340359Y-80680738D01*
X114598228Y-80760280D01*
X114598229Y-80760280D01*
X114598232Y-80760281D01*
X114865063Y-80800499D01*
X114865068Y-80800499D01*
X114865071Y-80800500D01*
X114865072Y-80800500D01*
X115134928Y-80800500D01*
X115134929Y-80800500D01*
X115134936Y-80800499D01*
X115401767Y-80760281D01*
X115401768Y-80760280D01*
X115401772Y-80760280D01*
X115659641Y-80680738D01*
X115902775Y-80563651D01*
X116125741Y-80411635D01*
X116292193Y-80257190D01*
X116323557Y-80228089D01*
X116323557Y-80228087D01*
X116323561Y-80228085D01*
X116491815Y-80017102D01*
X116626743Y-79783398D01*
X116725334Y-79532195D01*
X116785383Y-79269103D01*
X116796564Y-79119905D01*
X116805549Y-79000004D01*
X116805549Y-78999995D01*
X116788744Y-78775747D01*
X116785383Y-78730897D01*
X116725334Y-78467805D01*
X116626743Y-78216602D01*
X116491815Y-77982898D01*
X116323561Y-77771915D01*
X116323560Y-77771914D01*
X116323557Y-77771910D01*
X116125741Y-77588365D01*
X116084174Y-77560025D01*
X115902775Y-77436349D01*
X115902771Y-77436347D01*
X115902768Y-77436345D01*
X115902767Y-77436344D01*
X115659643Y-77319263D01*
X115659645Y-77319263D01*
X115401773Y-77239720D01*
X115401767Y-77239718D01*
X115134936Y-77199500D01*
X115134929Y-77199500D01*
X114865071Y-77199500D01*
X114865063Y-77199500D01*
X114598232Y-77239718D01*
X114598226Y-77239720D01*
X114340355Y-77319263D01*
X114102545Y-77433786D01*
X114033604Y-77445138D01*
X113969469Y-77417416D01*
X113961063Y-77409747D01*
X106946734Y-70395417D01*
X106913249Y-70334094D01*
X106918233Y-70264402D01*
X106960105Y-70208469D01*
X106972404Y-70200355D01*
X107030289Y-70166936D01*
X107222738Y-70019265D01*
X107394265Y-69847738D01*
X107541936Y-69655289D01*
X107663224Y-69445212D01*
X107756054Y-69221100D01*
X107818838Y-68986789D01*
X107850500Y-68746288D01*
X107850500Y-68253712D01*
X107818838Y-68013211D01*
X107756054Y-67778900D01*
X107663224Y-67554788D01*
X107606119Y-67455880D01*
X107541936Y-67344711D01*
X107476124Y-67258942D01*
X107450930Y-67193773D01*
X107450500Y-67183456D01*
X107450500Y-57316543D01*
X107470185Y-57249504D01*
X107476124Y-57241057D01*
X107512734Y-57193345D01*
X107541936Y-57155289D01*
X107663224Y-56945212D01*
X107756054Y-56721100D01*
X107818838Y-56486789D01*
X107850500Y-56246288D01*
X107850500Y-55753712D01*
X107818838Y-55513211D01*
X107756054Y-55278900D01*
X107663224Y-55054788D01*
X107541936Y-54844711D01*
X107394265Y-54652262D01*
X107394260Y-54652256D01*
X107222743Y-54480739D01*
X107222736Y-54480733D01*
X107030293Y-54333067D01*
X107030292Y-54333066D01*
X107030289Y-54333064D01*
X106820212Y-54211776D01*
X106820205Y-54211773D01*
X106596104Y-54118947D01*
X106361785Y-54056161D01*
X106121289Y-54024500D01*
X106121288Y-54024500D01*
X105878712Y-54024500D01*
X105878711Y-54024500D01*
X105638214Y-54056161D01*
X105403895Y-54118947D01*
X105179794Y-54211773D01*
X105179785Y-54211777D01*
X104969706Y-54333067D01*
X104825486Y-54443731D01*
X104760317Y-54468925D01*
X104691872Y-54454887D01*
X104674514Y-54443731D01*
X104530293Y-54333067D01*
X104530292Y-54333066D01*
X104530289Y-54333064D01*
X104320212Y-54211776D01*
X104320205Y-54211773D01*
X104096104Y-54118947D01*
X103861785Y-54056161D01*
X103621289Y-54024500D01*
X103621288Y-54024500D01*
X103378712Y-54024500D01*
X103378711Y-54024500D01*
X103138214Y-54056161D01*
X102903895Y-54118947D01*
X102679794Y-54211773D01*
X102679785Y-54211777D01*
X102469706Y-54333067D01*
X102325486Y-54443731D01*
X102260317Y-54468925D01*
X102191872Y-54454887D01*
X102174514Y-54443731D01*
X102030293Y-54333067D01*
X102030292Y-54333066D01*
X102030289Y-54333064D01*
X101820212Y-54211776D01*
X101820205Y-54211773D01*
X101596104Y-54118947D01*
X101361785Y-54056161D01*
X101121289Y-54024500D01*
X101121288Y-54024500D01*
X100878712Y-54024500D01*
X100878711Y-54024500D01*
X100638214Y-54056161D01*
X100403895Y-54118947D01*
X100179794Y-54211773D01*
X100179785Y-54211777D01*
X99969706Y-54333067D01*
X99777263Y-54480733D01*
X99777256Y-54480739D01*
X99641984Y-54616012D01*
X99580661Y-54649497D01*
X99510969Y-54644513D01*
X99489207Y-54633870D01*
X99419128Y-54590645D01*
X99419119Y-54590641D01*
X99252697Y-54535494D01*
X99252690Y-54535493D01*
X99149986Y-54525000D01*
X98750000Y-54525000D01*
X98750000Y-55595854D01*
X98683343Y-55557370D01*
X98562535Y-55525000D01*
X98437465Y-55525000D01*
X98316657Y-55557370D01*
X98250000Y-55595854D01*
X98250000Y-54525000D01*
X97850028Y-54525000D01*
X97850012Y-54525001D01*
X97747302Y-54535494D01*
X97580880Y-54590641D01*
X97580875Y-54590643D01*
X97431654Y-54682684D01*
X97307684Y-54806654D01*
X97215643Y-54955875D01*
X97215641Y-54955880D01*
X97160494Y-55122302D01*
X97160493Y-55122309D01*
X97150000Y-55225013D01*
X86233733Y-55225013D01*
X86163224Y-55054788D01*
X86041936Y-54844711D01*
X85894265Y-54652262D01*
X85894260Y-54652256D01*
X85722743Y-54480739D01*
X85722736Y-54480733D01*
X85530293Y-54333067D01*
X85530292Y-54333066D01*
X85530289Y-54333064D01*
X85320212Y-54211776D01*
X85320205Y-54211773D01*
X85096104Y-54118947D01*
X84861785Y-54056161D01*
X84621289Y-54024500D01*
X84621288Y-54024500D01*
X84378712Y-54024500D01*
X84378711Y-54024500D01*
X84138214Y-54056161D01*
X83903895Y-54118947D01*
X83679794Y-54211773D01*
X83679785Y-54211777D01*
X83469706Y-54333067D01*
X83325486Y-54443731D01*
X83260317Y-54468925D01*
X83191872Y-54454887D01*
X83174514Y-54443731D01*
X83030293Y-54333067D01*
X83030292Y-54333066D01*
X83030289Y-54333064D01*
X82820212Y-54211776D01*
X82820205Y-54211773D01*
X82596104Y-54118947D01*
X82361785Y-54056161D01*
X82121289Y-54024500D01*
X82121288Y-54024500D01*
X81878712Y-54024500D01*
X81878711Y-54024500D01*
X81638214Y-54056161D01*
X81403895Y-54118947D01*
X81179794Y-54211773D01*
X81179785Y-54211777D01*
X80969706Y-54333067D01*
X80825486Y-54443731D01*
X80760317Y-54468925D01*
X80691872Y-54454887D01*
X80674514Y-54443731D01*
X80530293Y-54333067D01*
X80530292Y-54333066D01*
X80530289Y-54333064D01*
X80320212Y-54211776D01*
X80320205Y-54211773D01*
X80096104Y-54118947D01*
X79861785Y-54056161D01*
X79621289Y-54024500D01*
X79621288Y-54024500D01*
X79378712Y-54024500D01*
X79378711Y-54024500D01*
X79138214Y-54056161D01*
X78903895Y-54118947D01*
X78679794Y-54211773D01*
X78679785Y-54211777D01*
X78469706Y-54333067D01*
X78277263Y-54480733D01*
X78277256Y-54480739D01*
X78141984Y-54616012D01*
X78080661Y-54649497D01*
X78010969Y-54644513D01*
X77989207Y-54633870D01*
X77919128Y-54590645D01*
X77919119Y-54590641D01*
X77752697Y-54535494D01*
X77752690Y-54535493D01*
X77649986Y-54525000D01*
X77250000Y-54525000D01*
X77250000Y-55595854D01*
X77183343Y-55557370D01*
X77062535Y-55525000D01*
X76937465Y-55525000D01*
X76816657Y-55557370D01*
X76750000Y-55595854D01*
X76750000Y-54525000D01*
X76350028Y-54525000D01*
X76350012Y-54525001D01*
X76247302Y-54535494D01*
X76080880Y-54590641D01*
X76080875Y-54590643D01*
X75931654Y-54682684D01*
X75807684Y-54806654D01*
X75715643Y-54955875D01*
X75715641Y-54955880D01*
X75660494Y-55122302D01*
X75660493Y-55122309D01*
X75650000Y-55225013D01*
X72000500Y-55225013D01*
X72000500Y-50124500D01*
X72020185Y-50057461D01*
X72072989Y-50011706D01*
X72124500Y-50000500D01*
X117875500Y-50000500D01*
X117942539Y-50020185D01*
G37*
%TD.AperFunction*%
%TD*%
M02*
