%TF.GenerationSoftware,KiCad,Pcbnew,8.0.3*%
%TF.CreationDate,2024-11-25T08:52:28-03:00*%
%TF.ProjectId,v2pcb_embarcados,76327063-625f-4656-9d62-61726361646f,rev?*%
%TF.SameCoordinates,Original*%
%TF.FileFunction,Copper,L1,Top*%
%TF.FilePolarity,Positive*%
%FSLAX46Y46*%
G04 Gerber Fmt 4.6, Leading zero omitted, Abs format (unit mm)*
G04 Created by KiCad (PCBNEW 8.0.3) date 2024-11-25 08:52:28*
%MOMM*%
%LPD*%
G01*
G04 APERTURE LIST*
%TA.AperFunction,ComponentPad*%
%ADD10C,1.600000*%
%TD*%
%TA.AperFunction,ComponentPad*%
%ADD11O,1.600000X1.600000*%
%TD*%
%TA.AperFunction,ComponentPad*%
%ADD12R,1.700000X1.700000*%
%TD*%
%TA.AperFunction,ComponentPad*%
%ADD13O,1.700000X1.700000*%
%TD*%
%TA.AperFunction,ComponentPad*%
%ADD14R,1.800000X1.800000*%
%TD*%
%TA.AperFunction,ComponentPad*%
%ADD15C,1.800000*%
%TD*%
%TA.AperFunction,ViaPad*%
%ADD16C,3.000000*%
%TD*%
%TA.AperFunction,Conductor*%
%ADD17C,0.900000*%
%TD*%
G04 APERTURE END LIST*
D10*
%TO.P,R1,1*%
%TO.N,+5V*%
X80920000Y-116500000D03*
D11*
%TO.P,R1,2*%
%TO.N,Net-(D1-A)*%
X91080000Y-116500000D03*
%TD*%
D12*
%TO.P,J1,1,Pin_1*%
%TO.N,GP16*%
X88800000Y-97525000D03*
D13*
%TO.P,J1,2,Pin_2*%
%TO.N,GP17*%
X86260000Y-97525000D03*
%TO.P,J1,3,Pin_3*%
%TO.N,GND*%
X83720000Y-97525000D03*
%TO.P,J1,4,Pin_4*%
%TO.N,+5V*%
X81180000Y-97525000D03*
%TD*%
D12*
%TO.P,J2,1,Pin_1*%
%TO.N,GND*%
X99160000Y-108000000D03*
D13*
%TO.P,J2,2,Pin_2*%
%TO.N,+5V*%
X99160000Y-110540000D03*
%TO.P,J2,3,Pin_3*%
%TO.N,+3.3V*%
X96620000Y-108000000D03*
%TO.P,J2,4,Pin_4*%
%TO.N,GP10*%
X96620000Y-110540000D03*
%TO.P,J2,5,Pin_5*%
%TO.N,GP28*%
X94080000Y-108000000D03*
%TO.P,J2,6,Pin_6*%
%TO.N,GP09*%
X94080000Y-110540000D03*
%TO.P,J2,7,Pin_7*%
%TO.N,GND*%
X91540000Y-108000000D03*
%TO.P,J2,8,Pin_8*%
%TO.N,GP04*%
X91540000Y-110540000D03*
%TO.P,J2,9,Pin_9*%
%TO.N,GP17*%
X89000000Y-108000000D03*
%TO.P,J2,10,Pin_10*%
%TO.N,GP20*%
X89000000Y-110540000D03*
%TO.P,J2,11,Pin_11*%
%TO.N,GP16*%
X86460000Y-108000000D03*
%TO.P,J2,12,Pin_12*%
%TO.N,GP19*%
X86460000Y-110540000D03*
%TO.P,J2,13,Pin_13*%
%TO.N,GND*%
X83920000Y-108000000D03*
%TO.P,J2,14,Pin_14*%
%TO.N,GP18*%
X83920000Y-110540000D03*
%TD*%
D14*
%TO.P,D1,1,K*%
%TO.N,GND*%
X98540000Y-116500000D03*
D15*
%TO.P,D1,2,A*%
%TO.N,Net-(D1-A)*%
X96000000Y-116500000D03*
%TD*%
D16*
%TO.N,*%
X107500000Y-125000000D03*
X107500000Y-93500000D03*
X77500000Y-93000000D03*
X77000000Y-125000000D03*
%TD*%
D17*
%TO.N,GP17*%
X86260000Y-97525000D02*
X86260000Y-101260000D01*
X86260000Y-101260000D02*
X89000000Y-104000000D01*
X89000000Y-104000000D02*
X89000000Y-108000000D01*
%TD*%
%TA.AperFunction,Conductor*%
%TO.N,GND*%
G36*
X105876404Y-91520185D02*
G01*
X105922159Y-91572989D01*
X105932103Y-91642147D01*
X105903078Y-91705703D01*
X105894249Y-91714892D01*
X105746652Y-91853494D01*
X105554111Y-92086236D01*
X105392268Y-92341261D01*
X105392265Y-92341267D01*
X105263661Y-92614563D01*
X105263659Y-92614568D01*
X105170320Y-92901835D01*
X105113719Y-93198546D01*
X105113718Y-93198553D01*
X105094754Y-93499994D01*
X105094754Y-93500005D01*
X105113718Y-93801446D01*
X105113719Y-93801453D01*
X105170320Y-94098164D01*
X105263659Y-94385431D01*
X105263661Y-94385436D01*
X105392265Y-94658732D01*
X105392268Y-94658738D01*
X105554111Y-94913763D01*
X105554114Y-94913767D01*
X105554115Y-94913768D01*
X105720043Y-95114341D01*
X105746652Y-95146505D01*
X105966836Y-95353272D01*
X105966846Y-95353280D01*
X106211193Y-95530808D01*
X106211198Y-95530810D01*
X106211205Y-95530816D01*
X106475896Y-95676332D01*
X106475901Y-95676334D01*
X106475903Y-95676335D01*
X106475904Y-95676336D01*
X106756734Y-95787524D01*
X106756737Y-95787525D01*
X106854259Y-95812564D01*
X107049302Y-95862642D01*
X107196039Y-95881179D01*
X107348963Y-95900499D01*
X107348969Y-95900499D01*
X107348973Y-95900500D01*
X107348975Y-95900500D01*
X107651025Y-95900500D01*
X107651027Y-95900500D01*
X107651032Y-95900499D01*
X107651036Y-95900499D01*
X107730591Y-95890448D01*
X107950698Y-95862642D01*
X108243262Y-95787525D01*
X108243265Y-95787524D01*
X108524095Y-95676336D01*
X108524096Y-95676335D01*
X108524094Y-95676335D01*
X108524104Y-95676332D01*
X108788795Y-95530816D01*
X109033162Y-95353274D01*
X109253349Y-95146504D01*
X109279957Y-95114340D01*
X109337856Y-95075234D01*
X109407708Y-95073638D01*
X109467333Y-95110059D01*
X109497803Y-95172935D01*
X109499500Y-95193382D01*
X109499500Y-123306617D01*
X109479815Y-123373656D01*
X109427011Y-123419411D01*
X109357853Y-123429355D01*
X109294297Y-123400330D01*
X109279957Y-123385659D01*
X109253348Y-123353495D01*
X109033163Y-123146727D01*
X109033153Y-123146719D01*
X108788806Y-122969191D01*
X108788799Y-122969186D01*
X108788795Y-122969184D01*
X108524104Y-122823668D01*
X108524101Y-122823666D01*
X108524096Y-122823664D01*
X108524095Y-122823663D01*
X108243265Y-122712475D01*
X108243262Y-122712474D01*
X107950695Y-122637357D01*
X107651036Y-122599500D01*
X107651027Y-122599500D01*
X107348973Y-122599500D01*
X107348963Y-122599500D01*
X107049304Y-122637357D01*
X106756737Y-122712474D01*
X106756734Y-122712475D01*
X106475904Y-122823663D01*
X106475903Y-122823664D01*
X106211205Y-122969184D01*
X106211193Y-122969191D01*
X105966846Y-123146719D01*
X105966836Y-123146727D01*
X105746652Y-123353494D01*
X105554111Y-123586236D01*
X105392268Y-123841261D01*
X105392265Y-123841267D01*
X105263661Y-124114563D01*
X105263659Y-124114568D01*
X105170320Y-124401835D01*
X105113719Y-124698546D01*
X105113718Y-124698553D01*
X105094754Y-124999994D01*
X105094754Y-125000005D01*
X105113718Y-125301446D01*
X105113719Y-125301453D01*
X105170320Y-125598164D01*
X105263659Y-125885431D01*
X105263661Y-125885436D01*
X105392265Y-126158732D01*
X105392268Y-126158738D01*
X105554111Y-126413763D01*
X105554114Y-126413767D01*
X105554115Y-126413768D01*
X105720043Y-126614341D01*
X105746652Y-126646505D01*
X105966836Y-126853272D01*
X105966846Y-126853280D01*
X106211193Y-127030808D01*
X106211198Y-127030810D01*
X106211205Y-127030816D01*
X106475896Y-127176332D01*
X106475901Y-127176334D01*
X106475903Y-127176335D01*
X106475904Y-127176336D01*
X106687741Y-127260208D01*
X106742827Y-127303189D01*
X106765930Y-127369128D01*
X106749717Y-127437091D01*
X106699333Y-127485498D01*
X106642094Y-127499500D01*
X77857906Y-127499500D01*
X77790867Y-127479815D01*
X77745112Y-127427011D01*
X77735168Y-127357853D01*
X77764193Y-127294297D01*
X77812259Y-127260208D01*
X78024095Y-127176336D01*
X78024096Y-127176335D01*
X78024094Y-127176335D01*
X78024104Y-127176332D01*
X78288795Y-127030816D01*
X78533162Y-126853274D01*
X78753349Y-126646504D01*
X78945885Y-126413768D01*
X79107733Y-126158736D01*
X79236341Y-125885430D01*
X79329681Y-125598160D01*
X79386280Y-125301457D01*
X79405246Y-125000000D01*
X79386280Y-124698543D01*
X79329681Y-124401840D01*
X79236341Y-124114570D01*
X79107733Y-123841264D01*
X79079828Y-123797293D01*
X78945888Y-123586236D01*
X78816105Y-123429355D01*
X78753349Y-123353496D01*
X78533162Y-123146726D01*
X78533159Y-123146724D01*
X78533153Y-123146719D01*
X78288806Y-122969191D01*
X78288799Y-122969186D01*
X78288795Y-122969184D01*
X78024104Y-122823668D01*
X78024101Y-122823666D01*
X78024096Y-122823664D01*
X78024095Y-122823663D01*
X77743265Y-122712475D01*
X77743262Y-122712474D01*
X77450695Y-122637357D01*
X77151036Y-122599500D01*
X77151027Y-122599500D01*
X76848973Y-122599500D01*
X76848963Y-122599500D01*
X76549304Y-122637357D01*
X76256737Y-122712474D01*
X76256734Y-122712475D01*
X75975904Y-122823663D01*
X75975903Y-122823664D01*
X75711205Y-122969184D01*
X75711200Y-122969187D01*
X75697382Y-122979226D01*
X75631575Y-123002703D01*
X75563521Y-122986875D01*
X75514828Y-122936768D01*
X75500500Y-122878905D01*
X75500500Y-116499995D01*
X79214732Y-116499995D01*
X79214732Y-116500004D01*
X79233777Y-116754154D01*
X79257956Y-116860090D01*
X79290492Y-117002637D01*
X79383607Y-117239888D01*
X79511041Y-117460612D01*
X79669950Y-117659877D01*
X79856783Y-117833232D01*
X80067366Y-117976805D01*
X80067371Y-117976807D01*
X80067372Y-117976808D01*
X80067373Y-117976809D01*
X80189328Y-118035538D01*
X80296992Y-118087387D01*
X80296993Y-118087387D01*
X80296996Y-118087389D01*
X80540542Y-118162513D01*
X80792565Y-118200500D01*
X81047435Y-118200500D01*
X81299458Y-118162513D01*
X81543004Y-118087389D01*
X81772634Y-117976805D01*
X81983217Y-117833232D01*
X82170050Y-117659877D01*
X82328959Y-117460612D01*
X82456393Y-117239888D01*
X82549508Y-117002637D01*
X82606222Y-116754157D01*
X82614384Y-116645232D01*
X82625268Y-116500004D01*
X82625268Y-116499995D01*
X89374732Y-116499995D01*
X89374732Y-116500004D01*
X89393777Y-116754154D01*
X89417956Y-116860090D01*
X89450492Y-117002637D01*
X89543607Y-117239888D01*
X89671041Y-117460612D01*
X89829950Y-117659877D01*
X90016783Y-117833232D01*
X90227366Y-117976805D01*
X90227371Y-117976807D01*
X90227372Y-117976808D01*
X90227373Y-117976809D01*
X90349328Y-118035538D01*
X90456992Y-118087387D01*
X90456993Y-118087387D01*
X90456996Y-118087389D01*
X90700542Y-118162513D01*
X90952565Y-118200500D01*
X91207435Y-118200500D01*
X91459458Y-118162513D01*
X91703004Y-118087389D01*
X91932634Y-117976805D01*
X92143217Y-117833232D01*
X92330050Y-117659877D01*
X92488959Y-117460612D01*
X92616393Y-117239888D01*
X92709508Y-117002637D01*
X92766222Y-116754157D01*
X92774384Y-116645232D01*
X92785268Y-116500004D01*
X92785268Y-116499995D01*
X94194451Y-116499995D01*
X94194451Y-116500004D01*
X94214616Y-116769101D01*
X94274664Y-117032188D01*
X94274666Y-117032195D01*
X94373257Y-117283398D01*
X94508185Y-117517102D01*
X94622044Y-117659876D01*
X94676442Y-117728089D01*
X94854818Y-117893596D01*
X94874259Y-117911635D01*
X95097226Y-118063651D01*
X95340359Y-118180738D01*
X95598228Y-118260280D01*
X95598229Y-118260280D01*
X95598232Y-118260281D01*
X95865063Y-118300499D01*
X95865068Y-118300499D01*
X95865071Y-118300500D01*
X95865072Y-118300500D01*
X96134928Y-118300500D01*
X96134929Y-118300500D01*
X96134936Y-118300499D01*
X96401767Y-118260281D01*
X96401768Y-118260280D01*
X96401772Y-118260280D01*
X96659641Y-118180738D01*
X96902775Y-118063651D01*
X97125741Y-117911635D01*
X97212171Y-117831439D01*
X97274700Y-117800272D01*
X97344157Y-117807859D01*
X97370822Y-117823073D01*
X97397910Y-117843351D01*
X97397911Y-117843352D01*
X97532623Y-117893597D01*
X97532627Y-117893598D01*
X97592155Y-117899999D01*
X97592172Y-117900000D01*
X98290000Y-117900000D01*
X98290000Y-116875277D01*
X98366306Y-116919333D01*
X98480756Y-116950000D01*
X98599244Y-116950000D01*
X98713694Y-116919333D01*
X98790000Y-116875277D01*
X98790000Y-117900000D01*
X99487828Y-117900000D01*
X99487844Y-117899999D01*
X99547372Y-117893598D01*
X99547379Y-117893596D01*
X99682086Y-117843354D01*
X99682093Y-117843350D01*
X99797187Y-117757190D01*
X99797190Y-117757187D01*
X99883350Y-117642093D01*
X99883354Y-117642086D01*
X99933596Y-117507379D01*
X99933598Y-117507372D01*
X99939999Y-117447844D01*
X99940000Y-117447827D01*
X99940000Y-116750000D01*
X98915278Y-116750000D01*
X98959333Y-116673694D01*
X98990000Y-116559244D01*
X98990000Y-116440756D01*
X98959333Y-116326306D01*
X98915278Y-116250000D01*
X99940000Y-116250000D01*
X99940000Y-115552172D01*
X99939999Y-115552155D01*
X99933598Y-115492627D01*
X99933596Y-115492620D01*
X99883354Y-115357913D01*
X99883350Y-115357906D01*
X99797190Y-115242812D01*
X99797187Y-115242809D01*
X99682093Y-115156649D01*
X99682086Y-115156645D01*
X99547379Y-115106403D01*
X99547372Y-115106401D01*
X99487844Y-115100000D01*
X98790000Y-115100000D01*
X98790000Y-116124722D01*
X98713694Y-116080667D01*
X98599244Y-116050000D01*
X98480756Y-116050000D01*
X98366306Y-116080667D01*
X98290000Y-116124722D01*
X98290000Y-115100000D01*
X97592155Y-115100000D01*
X97532627Y-115106401D01*
X97532620Y-115106403D01*
X97397913Y-115156645D01*
X97397908Y-115156648D01*
X97370817Y-115176928D01*
X97305353Y-115201343D01*
X97237080Y-115186490D01*
X97212170Y-115168559D01*
X97125741Y-115088365D01*
X96902775Y-114936349D01*
X96902769Y-114936346D01*
X96902768Y-114936345D01*
X96902767Y-114936344D01*
X96659643Y-114819263D01*
X96659645Y-114819263D01*
X96401773Y-114739720D01*
X96401767Y-114739718D01*
X96134936Y-114699500D01*
X96134929Y-114699500D01*
X95865071Y-114699500D01*
X95865063Y-114699500D01*
X95598232Y-114739718D01*
X95598226Y-114739720D01*
X95340358Y-114819262D01*
X95097230Y-114936346D01*
X94874258Y-115088365D01*
X94676442Y-115271910D01*
X94508185Y-115482898D01*
X94373258Y-115716599D01*
X94373256Y-115716603D01*
X94274666Y-115967804D01*
X94274664Y-115967811D01*
X94214616Y-116230898D01*
X94194451Y-116499995D01*
X92785268Y-116499995D01*
X92771663Y-116318459D01*
X92766222Y-116245843D01*
X92709508Y-115997363D01*
X92616393Y-115760112D01*
X92488959Y-115539388D01*
X92330050Y-115340123D01*
X92143217Y-115166768D01*
X91932634Y-115023195D01*
X91932630Y-115023193D01*
X91932627Y-115023191D01*
X91932626Y-115023190D01*
X91703006Y-114912612D01*
X91703008Y-114912612D01*
X91459466Y-114837489D01*
X91459462Y-114837488D01*
X91459458Y-114837487D01*
X91338231Y-114819214D01*
X91207440Y-114799500D01*
X91207435Y-114799500D01*
X90952565Y-114799500D01*
X90952559Y-114799500D01*
X90795609Y-114823157D01*
X90700542Y-114837487D01*
X90700539Y-114837488D01*
X90700533Y-114837489D01*
X90456992Y-114912612D01*
X90227373Y-115023190D01*
X90227372Y-115023191D01*
X90016782Y-115166768D01*
X89829952Y-115340121D01*
X89829950Y-115340123D01*
X89671041Y-115539388D01*
X89543608Y-115760109D01*
X89450492Y-115997362D01*
X89450490Y-115997369D01*
X89393777Y-116245845D01*
X89374732Y-116499995D01*
X82625268Y-116499995D01*
X82611663Y-116318459D01*
X82606222Y-116245843D01*
X82549508Y-115997363D01*
X82456393Y-115760112D01*
X82328959Y-115539388D01*
X82170050Y-115340123D01*
X81983217Y-115166768D01*
X81772634Y-115023195D01*
X81772630Y-115023193D01*
X81772627Y-115023191D01*
X81772626Y-115023190D01*
X81543006Y-114912612D01*
X81543008Y-114912612D01*
X81299466Y-114837489D01*
X81299462Y-114837488D01*
X81299458Y-114837487D01*
X81178231Y-114819214D01*
X81047440Y-114799500D01*
X81047435Y-114799500D01*
X80792565Y-114799500D01*
X80792559Y-114799500D01*
X80635609Y-114823157D01*
X80540542Y-114837487D01*
X80540539Y-114837488D01*
X80540533Y-114837489D01*
X80296992Y-114912612D01*
X80067373Y-115023190D01*
X80067372Y-115023191D01*
X79856782Y-115166768D01*
X79669952Y-115340121D01*
X79669950Y-115340123D01*
X79511041Y-115539388D01*
X79383608Y-115760109D01*
X79290492Y-115997362D01*
X79290490Y-115997369D01*
X79233777Y-116245845D01*
X79214732Y-116499995D01*
X75500500Y-116499995D01*
X75500500Y-97524995D01*
X79424592Y-97524995D01*
X79424592Y-97525004D01*
X79444196Y-97786620D01*
X79444197Y-97786625D01*
X79502576Y-98042402D01*
X79502578Y-98042411D01*
X79502580Y-98042416D01*
X79598432Y-98286643D01*
X79729614Y-98513857D01*
X79829500Y-98639110D01*
X79893198Y-98718985D01*
X80040471Y-98855633D01*
X80085521Y-98897433D01*
X80302296Y-99045228D01*
X80302301Y-99045230D01*
X80302302Y-99045231D01*
X80302303Y-99045232D01*
X80427843Y-99105688D01*
X80538673Y-99159061D01*
X80538674Y-99159061D01*
X80538677Y-99159063D01*
X80789385Y-99236396D01*
X81048818Y-99275500D01*
X81311182Y-99275500D01*
X81570615Y-99236396D01*
X81821323Y-99159063D01*
X82057704Y-99045228D01*
X82274479Y-98897433D01*
X82466805Y-98718981D01*
X82618979Y-98528160D01*
X82676165Y-98488021D01*
X82745976Y-98485171D01*
X82803605Y-98517793D01*
X82848917Y-98563105D01*
X83042421Y-98698600D01*
X83256507Y-98798429D01*
X83256516Y-98798433D01*
X83470000Y-98855634D01*
X83470000Y-97958012D01*
X83527007Y-97990925D01*
X83654174Y-98025000D01*
X83785826Y-98025000D01*
X83912993Y-97990925D01*
X83970000Y-97958012D01*
X83970000Y-98855633D01*
X84183483Y-98798433D01*
X84183492Y-98798429D01*
X84397578Y-98698600D01*
X84591078Y-98563109D01*
X84636393Y-98517794D01*
X84697716Y-98484308D01*
X84767407Y-98489292D01*
X84821022Y-98528162D01*
X84882447Y-98605187D01*
X84908856Y-98669873D01*
X84909500Y-98682499D01*
X84909500Y-101366286D01*
X84942753Y-101576239D01*
X85008444Y-101778414D01*
X85104951Y-101967820D01*
X85229889Y-102139784D01*
X85229893Y-102139788D01*
X85229896Y-102139792D01*
X85380208Y-102290104D01*
X85384538Y-102294434D01*
X85384549Y-102294444D01*
X87613181Y-104523076D01*
X87646666Y-104584399D01*
X87649500Y-104610757D01*
X87649500Y-106457731D01*
X87629815Y-106524770D01*
X87577011Y-106570525D01*
X87507853Y-106580469D01*
X87455649Y-106560185D01*
X87337704Y-106479772D01*
X87337696Y-106479767D01*
X87101325Y-106365938D01*
X87101327Y-106365938D01*
X86850623Y-106288606D01*
X86850619Y-106288605D01*
X86850615Y-106288604D01*
X86725823Y-106269794D01*
X86591187Y-106249500D01*
X86591182Y-106249500D01*
X86328818Y-106249500D01*
X86328812Y-106249500D01*
X86167247Y-106273853D01*
X86069385Y-106288604D01*
X86069382Y-106288605D01*
X86069376Y-106288606D01*
X85818673Y-106365938D01*
X85582303Y-106479767D01*
X85582302Y-106479768D01*
X85365520Y-106627567D01*
X85173198Y-106806014D01*
X85091937Y-106907913D01*
X85021024Y-106996836D01*
X85021022Y-106996838D01*
X84963833Y-107036978D01*
X84894022Y-107039828D01*
X84836394Y-107007206D01*
X84791082Y-106961894D01*
X84597578Y-106826399D01*
X84383492Y-106726570D01*
X84383486Y-106726567D01*
X84170000Y-106669364D01*
X84170000Y-107566988D01*
X84112993Y-107534075D01*
X83985826Y-107500000D01*
X83854174Y-107500000D01*
X83727007Y-107534075D01*
X83670000Y-107566988D01*
X83670000Y-106669364D01*
X83669999Y-106669364D01*
X83456513Y-106726567D01*
X83456507Y-106726570D01*
X83242422Y-106826399D01*
X83242420Y-106826400D01*
X83048926Y-106961886D01*
X83048920Y-106961891D01*
X82881891Y-107128920D01*
X82881886Y-107128926D01*
X82746400Y-107322420D01*
X82746399Y-107322422D01*
X82646570Y-107536507D01*
X82646567Y-107536513D01*
X82589364Y-107749999D01*
X82589364Y-107750000D01*
X83486988Y-107750000D01*
X83454075Y-107807007D01*
X83420000Y-107934174D01*
X83420000Y-108065826D01*
X83454075Y-108192993D01*
X83486988Y-108250000D01*
X82589364Y-108250000D01*
X82646567Y-108463486D01*
X82646570Y-108463492D01*
X82746399Y-108677578D01*
X82881894Y-108871082D01*
X82929504Y-108918692D01*
X82962989Y-108980015D01*
X82958005Y-109049707D01*
X82916133Y-109105640D01*
X82911676Y-109108826D01*
X82825525Y-109167563D01*
X82825524Y-109167564D01*
X82633198Y-109346014D01*
X82469614Y-109551143D01*
X82338432Y-109778356D01*
X82242582Y-110022578D01*
X82242576Y-110022597D01*
X82184197Y-110278374D01*
X82184196Y-110278379D01*
X82164592Y-110539995D01*
X82164592Y-110540004D01*
X82184196Y-110801620D01*
X82184197Y-110801625D01*
X82242576Y-111057402D01*
X82242578Y-111057411D01*
X82242580Y-111057416D01*
X82338432Y-111301643D01*
X82469614Y-111528857D01*
X82601736Y-111694533D01*
X82633198Y-111733985D01*
X82734340Y-111827830D01*
X82825521Y-111912433D01*
X83042296Y-112060228D01*
X83042301Y-112060230D01*
X83042302Y-112060231D01*
X83042303Y-112060232D01*
X83167843Y-112120688D01*
X83278673Y-112174061D01*
X83278674Y-112174061D01*
X83278677Y-112174063D01*
X83529385Y-112251396D01*
X83788818Y-112290500D01*
X84051182Y-112290500D01*
X84310615Y-112251396D01*
X84561323Y-112174063D01*
X84797704Y-112060228D01*
X85014479Y-111912433D01*
X85105660Y-111827828D01*
X85168190Y-111796661D01*
X85237647Y-111804248D01*
X85274338Y-111827827D01*
X85365521Y-111912433D01*
X85582296Y-112060228D01*
X85582301Y-112060230D01*
X85582302Y-112060231D01*
X85582303Y-112060232D01*
X85707843Y-112120688D01*
X85818673Y-112174061D01*
X85818674Y-112174061D01*
X85818677Y-112174063D01*
X86069385Y-112251396D01*
X86328818Y-112290500D01*
X86591182Y-112290500D01*
X86850615Y-112251396D01*
X87101323Y-112174063D01*
X87337704Y-112060228D01*
X87554479Y-111912433D01*
X87645660Y-111827828D01*
X87708190Y-111796661D01*
X87777647Y-111804248D01*
X87814338Y-111827827D01*
X87905521Y-111912433D01*
X88122296Y-112060228D01*
X88122301Y-112060230D01*
X88122302Y-112060231D01*
X88122303Y-112060232D01*
X88247843Y-112120688D01*
X88358673Y-112174061D01*
X88358674Y-112174061D01*
X88358677Y-112174063D01*
X88609385Y-112251396D01*
X88868818Y-112290500D01*
X89131182Y-112290500D01*
X89390615Y-112251396D01*
X89641323Y-112174063D01*
X89877704Y-112060228D01*
X90094479Y-111912433D01*
X90185660Y-111827828D01*
X90248190Y-111796661D01*
X90317647Y-111804248D01*
X90354338Y-111827827D01*
X90445521Y-111912433D01*
X90662296Y-112060228D01*
X90662301Y-112060230D01*
X90662302Y-112060231D01*
X90662303Y-112060232D01*
X90787843Y-112120688D01*
X90898673Y-112174061D01*
X90898674Y-112174061D01*
X90898677Y-112174063D01*
X91149385Y-112251396D01*
X91408818Y-112290500D01*
X91671182Y-112290500D01*
X91930615Y-112251396D01*
X92181323Y-112174063D01*
X92417704Y-112060228D01*
X92634479Y-111912433D01*
X92725660Y-111827828D01*
X92788190Y-111796661D01*
X92857647Y-111804248D01*
X92894338Y-111827827D01*
X92985521Y-111912433D01*
X93202296Y-112060228D01*
X93202301Y-112060230D01*
X93202302Y-112060231D01*
X93202303Y-112060232D01*
X93327843Y-112120688D01*
X93438673Y-112174061D01*
X93438674Y-112174061D01*
X93438677Y-112174063D01*
X93689385Y-112251396D01*
X93948818Y-112290500D01*
X94211182Y-112290500D01*
X94470615Y-112251396D01*
X94721323Y-112174063D01*
X94957704Y-112060228D01*
X95174479Y-111912433D01*
X95265660Y-111827828D01*
X95328190Y-111796661D01*
X95397647Y-111804248D01*
X95434338Y-111827827D01*
X95525521Y-111912433D01*
X95742296Y-112060228D01*
X95742301Y-112060230D01*
X95742302Y-112060231D01*
X95742303Y-112060232D01*
X95867843Y-112120688D01*
X95978673Y-112174061D01*
X95978674Y-112174061D01*
X95978677Y-112174063D01*
X96229385Y-112251396D01*
X96488818Y-112290500D01*
X96751182Y-112290500D01*
X97010615Y-112251396D01*
X97261323Y-112174063D01*
X97497704Y-112060228D01*
X97714479Y-111912433D01*
X97805660Y-111827828D01*
X97868190Y-111796661D01*
X97937647Y-111804248D01*
X97974338Y-111827827D01*
X98065521Y-111912433D01*
X98282296Y-112060228D01*
X98282301Y-112060230D01*
X98282302Y-112060231D01*
X98282303Y-112060232D01*
X98407843Y-112120688D01*
X98518673Y-112174061D01*
X98518674Y-112174061D01*
X98518677Y-112174063D01*
X98769385Y-112251396D01*
X99028818Y-112290500D01*
X99291182Y-112290500D01*
X99550615Y-112251396D01*
X99801323Y-112174063D01*
X100037704Y-112060228D01*
X100254479Y-111912433D01*
X100446805Y-111733981D01*
X100610386Y-111528857D01*
X100741568Y-111301643D01*
X100837420Y-111057416D01*
X100895802Y-110801630D01*
X100915408Y-110540000D01*
X100895802Y-110278370D01*
X100837420Y-110022584D01*
X100741568Y-109778357D01*
X100610386Y-109551143D01*
X100446805Y-109346019D01*
X100446804Y-109346018D01*
X100446801Y-109346014D01*
X100420284Y-109321411D01*
X100384529Y-109261383D01*
X100386904Y-109191554D01*
X100405359Y-109156200D01*
X100453352Y-109092089D01*
X100453354Y-109092086D01*
X100503596Y-108957379D01*
X100503598Y-108957372D01*
X100509999Y-108897844D01*
X100510000Y-108897827D01*
X100510000Y-108250000D01*
X99593012Y-108250000D01*
X99625925Y-108192993D01*
X99660000Y-108065826D01*
X99660000Y-107934174D01*
X99625925Y-107807007D01*
X99593012Y-107750000D01*
X100510000Y-107750000D01*
X100510000Y-107102172D01*
X100509999Y-107102155D01*
X100503598Y-107042627D01*
X100503596Y-107042620D01*
X100453354Y-106907913D01*
X100453350Y-106907906D01*
X100367190Y-106792812D01*
X100367187Y-106792809D01*
X100252093Y-106706649D01*
X100252086Y-106706645D01*
X100117379Y-106656403D01*
X100117372Y-106656401D01*
X100057844Y-106650000D01*
X99410000Y-106650000D01*
X99410000Y-107566988D01*
X99352993Y-107534075D01*
X99225826Y-107500000D01*
X99094174Y-107500000D01*
X98967007Y-107534075D01*
X98910000Y-107566988D01*
X98910000Y-106650000D01*
X98262155Y-106650000D01*
X98202627Y-106656401D01*
X98202620Y-106656403D01*
X98067913Y-106706645D01*
X98067906Y-106706649D01*
X98002285Y-106755773D01*
X97936821Y-106780190D01*
X97868548Y-106765338D01*
X97843634Y-106747405D01*
X97714479Y-106627567D01*
X97645399Y-106580469D01*
X97497704Y-106479772D01*
X97497700Y-106479770D01*
X97497697Y-106479768D01*
X97497696Y-106479767D01*
X97261325Y-106365938D01*
X97261327Y-106365938D01*
X97010623Y-106288606D01*
X97010619Y-106288605D01*
X97010615Y-106288604D01*
X96885823Y-106269794D01*
X96751187Y-106249500D01*
X96751182Y-106249500D01*
X96488818Y-106249500D01*
X96488812Y-106249500D01*
X96327247Y-106273853D01*
X96229385Y-106288604D01*
X96229382Y-106288605D01*
X96229376Y-106288606D01*
X95978673Y-106365938D01*
X95742303Y-106479767D01*
X95742302Y-106479768D01*
X95525520Y-106627567D01*
X95434341Y-106712169D01*
X95371808Y-106743337D01*
X95302352Y-106735750D01*
X95265659Y-106712169D01*
X95174479Y-106627567D01*
X95105399Y-106580469D01*
X94957704Y-106479772D01*
X94957700Y-106479770D01*
X94957697Y-106479768D01*
X94957696Y-106479767D01*
X94721325Y-106365938D01*
X94721327Y-106365938D01*
X94470623Y-106288606D01*
X94470619Y-106288605D01*
X94470615Y-106288604D01*
X94345823Y-106269794D01*
X94211187Y-106249500D01*
X94211182Y-106249500D01*
X93948818Y-106249500D01*
X93948812Y-106249500D01*
X93787247Y-106273853D01*
X93689385Y-106288604D01*
X93689382Y-106288605D01*
X93689376Y-106288606D01*
X93438673Y-106365938D01*
X93202303Y-106479767D01*
X93202302Y-106479768D01*
X92985520Y-106627567D01*
X92793198Y-106806014D01*
X92711937Y-106907913D01*
X92641024Y-106996836D01*
X92641022Y-106996838D01*
X92583833Y-107036978D01*
X92514022Y-107039828D01*
X92456394Y-107007206D01*
X92411082Y-106961894D01*
X92217578Y-106826399D01*
X92003492Y-106726570D01*
X92003486Y-106726567D01*
X91790000Y-106669364D01*
X91790000Y-107566988D01*
X91732993Y-107534075D01*
X91605826Y-107500000D01*
X91474174Y-107500000D01*
X91347007Y-107534075D01*
X91290000Y-107566988D01*
X91290000Y-106669364D01*
X91289999Y-106669364D01*
X91076513Y-106726567D01*
X91076507Y-106726570D01*
X90862422Y-106826399D01*
X90862420Y-106826400D01*
X90668919Y-106961891D01*
X90623604Y-107007206D01*
X90562281Y-107040690D01*
X90492589Y-107035705D01*
X90438977Y-106996836D01*
X90377553Y-106919812D01*
X90351144Y-106855125D01*
X90350500Y-106842500D01*
X90350500Y-103893713D01*
X90317246Y-103683760D01*
X90317246Y-103683757D01*
X90251557Y-103481588D01*
X90155051Y-103292184D01*
X90155049Y-103292181D01*
X90155048Y-103292179D01*
X90030109Y-103120213D01*
X87646819Y-100736923D01*
X87613334Y-100675600D01*
X87610500Y-100649242D01*
X87610500Y-99377896D01*
X87630185Y-99310857D01*
X87682989Y-99265102D01*
X87752147Y-99255158D01*
X87766585Y-99258120D01*
X87808355Y-99269312D01*
X87886979Y-99275500D01*
X89713020Y-99275499D01*
X89791645Y-99269312D01*
X89974488Y-99220320D01*
X90103008Y-99154835D01*
X90143146Y-99134385D01*
X90143147Y-99134383D01*
X90143149Y-99134383D01*
X90290257Y-99015257D01*
X90409383Y-98868149D01*
X90415761Y-98855633D01*
X90444907Y-98798429D01*
X90495320Y-98699488D01*
X90544312Y-98516645D01*
X90550500Y-98438021D01*
X90550499Y-96611980D01*
X90544312Y-96533355D01*
X90495320Y-96350512D01*
X90444905Y-96251567D01*
X90409385Y-96181853D01*
X90335816Y-96091004D01*
X90290257Y-96034743D01*
X90203958Y-95964859D01*
X90143146Y-95915614D01*
X90017868Y-95851783D01*
X89974488Y-95829680D01*
X89907562Y-95811747D01*
X89791643Y-95780687D01*
X89719736Y-95775028D01*
X89713021Y-95774500D01*
X89713020Y-95774500D01*
X87886989Y-95774500D01*
X87886970Y-95774501D01*
X87808356Y-95780687D01*
X87625512Y-95829680D01*
X87456853Y-95915614D01*
X87322878Y-96024106D01*
X87258390Y-96050998D01*
X87189601Y-96038756D01*
X87174991Y-96030194D01*
X87137704Y-96004772D01*
X87137696Y-96004767D01*
X86901325Y-95890938D01*
X86901327Y-95890938D01*
X86650623Y-95813606D01*
X86650619Y-95813605D01*
X86650615Y-95813604D01*
X86525823Y-95794794D01*
X86391187Y-95774500D01*
X86391182Y-95774500D01*
X86128818Y-95774500D01*
X86128812Y-95774500D01*
X85967247Y-95798853D01*
X85869385Y-95813604D01*
X85869382Y-95813605D01*
X85869376Y-95813606D01*
X85618673Y-95890938D01*
X85382303Y-96004767D01*
X85382302Y-96004768D01*
X85165520Y-96152567D01*
X84973198Y-96331014D01*
X84821022Y-96521838D01*
X84763833Y-96561978D01*
X84694022Y-96564828D01*
X84636394Y-96532206D01*
X84591082Y-96486894D01*
X84397578Y-96351399D01*
X84183492Y-96251570D01*
X84183486Y-96251567D01*
X83970000Y-96194364D01*
X83970000Y-97091988D01*
X83912993Y-97059075D01*
X83785826Y-97025000D01*
X83654174Y-97025000D01*
X83527007Y-97059075D01*
X83470000Y-97091988D01*
X83470000Y-96194364D01*
X83469999Y-96194364D01*
X83256513Y-96251567D01*
X83256507Y-96251570D01*
X83042422Y-96351399D01*
X83042420Y-96351400D01*
X82848919Y-96486891D01*
X82803604Y-96532206D01*
X82742281Y-96565690D01*
X82672589Y-96560705D01*
X82618977Y-96521837D01*
X82483057Y-96351399D01*
X82466805Y-96331019D01*
X82466804Y-96331018D01*
X82466801Y-96331014D01*
X82274479Y-96152567D01*
X82057704Y-96004772D01*
X82057700Y-96004770D01*
X82057697Y-96004768D01*
X82057696Y-96004767D01*
X81821325Y-95890938D01*
X81821327Y-95890938D01*
X81570623Y-95813606D01*
X81570619Y-95813605D01*
X81570615Y-95813604D01*
X81445823Y-95794794D01*
X81311187Y-95774500D01*
X81311182Y-95774500D01*
X81048818Y-95774500D01*
X81048812Y-95774500D01*
X80887247Y-95798853D01*
X80789385Y-95813604D01*
X80789382Y-95813605D01*
X80789376Y-95813606D01*
X80538673Y-95890938D01*
X80302303Y-96004767D01*
X80302302Y-96004768D01*
X80085520Y-96152567D01*
X79893198Y-96331014D01*
X79729614Y-96536143D01*
X79598432Y-96763356D01*
X79502582Y-97007578D01*
X79502576Y-97007597D01*
X79444197Y-97263374D01*
X79444196Y-97263379D01*
X79424592Y-97524995D01*
X75500500Y-97524995D01*
X75500500Y-94693382D01*
X75520185Y-94626343D01*
X75572989Y-94580588D01*
X75642147Y-94570644D01*
X75705703Y-94599669D01*
X75720040Y-94614337D01*
X75746651Y-94646504D01*
X75746652Y-94646505D01*
X75966836Y-94853272D01*
X75966846Y-94853280D01*
X76211193Y-95030808D01*
X76211198Y-95030810D01*
X76211205Y-95030816D01*
X76475896Y-95176332D01*
X76475901Y-95176334D01*
X76475903Y-95176335D01*
X76475904Y-95176336D01*
X76756734Y-95287524D01*
X76756737Y-95287525D01*
X76854259Y-95312564D01*
X77049302Y-95362642D01*
X77196039Y-95381179D01*
X77348963Y-95400499D01*
X77348969Y-95400499D01*
X77348973Y-95400500D01*
X77348975Y-95400500D01*
X77651025Y-95400500D01*
X77651027Y-95400500D01*
X77651032Y-95400499D01*
X77651036Y-95400499D01*
X77730591Y-95390448D01*
X77950698Y-95362642D01*
X78243262Y-95287525D01*
X78243265Y-95287524D01*
X78524095Y-95176336D01*
X78524096Y-95176335D01*
X78524094Y-95176335D01*
X78524104Y-95176332D01*
X78788795Y-95030816D01*
X79033162Y-94853274D01*
X79253349Y-94646504D01*
X79445885Y-94413768D01*
X79607733Y-94158736D01*
X79736341Y-93885430D01*
X79829681Y-93598160D01*
X79886280Y-93301457D01*
X79905246Y-93000000D01*
X79899070Y-92901840D01*
X79886281Y-92698553D01*
X79886280Y-92698546D01*
X79886280Y-92698543D01*
X79829681Y-92401840D01*
X79736341Y-92114570D01*
X79607733Y-91841264D01*
X79527535Y-91714892D01*
X79512336Y-91690942D01*
X79493035Y-91623792D01*
X79513102Y-91556866D01*
X79566167Y-91511413D01*
X79617033Y-91500500D01*
X105809365Y-91500500D01*
X105876404Y-91520185D01*
G37*
%TD.AperFunction*%
%TD*%
M02*
