%TF.GenerationSoftware,KiCad,Pcbnew,8.0.3*%
%TF.CreationDate,2024-11-25T08:52:28-03:00*%
%TF.ProjectId,v2pcb_embarcados,76327063-625f-4656-9d62-61726361646f,rev?*%
%TF.SameCoordinates,Original*%
%TF.FileFunction,Legend,Top*%
%TF.FilePolarity,Positive*%
%FSLAX46Y46*%
G04 Gerber Fmt 4.6, Leading zero omitted, Abs format (unit mm)*
G04 Created by KiCad (PCBNEW 8.0.3) date 2024-11-25 08:52:28*
%MOMM*%
%LPD*%
G01*
G04 APERTURE LIST*
%ADD10C,0.100000*%
%ADD11C,0.150000*%
%ADD12C,0.120000*%
G04 APERTURE END LIST*
D10*
X96372419Y-105791353D02*
X96372419Y-105172306D01*
X96372419Y-105172306D02*
X96753371Y-105505639D01*
X96753371Y-105505639D02*
X96753371Y-105362782D01*
X96753371Y-105362782D02*
X96800990Y-105267544D01*
X96800990Y-105267544D02*
X96848609Y-105219925D01*
X96848609Y-105219925D02*
X96943847Y-105172306D01*
X96943847Y-105172306D02*
X97181942Y-105172306D01*
X97181942Y-105172306D02*
X97277180Y-105219925D01*
X97277180Y-105219925D02*
X97324800Y-105267544D01*
X97324800Y-105267544D02*
X97372419Y-105362782D01*
X97372419Y-105362782D02*
X97372419Y-105648496D01*
X97372419Y-105648496D02*
X97324800Y-105743734D01*
X97324800Y-105743734D02*
X97277180Y-105791353D01*
X84372419Y-105672306D02*
X84372419Y-106243734D01*
X84372419Y-105958020D02*
X83372419Y-105958020D01*
X83372419Y-105958020D02*
X83515276Y-106053258D01*
X83515276Y-106053258D02*
X83610514Y-106148496D01*
X83610514Y-106148496D02*
X83658133Y-106243734D01*
X83372419Y-105338972D02*
X83372419Y-104719925D01*
X83372419Y-104719925D02*
X83753371Y-105053258D01*
X83753371Y-105053258D02*
X83753371Y-104910401D01*
X83753371Y-104910401D02*
X83800990Y-104815163D01*
X83800990Y-104815163D02*
X83848609Y-104767544D01*
X83848609Y-104767544D02*
X83943847Y-104719925D01*
X83943847Y-104719925D02*
X84181942Y-104719925D01*
X84181942Y-104719925D02*
X84277180Y-104767544D01*
X84277180Y-104767544D02*
X84324800Y-104815163D01*
X84324800Y-104815163D02*
X84372419Y-104910401D01*
X84372419Y-104910401D02*
X84372419Y-105196115D01*
X84372419Y-105196115D02*
X84324800Y-105291353D01*
X84324800Y-105291353D02*
X84277180Y-105338972D01*
X86872419Y-105672306D02*
X86872419Y-106243734D01*
X86872419Y-105958020D02*
X85872419Y-105958020D01*
X85872419Y-105958020D02*
X86015276Y-106053258D01*
X86015276Y-106053258D02*
X86110514Y-106148496D01*
X86110514Y-106148496D02*
X86158133Y-106243734D01*
X86872419Y-104719925D02*
X86872419Y-105291353D01*
X86872419Y-105005639D02*
X85872419Y-105005639D01*
X85872419Y-105005639D02*
X86015276Y-105100877D01*
X86015276Y-105100877D02*
X86110514Y-105196115D01*
X86110514Y-105196115D02*
X86158133Y-105291353D01*
X84372419Y-113172306D02*
X84372419Y-113743734D01*
X84372419Y-113458020D02*
X83372419Y-113458020D01*
X83372419Y-113458020D02*
X83515276Y-113553258D01*
X83515276Y-113553258D02*
X83610514Y-113648496D01*
X83610514Y-113648496D02*
X83658133Y-113743734D01*
X83705752Y-112315163D02*
X84372419Y-112315163D01*
X83324800Y-112553258D02*
X84039085Y-112791353D01*
X84039085Y-112791353D02*
X84039085Y-112172306D01*
X85872419Y-100838972D02*
X85872419Y-100267544D01*
X86872419Y-100553258D02*
X85872419Y-100553258D01*
X85872419Y-100029448D02*
X86872419Y-99362782D01*
X85872419Y-99362782D02*
X86872419Y-100029448D01*
X89372419Y-113172306D02*
X89372419Y-113743734D01*
X89372419Y-113458020D02*
X88372419Y-113458020D01*
X88372419Y-113458020D02*
X88515276Y-113553258D01*
X88515276Y-113553258D02*
X88610514Y-113648496D01*
X88610514Y-113648496D02*
X88658133Y-113743734D01*
X88372419Y-112553258D02*
X88372419Y-112458020D01*
X88372419Y-112458020D02*
X88420038Y-112362782D01*
X88420038Y-112362782D02*
X88467657Y-112315163D01*
X88467657Y-112315163D02*
X88562895Y-112267544D01*
X88562895Y-112267544D02*
X88753371Y-112219925D01*
X88753371Y-112219925D02*
X88991466Y-112219925D01*
X88991466Y-112219925D02*
X89181942Y-112267544D01*
X89181942Y-112267544D02*
X89277180Y-112315163D01*
X89277180Y-112315163D02*
X89324800Y-112362782D01*
X89324800Y-112362782D02*
X89372419Y-112458020D01*
X89372419Y-112458020D02*
X89372419Y-112553258D01*
X89372419Y-112553258D02*
X89324800Y-112648496D01*
X89324800Y-112648496D02*
X89277180Y-112696115D01*
X89277180Y-112696115D02*
X89181942Y-112743734D01*
X89181942Y-112743734D02*
X88991466Y-112791353D01*
X88991466Y-112791353D02*
X88753371Y-112791353D01*
X88753371Y-112791353D02*
X88562895Y-112743734D01*
X88562895Y-112743734D02*
X88467657Y-112696115D01*
X88467657Y-112696115D02*
X88420038Y-112648496D01*
X88420038Y-112648496D02*
X88372419Y-112553258D01*
X99372419Y-105172306D02*
X99372419Y-105743734D01*
X99372419Y-105458020D02*
X98372419Y-105458020D01*
X98372419Y-105458020D02*
X98515276Y-105553258D01*
X98515276Y-105553258D02*
X98610514Y-105648496D01*
X98610514Y-105648496D02*
X98658133Y-105743734D01*
X91300990Y-112553258D02*
X91253371Y-112648496D01*
X91253371Y-112648496D02*
X91205752Y-112696115D01*
X91205752Y-112696115D02*
X91110514Y-112743734D01*
X91110514Y-112743734D02*
X91062895Y-112743734D01*
X91062895Y-112743734D02*
X90967657Y-112696115D01*
X90967657Y-112696115D02*
X90920038Y-112648496D01*
X90920038Y-112648496D02*
X90872419Y-112553258D01*
X90872419Y-112553258D02*
X90872419Y-112362782D01*
X90872419Y-112362782D02*
X90920038Y-112267544D01*
X90920038Y-112267544D02*
X90967657Y-112219925D01*
X90967657Y-112219925D02*
X91062895Y-112172306D01*
X91062895Y-112172306D02*
X91110514Y-112172306D01*
X91110514Y-112172306D02*
X91205752Y-112219925D01*
X91205752Y-112219925D02*
X91253371Y-112267544D01*
X91253371Y-112267544D02*
X91300990Y-112362782D01*
X91300990Y-112362782D02*
X91300990Y-112553258D01*
X91300990Y-112553258D02*
X91348609Y-112648496D01*
X91348609Y-112648496D02*
X91396228Y-112696115D01*
X91396228Y-112696115D02*
X91491466Y-112743734D01*
X91491466Y-112743734D02*
X91681942Y-112743734D01*
X91681942Y-112743734D02*
X91777180Y-112696115D01*
X91777180Y-112696115D02*
X91824800Y-112648496D01*
X91824800Y-112648496D02*
X91872419Y-112553258D01*
X91872419Y-112553258D02*
X91872419Y-112362782D01*
X91872419Y-112362782D02*
X91824800Y-112267544D01*
X91824800Y-112267544D02*
X91777180Y-112219925D01*
X91777180Y-112219925D02*
X91681942Y-112172306D01*
X91681942Y-112172306D02*
X91491466Y-112172306D01*
X91491466Y-112172306D02*
X91396228Y-112219925D01*
X91396228Y-112219925D02*
X91348609Y-112267544D01*
X91348609Y-112267544D02*
X91300990Y-112362782D01*
X88872419Y-100124687D02*
X88396228Y-100458020D01*
X88872419Y-100696115D02*
X87872419Y-100696115D01*
X87872419Y-100696115D02*
X87872419Y-100315163D01*
X87872419Y-100315163D02*
X87920038Y-100219925D01*
X87920038Y-100219925D02*
X87967657Y-100172306D01*
X87967657Y-100172306D02*
X88062895Y-100124687D01*
X88062895Y-100124687D02*
X88205752Y-100124687D01*
X88205752Y-100124687D02*
X88300990Y-100172306D01*
X88300990Y-100172306D02*
X88348609Y-100219925D01*
X88348609Y-100219925D02*
X88396228Y-100315163D01*
X88396228Y-100315163D02*
X88396228Y-100696115D01*
X87872419Y-99791353D02*
X88872419Y-99124687D01*
X87872419Y-99124687D02*
X88872419Y-99791353D01*
X89372419Y-105648496D02*
X89372419Y-105458020D01*
X89372419Y-105458020D02*
X89324800Y-105362782D01*
X89324800Y-105362782D02*
X89277180Y-105315163D01*
X89277180Y-105315163D02*
X89134323Y-105219925D01*
X89134323Y-105219925D02*
X88943847Y-105172306D01*
X88943847Y-105172306D02*
X88562895Y-105172306D01*
X88562895Y-105172306D02*
X88467657Y-105219925D01*
X88467657Y-105219925D02*
X88420038Y-105267544D01*
X88420038Y-105267544D02*
X88372419Y-105362782D01*
X88372419Y-105362782D02*
X88372419Y-105553258D01*
X88372419Y-105553258D02*
X88420038Y-105648496D01*
X88420038Y-105648496D02*
X88467657Y-105696115D01*
X88467657Y-105696115D02*
X88562895Y-105743734D01*
X88562895Y-105743734D02*
X88800990Y-105743734D01*
X88800990Y-105743734D02*
X88896228Y-105696115D01*
X88896228Y-105696115D02*
X88943847Y-105648496D01*
X88943847Y-105648496D02*
X88991466Y-105553258D01*
X88991466Y-105553258D02*
X88991466Y-105362782D01*
X88991466Y-105362782D02*
X88943847Y-105267544D01*
X88943847Y-105267544D02*
X88896228Y-105219925D01*
X88896228Y-105219925D02*
X88800990Y-105172306D01*
X93372419Y-112267544D02*
X93372419Y-112458020D01*
X93372419Y-112458020D02*
X93420038Y-112553258D01*
X93420038Y-112553258D02*
X93467657Y-112600877D01*
X93467657Y-112600877D02*
X93610514Y-112696115D01*
X93610514Y-112696115D02*
X93800990Y-112743734D01*
X93800990Y-112743734D02*
X94181942Y-112743734D01*
X94181942Y-112743734D02*
X94277180Y-112696115D01*
X94277180Y-112696115D02*
X94324800Y-112648496D01*
X94324800Y-112648496D02*
X94372419Y-112553258D01*
X94372419Y-112553258D02*
X94372419Y-112362782D01*
X94372419Y-112362782D02*
X94324800Y-112267544D01*
X94324800Y-112267544D02*
X94277180Y-112219925D01*
X94277180Y-112219925D02*
X94181942Y-112172306D01*
X94181942Y-112172306D02*
X93943847Y-112172306D01*
X93943847Y-112172306D02*
X93848609Y-112219925D01*
X93848609Y-112219925D02*
X93800990Y-112267544D01*
X93800990Y-112267544D02*
X93753371Y-112362782D01*
X93753371Y-112362782D02*
X93753371Y-112553258D01*
X93753371Y-112553258D02*
X93800990Y-112648496D01*
X93800990Y-112648496D02*
X93848609Y-112696115D01*
X93848609Y-112696115D02*
X93943847Y-112743734D01*
X98967657Y-112743734D02*
X98920038Y-112696115D01*
X98920038Y-112696115D02*
X98872419Y-112600877D01*
X98872419Y-112600877D02*
X98872419Y-112362782D01*
X98872419Y-112362782D02*
X98920038Y-112267544D01*
X98920038Y-112267544D02*
X98967657Y-112219925D01*
X98967657Y-112219925D02*
X99062895Y-112172306D01*
X99062895Y-112172306D02*
X99158133Y-112172306D01*
X99158133Y-112172306D02*
X99300990Y-112219925D01*
X99300990Y-112219925D02*
X99872419Y-112791353D01*
X99872419Y-112791353D02*
X99872419Y-112172306D01*
X90872419Y-105791353D02*
X90872419Y-105124687D01*
X90872419Y-105124687D02*
X91872419Y-105553258D01*
X86872419Y-112672306D02*
X86872419Y-113243734D01*
X86872419Y-112958020D02*
X85872419Y-112958020D01*
X85872419Y-112958020D02*
X86015276Y-113053258D01*
X86015276Y-113053258D02*
X86110514Y-113148496D01*
X86110514Y-113148496D02*
X86158133Y-113243734D01*
X85967657Y-112291353D02*
X85920038Y-112243734D01*
X85920038Y-112243734D02*
X85872419Y-112148496D01*
X85872419Y-112148496D02*
X85872419Y-111910401D01*
X85872419Y-111910401D02*
X85920038Y-111815163D01*
X85920038Y-111815163D02*
X85967657Y-111767544D01*
X85967657Y-111767544D02*
X86062895Y-111719925D01*
X86062895Y-111719925D02*
X86158133Y-111719925D01*
X86158133Y-111719925D02*
X86300990Y-111767544D01*
X86300990Y-111767544D02*
X86872419Y-112338972D01*
X86872419Y-112338972D02*
X86872419Y-111719925D01*
X96205752Y-112267544D02*
X96872419Y-112267544D01*
X95824800Y-112505639D02*
X96539085Y-112743734D01*
X96539085Y-112743734D02*
X96539085Y-112124687D01*
X93872419Y-105219925D02*
X93872419Y-105696115D01*
X93872419Y-105696115D02*
X94348609Y-105743734D01*
X94348609Y-105743734D02*
X94300990Y-105696115D01*
X94300990Y-105696115D02*
X94253371Y-105600877D01*
X94253371Y-105600877D02*
X94253371Y-105362782D01*
X94253371Y-105362782D02*
X94300990Y-105267544D01*
X94300990Y-105267544D02*
X94348609Y-105219925D01*
X94348609Y-105219925D02*
X94443847Y-105172306D01*
X94443847Y-105172306D02*
X94681942Y-105172306D01*
X94681942Y-105172306D02*
X94777180Y-105219925D01*
X94777180Y-105219925D02*
X94824800Y-105267544D01*
X94824800Y-105267544D02*
X94872419Y-105362782D01*
X94872419Y-105362782D02*
X94872419Y-105600877D01*
X94872419Y-105600877D02*
X94824800Y-105696115D01*
X94824800Y-105696115D02*
X94777180Y-105743734D01*
X82920038Y-101172306D02*
X82872419Y-101267544D01*
X82872419Y-101267544D02*
X82872419Y-101410401D01*
X82872419Y-101410401D02*
X82920038Y-101553258D01*
X82920038Y-101553258D02*
X83015276Y-101648496D01*
X83015276Y-101648496D02*
X83110514Y-101696115D01*
X83110514Y-101696115D02*
X83300990Y-101743734D01*
X83300990Y-101743734D02*
X83443847Y-101743734D01*
X83443847Y-101743734D02*
X83634323Y-101696115D01*
X83634323Y-101696115D02*
X83729561Y-101648496D01*
X83729561Y-101648496D02*
X83824800Y-101553258D01*
X83824800Y-101553258D02*
X83872419Y-101410401D01*
X83872419Y-101410401D02*
X83872419Y-101315163D01*
X83872419Y-101315163D02*
X83824800Y-101172306D01*
X83824800Y-101172306D02*
X83777180Y-101124687D01*
X83777180Y-101124687D02*
X83443847Y-101124687D01*
X83443847Y-101124687D02*
X83443847Y-101315163D01*
X83872419Y-100696115D02*
X82872419Y-100696115D01*
X82872419Y-100696115D02*
X83872419Y-100124687D01*
X83872419Y-100124687D02*
X82872419Y-100124687D01*
X83872419Y-99648496D02*
X82872419Y-99648496D01*
X82872419Y-99648496D02*
X82872419Y-99410401D01*
X82872419Y-99410401D02*
X82920038Y-99267544D01*
X82920038Y-99267544D02*
X83015276Y-99172306D01*
X83015276Y-99172306D02*
X83110514Y-99124687D01*
X83110514Y-99124687D02*
X83300990Y-99077068D01*
X83300990Y-99077068D02*
X83443847Y-99077068D01*
X83443847Y-99077068D02*
X83634323Y-99124687D01*
X83634323Y-99124687D02*
X83729561Y-99172306D01*
X83729561Y-99172306D02*
X83824800Y-99267544D01*
X83824800Y-99267544D02*
X83872419Y-99410401D01*
X83872419Y-99410401D02*
X83872419Y-99648496D01*
X80372419Y-101838972D02*
X81372419Y-101505639D01*
X81372419Y-101505639D02*
X80372419Y-101172306D01*
X81324800Y-100410401D02*
X81372419Y-100505639D01*
X81372419Y-100505639D02*
X81372419Y-100696115D01*
X81372419Y-100696115D02*
X81324800Y-100791353D01*
X81324800Y-100791353D02*
X81277180Y-100838972D01*
X81277180Y-100838972D02*
X81181942Y-100886591D01*
X81181942Y-100886591D02*
X80896228Y-100886591D01*
X80896228Y-100886591D02*
X80800990Y-100838972D01*
X80800990Y-100838972D02*
X80753371Y-100791353D01*
X80753371Y-100791353D02*
X80705752Y-100696115D01*
X80705752Y-100696115D02*
X80705752Y-100505639D01*
X80705752Y-100505639D02*
X80753371Y-100410401D01*
X81324800Y-99553258D02*
X81372419Y-99648496D01*
X81372419Y-99648496D02*
X81372419Y-99838972D01*
X81372419Y-99838972D02*
X81324800Y-99934210D01*
X81324800Y-99934210D02*
X81277180Y-99981829D01*
X81277180Y-99981829D02*
X81181942Y-100029448D01*
X81181942Y-100029448D02*
X80896228Y-100029448D01*
X80896228Y-100029448D02*
X80800990Y-99981829D01*
X80800990Y-99981829D02*
X80753371Y-99934210D01*
X80753371Y-99934210D02*
X80705752Y-99838972D01*
X80705752Y-99838972D02*
X80705752Y-99648496D01*
X80705752Y-99648496D02*
X80753371Y-99553258D01*
D11*
X85833333Y-119454819D02*
X85500000Y-118978628D01*
X85261905Y-119454819D02*
X85261905Y-118454819D01*
X85261905Y-118454819D02*
X85642857Y-118454819D01*
X85642857Y-118454819D02*
X85738095Y-118502438D01*
X85738095Y-118502438D02*
X85785714Y-118550057D01*
X85785714Y-118550057D02*
X85833333Y-118645295D01*
X85833333Y-118645295D02*
X85833333Y-118788152D01*
X85833333Y-118788152D02*
X85785714Y-118883390D01*
X85785714Y-118883390D02*
X85738095Y-118931009D01*
X85738095Y-118931009D02*
X85642857Y-118978628D01*
X85642857Y-118978628D02*
X85261905Y-118978628D01*
X86785714Y-119454819D02*
X86214286Y-119454819D01*
X86500000Y-119454819D02*
X86500000Y-118454819D01*
X86500000Y-118454819D02*
X86404762Y-118597676D01*
X86404762Y-118597676D02*
X86309524Y-118692914D01*
X86309524Y-118692914D02*
X86214286Y-118740533D01*
X91024819Y-97858333D02*
X91739104Y-97858333D01*
X91739104Y-97858333D02*
X91881961Y-97905952D01*
X91881961Y-97905952D02*
X91977200Y-98001190D01*
X91977200Y-98001190D02*
X92024819Y-98144047D01*
X92024819Y-98144047D02*
X92024819Y-98239285D01*
X92024819Y-96858333D02*
X92024819Y-97429761D01*
X92024819Y-97144047D02*
X91024819Y-97144047D01*
X91024819Y-97144047D02*
X91167676Y-97239285D01*
X91167676Y-97239285D02*
X91262914Y-97334523D01*
X91262914Y-97334523D02*
X91310533Y-97429761D01*
X101114819Y-109873333D02*
X101829104Y-109873333D01*
X101829104Y-109873333D02*
X101971961Y-109920952D01*
X101971961Y-109920952D02*
X102067200Y-110016190D01*
X102067200Y-110016190D02*
X102114819Y-110159047D01*
X102114819Y-110159047D02*
X102114819Y-110254285D01*
X101210057Y-109444761D02*
X101162438Y-109397142D01*
X101162438Y-109397142D02*
X101114819Y-109301904D01*
X101114819Y-109301904D02*
X101114819Y-109063809D01*
X101114819Y-109063809D02*
X101162438Y-108968571D01*
X101162438Y-108968571D02*
X101210057Y-108920952D01*
X101210057Y-108920952D02*
X101305295Y-108873333D01*
X101305295Y-108873333D02*
X101400533Y-108873333D01*
X101400533Y-108873333D02*
X101543390Y-108920952D01*
X101543390Y-108920952D02*
X102114819Y-109492380D01*
X102114819Y-109492380D02*
X102114819Y-108873333D01*
X96261905Y-117454819D02*
X96261905Y-116454819D01*
X96261905Y-116454819D02*
X96500000Y-116454819D01*
X96500000Y-116454819D02*
X96642857Y-116502438D01*
X96642857Y-116502438D02*
X96738095Y-116597676D01*
X96738095Y-116597676D02*
X96785714Y-116692914D01*
X96785714Y-116692914D02*
X96833333Y-116883390D01*
X96833333Y-116883390D02*
X96833333Y-117026247D01*
X96833333Y-117026247D02*
X96785714Y-117216723D01*
X96785714Y-117216723D02*
X96738095Y-117311961D01*
X96738095Y-117311961D02*
X96642857Y-117407200D01*
X96642857Y-117407200D02*
X96500000Y-117454819D01*
X96500000Y-117454819D02*
X96261905Y-117454819D01*
X97785714Y-117454819D02*
X97214286Y-117454819D01*
X97500000Y-117454819D02*
X97500000Y-116454819D01*
X97500000Y-116454819D02*
X97404762Y-116597676D01*
X97404762Y-116597676D02*
X97309524Y-116692914D01*
X97309524Y-116692914D02*
X97214286Y-116740533D01*
D12*
%TO.C,R1*%
X81960000Y-116500000D02*
X82730000Y-116500000D01*
X82730000Y-115130000D02*
X82730000Y-117870000D01*
X82730000Y-117870000D02*
X89270000Y-117870000D01*
X89270000Y-115130000D02*
X82730000Y-115130000D01*
X89270000Y-117870000D02*
X89270000Y-115130000D01*
X90040000Y-116500000D02*
X89270000Y-116500000D01*
%TO.C,J1*%
X79850000Y-96195000D02*
X79850000Y-98855000D01*
X87530000Y-96195000D02*
X79850000Y-96195000D01*
X87530000Y-96195000D02*
X87530000Y-98855000D01*
X87530000Y-98855000D02*
X79850000Y-98855000D01*
X90130000Y-97525000D02*
X90130000Y-98855000D01*
X90130000Y-98855000D02*
X88800000Y-98855000D01*
%TO.C,J2*%
X82590000Y-106670000D02*
X82590000Y-111870000D01*
X97890000Y-106670000D02*
X82590000Y-106670000D01*
X97890000Y-106670000D02*
X97890000Y-109270000D01*
X97890000Y-109270000D02*
X100490000Y-109270000D01*
X99160000Y-106670000D02*
X100490000Y-106670000D01*
X100490000Y-106670000D02*
X100490000Y-108000000D01*
X100490000Y-109270000D02*
X100490000Y-111870000D01*
X100490000Y-111870000D02*
X82590000Y-111870000D01*
%TO.C,D1*%
X98830000Y-115420000D02*
X98830000Y-115264000D01*
X98830000Y-117736000D02*
X98830000Y-117580000D01*
X95597665Y-115421392D02*
G75*
G02*
X98830000Y-115264484I1672335J-1078608D01*
G01*
X96228870Y-115420163D02*
G75*
G02*
X98310961Y-115420000I1041130J-1079837D01*
G01*
X98310961Y-117580000D02*
G75*
G02*
X96228870Y-117579837I-1040961J1080000D01*
G01*
X98830000Y-117735516D02*
G75*
G02*
X95597665Y-117578608I-1560000J1235516D01*
G01*
%TD*%
M02*
